<svg width="186" height="49" viewBox="0 0 186 49" fill="none" xmlns="http://www.w3.org/2000/svg">
<path d="M5.16211 0.515842C14.7777 -0.812226 23.8004 0.406714 32.4441 4.37445C41.9445 8.73957 48.523 16.0306 51.1359 21.3964C50.7777 21.2172 50.5182 21.104 50.265 20.9557C41.7283 15.7485 32.4668 12.5796 22.5752 11.2928C19.7606 10.9263 16.8965 10.918 14.053 10.7904C13.4044 10.7615 12.9782 10.6236 12.6961 9.96675C11.1127 6.34287 8.68303 3.37582 5.5492 0.956473C5.41257 0.81645 5.28337 0.669372 5.16211 0.515842V0.515842Z" fill="url(#paint0_linear_7_114)"/>
<path d="M51.1109 24.6602C47.5159 31.0864 42.6504 35.9848 36.286 39.4048C29.2977 43.1584 21.8728 43.8029 17.4336 42.9299C17.7054 42.796 17.8948 42.6848 18.0987 42.6045C25.0738 39.8485 31.3844 35.6433 36.6134 30.2669C38.1247 28.7308 39.4383 27.0013 40.8179 25.3396C41.1309 24.9587 41.4088 24.7652 41.9318 24.8908C44.8119 25.5676 47.8171 25.4967 50.6621 24.6849C50.8111 24.6681 50.961 24.6599 51.1109 24.6602V24.6602Z" fill="url(#paint1_linear_7_114)"/>
<path d="M9.96098 49.0003C4.76607 43.338 1.7249 36.6688 0.522428 29.1369C-0.820054 20.7587 0.489483 12.708 3.70773 4.88574C3.74842 5.06763 3.77731 5.25195 3.79421 5.43756C4.11336 15.8253 7.53339 25.2515 12.6871 34.1383C13.3234 35.2357 14.0543 36.2796 14.6803 37.3833C14.8285 37.6427 14.8717 38.1389 14.7214 38.3695C12.6233 41.5878 10.9678 44.9914 10.1751 48.7779C10.1648 48.8314 10.0866 48.8747 9.96098 49.0003Z" fill="url(#paint2_linear_7_114)"/>
<path d="M73.9426 26.2316C74.3271 25.6579 74.6783 25.0625 74.9944 24.4485C76.4963 20.9216 77.956 17.3751 79.4747 13.8539C79.6547 13.4376 80.1131 13.1395 80.445 12.7852C80.7263 13.1255 81.1313 13.418 81.3056 13.8089C82.979 17.617 84.6131 21.4419 86.2781 25.2613C86.3653 25.4666 86.5003 25.6494 86.8237 26.195C87.2118 25.4835 87.5577 25.0363 87.7152 24.53C88.7615 21.0988 89.7655 17.6339 90.8258 14.1942C91.1436 13.1592 93.613 12.4645 94.3442 13.252C94.6255 13.5333 94.5495 14.3011 94.4061 14.7792C93.5427 17.6929 92.6061 20.5841 91.7033 23.4978C90.734 26.6141 89.7693 29.735 88.8093 32.8606C88.7844 33.0457 88.7313 33.2259 88.6518 33.3949C88.3565 33.7774 88.0218 34.1262 87.7012 34.489C87.3862 34.1712 86.9587 33.9068 86.7731 33.5243C85.7887 31.5049 84.8718 29.4603 83.9297 27.4212C83.0494 25.5116 82.1831 23.5935 81.2831 21.6922C81.0103 21.2275 80.7058 20.7821 80.3719 20.3591C79.9444 20.9863 79.5731 21.3801 79.3566 21.8582C77.6325 25.5988 75.9563 29.3506 74.2098 33.0743C73.9595 33.6087 73.4167 34.0052 73.0117 34.4637C72.6854 33.9771 72.227 33.5327 72.0554 32.9956C70.247 27.2862 68.4808 21.5713 66.7061 15.8536C66.6546 15.7227 66.6206 15.5855 66.6049 15.4458C66.5852 14.6526 65.2774 13.6486 66.7427 13.1114C68.5483 12.4505 69.752 13.1283 70.2329 14.7679C71.1554 17.9095 72.0695 21.051 73.0173 24.1841C73.1973 24.7803 73.5292 25.3316 73.9426 26.2316ZM71.8135 28.819C72.061 29.584 72.2917 30.335 72.556 31.069C72.6942 31.4268 72.8626 31.7721 73.0595 32.1012C73.1812 32.0853 73.2993 32.0481 73.4082 31.9915C73.3435 31.609 73.2479 31.2321 73.1692 30.8665C73.1486 30.7391 73.1374 30.6103 73.1354 30.4812L74.7385 29.3562L71.8135 28.819ZM92.9774 14.0283L92.2574 13.9439L92.0296 16.3176L92.713 16.3907C92.8002 15.6004 92.8902 14.8158 92.9774 14.0283Z" fill="white"/>
<path d="M98.6162 33.8172C99.7581 31.331 100.832 28.9601 101.938 26.6004C103.777 22.663 105.627 18.7311 107.487 14.8049C107.61 14.501 107.76 14.2083 107.934 13.9303C108.178 13.6166 108.439 13.3162 108.716 13.0303C109.022 13.3509 109.439 13.6153 109.624 13.995C110.713 16.2196 111.75 18.4668 112.799 20.7083C114.661 24.6889 116.52 28.6695 118.377 32.6501C118.545 33.0129 118.658 33.4066 118.784 33.775C116.397 34.6525 115.373 34.2419 114.49 32.1551C113.584 30.012 113.539 29.9726 111.151 29.981C109.183 29.981 107.214 30.0598 105.245 30.0204C104.266 30.0007 103.622 30.3016 103.336 31.2719C103.227 31.5301 103.102 31.781 102.961 32.0229C101.938 34.3178 101.316 34.5991 98.6162 33.8172ZM108.741 27.2332C109.394 27.2332 110.046 27.2642 110.696 27.2332C111.666 27.1742 112.063 26.7186 111.63 25.7511C110.884 24.0945 110.164 22.4295 109.394 20.7871C109.325 20.6492 109.224 20.5293 109.101 20.437C108.977 20.3447 108.834 20.2826 108.682 20.2555C108.534 20.2927 108.397 20.3626 108.279 20.4599C108.162 20.5572 108.068 20.6796 108.004 20.818C107.501 21.8671 107.099 22.9639 106.598 24.0045C104.725 27.776 105.819 27.2304 108.73 27.2332H108.741ZM102.416 29.0276C104.947 26.6117 106.142 23.833 105.355 22.1849C103.864 24.207 102.745 26.232 102.405 29.0276H102.416ZM109.863 16.5796L109.157 16.8102C109.515 18.0027 109.844 19.2093 110.257 20.3849C110.333 20.6014 110.755 20.6971 111.019 20.8461C111.132 20.5339 111.419 20.1571 111.329 19.9208C110.884 18.7874 110.35 17.6905 109.852 16.5796H109.863Z" fill="white"/>
<path d="M132.12 25.1723C132.12 27.6557 132.058 30.1391 132.145 32.6169C132.196 34.1047 131.344 34.1244 130.264 34.1469C129.184 34.1694 128.509 33.9669 128.525 32.6282C128.579 27.8076 128.551 22.9842 128.525 18.1608C128.525 16.389 128.334 16.209 126.61 16.1921C125.252 16.1921 123.893 16.1584 122.538 16.1921C121.452 16.2231 121.331 15.5481 121.348 14.724C121.365 13.9 121.247 13.0365 122.473 13.0365C127.671 13.0365 132.879 13.0365 138.065 13.0225C139.28 13.0225 139.19 13.8212 139.219 14.6481C139.238 15.5537 139.092 16.209 137.956 16.1949C136.504 16.1752 135.05 16.344 133.608 16.2568C132.325 16.1781 132.095 16.8193 132.103 17.8599C132.123 20.2955 132.103 22.7311 132.103 25.1723H132.12ZM130.86 33.275C130.936 32.537 130.956 31.7942 130.919 31.0532C130.894 30.8113 130.424 30.6201 130.157 30.4063C129.949 30.6074 129.774 30.8399 129.639 31.0954C129.307 32.0657 129.243 32.9516 130.86 33.275ZM135.079 14.2543L135.219 14.6424C135.624 14.6959 136.024 14.7606 136.429 14.7999C136.866 14.8458 137.305 14.8665 137.745 14.8618C137.813 14.7161 137.844 14.5556 137.835 14.3949C137.399 14.1756 136.949 13.8718 136.49 13.8521C136.032 13.8325 135.54 14.1081 135.067 14.2543H135.079Z" fill="white"/>
<path d="M156.401 13.383C158.885 12.5562 159.934 12.9415 161.09 14.9102C162.246 16.8789 163.396 18.8645 164.583 20.8164C164.864 21.2636 165.255 21.6292 165.798 22.2676C167.086 20.0992 168.228 18.1839 169.361 16.2658C169.642 15.7821 169.904 15.2815 170.182 14.7921C171.262 12.9134 172.624 12.4802 174.899 13.3999C173.338 15.9677 171.952 18.6367 170.199 21.0329C167.902 24.1914 166.791 27.5382 167.291 31.4025C167.307 31.6366 167.307 31.8715 167.291 32.1056C167.291 33.9984 166.211 34.7606 164.451 34.0097C164.105 33.8606 163.79 33.2391 163.764 32.8144C163.652 31.4104 163.652 29.9996 163.764 28.5957C163.978 26.4104 163.23 24.6048 162.063 22.8245C160.269 20.0851 158.598 17.2614 156.888 14.4686C156.703 14.1174 156.54 13.7548 156.401 13.383V13.383ZM165.373 33.2812L166.13 33.3234C166.273 32.5781 166.552 31.8216 166.501 31.0903C166.476 30.7444 165.823 30.4407 165.455 30.1172L165.081 30.376L165.373 33.2812ZM170.866 16.2911C172.193 16.0999 172.601 15.093 173.203 13.8105C171.397 13.9793 171.496 15.4727 170.866 16.2911Z" fill="white"/>
<path d="M181.903 23.63C181.903 20.6291 181.942 17.6282 181.883 14.6301C181.861 13.3982 182.319 12.982 183.531 13.0016C184.69 13.0213 185.376 13.2098 185.365 14.6104C185.314 20.5616 185.314 26.5137 185.365 32.4667C185.365 33.7605 184.89 34.1711 183.624 34.1542C182.358 34.1373 181.849 33.7914 181.88 32.4667C181.948 29.5361 181.903 26.5831 181.903 23.63Z" fill="white"/>
<path d="M149.338 23.4845C149.338 26.5304 149.293 29.5763 149.358 32.6194C149.389 33.9638 148.7 34.155 147.606 34.1438C146.565 34.1438 145.808 34.0847 145.822 32.6841C145.869 26.6391 145.869 20.5952 145.822 14.5521C145.822 13.2134 146.464 13.0193 147.555 13.0137C148.708 13.0137 149.403 13.2162 149.361 14.6308C149.273 17.5811 149.335 20.537 149.335 23.4845H149.338Z" fill="white"/>
<path d="M71.8145 28.8184L74.7479 29.3499L73.1448 30.4749C73.1467 30.604 73.158 30.7328 73.1785 30.8602C73.2572 31.2399 73.3529 31.6168 73.4176 31.9852C73.3086 32.0418 73.1906 32.079 73.0688 32.0949C72.8683 31.767 72.6961 31.4227 72.5541 31.0655C72.2926 30.3343 72.062 29.5834 71.8145 28.8184Z" fill="white"/>
<path d="M92.9781 14.0279C92.8909 14.8153 92.8009 15.6 92.7137 16.3875L92.0303 16.3172L92.2581 13.9463L92.9781 14.0279Z" fill="white"/>
<path d="M108.729 27.2326C105.818 27.2326 104.724 27.7754 106.586 23.9898C107.098 22.9492 107.5 21.8524 107.992 20.8033C108.059 20.6663 108.155 20.5459 108.274 20.451C108.394 20.3561 108.533 20.2891 108.681 20.2549C108.83 20.2827 108.971 20.3443 109.092 20.435C109.214 20.5257 109.313 20.643 109.381 20.778C110.152 22.4205 110.872 24.0855 111.617 25.742C112.05 26.7095 111.654 27.1651 110.684 27.2242C110.034 27.2636 109.381 27.2326 108.729 27.2326Z" fill="#18082B"/>
<path d="M102.405 29.0283C102.746 26.2327 103.865 24.2077 105.344 22.1855C106.132 23.8337 104.936 26.6124 102.405 29.0283Z" fill="white"/>
<path d="M109.852 16.5808C110.35 17.7058 110.885 18.7886 111.318 19.922C111.408 20.1583 111.121 20.5351 111.008 20.8473C110.744 20.6983 110.322 20.6026 110.246 20.3861C109.833 19.2105 109.504 18.0039 109.146 16.8114L109.852 16.5808Z" fill="white"/>
<path d="M130.862 33.2769C129.245 32.9535 129.312 32.0619 129.641 31.0973C129.775 30.8422 129.948 30.6097 130.153 30.4082C130.42 30.622 130.89 30.8132 130.915 31.0551C130.954 31.796 130.936 32.5387 130.862 33.2769V33.2769Z" fill="white"/>
<path d="M135.069 14.2577C135.542 14.1114 136.017 13.8358 136.476 13.8555C136.934 13.8752 137.384 14.1789 137.82 14.3983C137.829 14.559 137.798 14.7194 137.73 14.8652C137.29 14.8698 136.851 14.8492 136.414 14.8033C136.009 14.7639 135.609 14.6992 135.204 14.6458L135.069 14.2577Z" fill="white"/>
<path d="M165.373 33.2802L165.092 30.375L165.466 30.1162C165.834 30.4396 166.487 30.7434 166.512 31.0893C166.563 31.8206 166.284 32.5771 166.141 33.3224L165.373 33.2802Z" fill="white"/>
<path d="M170.866 16.2941C171.499 15.4813 171.398 13.9822 173.203 13.8135C172.602 15.096 172.194 16.1028 170.866 16.2941Z" fill="white"/>
<defs>
<linearGradient id="paint0_linear_7_114" x1="28.149" y1="0" x2="28.149" y2="21.3964" gradientUnits="userSpaceOnUse">
<stop stop-color="#502AD5"/>
<stop offset="1" stop-color="#8B25DA"/>
</linearGradient>
<linearGradient id="paint1_linear_7_114" x1="34.2723" y1="24.6602" x2="34.2723" y2="43.2753" gradientUnits="userSpaceOnUse">
<stop stop-color="#502AD5"/>
<stop offset="1" stop-color="#8B25DA"/>
</linearGradient>
<linearGradient id="paint2_linear_7_114" x1="7.40751" y1="4.88574" x2="7.40751" y2="49.0003" gradientUnits="userSpaceOnUse">
<stop stop-color="#502AD5"/>
<stop offset="1" stop-color="#8B25DA"/>
</linearGradient>
</defs>
</svg>
