<svg xmlns="http://www.w3.org/2000/svg" fill="none" viewBox="25 21 33 32">
                <g filter="url(#filter0_d_59_1738)">
                  <rect x="25" y="21" width="33" height="32" rx="16" fill="white"/>
                </g>
                <g clip-path="url(#clip0_59_1738)">
                  <path d="M35.75 37H35V43C35 43.3978 35.158 43.7794 35.4393 44.0607C35.7206 44.342 36.1022 44.5 36.5 44.5H40.25V37H35.75ZM45.5 37H41.75V44.5H45.5C45.8978 44.5 46.2794 44.342 46.5607 44.0607C46.842 43.7794 47 43.3978 47 43V37H45.5ZM46.0933 33.25C46.2032 32.8853 46.2561 32.5058 46.25 32.125C46.25 30.6775 45.0725 29.5 43.625 29.5C42.4085 29.5 41.5962 30.6115 41.072 31.8138C40.5552 30.6775 39.7017 29.5 38.375 29.5C36.9275 29.5 35.75 30.6775 35.75 32.125C35.75 32.572 35.8093 32.9418 35.9068 33.25H33.5V36.25H40.25V34.75H41.75V36.25H48.5V33.25H46.0933ZM37.25 32.125C37.25 31.5048 37.7547 31 38.375 31C39.041 31 39.6605 32.1437 40.0235 33.25H38C37.7195 33.25 37.25 33.25 37.25 32.125ZM43.625 31C44.2452 31 44.75 31.5048 44.75 32.125C44.75 33.25 44.2805 33.25 44 33.25H42.1423C42.5247 32.068 43.0805 31 43.625 31Z" fill="#D100FF"/>
                </g>
                <defs>
                  <filter id="filter0_d_59_1738" x="0" y="0" width="83" height="82" filterUnits="userSpaceOnUse" color-interpolation-filters="sRGB">
                    <feFlood flood-opacity="0" result="BackgroundImageFix"/>
                    <feColorMatrix in="SourceAlpha" type="matrix" values="0 0 0 0 0 0 0 0 0 0 0 0 0 0 0 0 0 0 127 0" result="hardAlpha"/>
                    <feOffset dy="4"/>
                    <feGaussianBlur stdDeviation="12.5"/>
                    <feComposite in2="hardAlpha" operator="out"/>
                    <feColorMatrix type="matrix" values="0 0 0 0 0.470588 0 0 0 0 0.156863 0 0 0 0 0.843137 0 0 0 0.5 0"/>
                    <feBlend mode="normal" in2="BackgroundImageFix" result="effect1_dropShadow_59_1738"/>
                    <feBlend mode="normal" in="SourceGraphic" in2="effect1_dropShadow_59_1738" result="shape"/>
                  </filter>
                  <clipPath id="clip0_59_1738">
                    <rect width="18" height="18" fill="white" transform="translate(34 28)"/>
                  </clipPath>
                </defs>
              </svg>