<svg width="32" height="39" viewBox="0 0 32 39" fill="none" xmlns="http://www.w3.org/2000/svg">
<path d="M21.6198 6.53172C20.2625 8.15417 18.0908 9.43385 15.9192 9.25104C15.6477 7.0573 16.7109 4.72646 17.9551 3.28682C19.3124 1.61867 21.6876 0.430395 23.6105 0.338989C23.8367 2.62413 22.9544 4.86357 21.6198 6.53172ZM23.5878 9.68521C20.4435 9.5024 17.7515 11.4905 16.2585 11.4905C14.7429 11.4905 12.4581 9.77662 9.96978 9.82232C6.73493 9.86803 3.72629 11.719 2.07493 14.6668C-1.31828 20.5625 1.19269 29.2917 4.47279 34.0905C6.07891 36.4671 8.00172 39.0721 10.5353 38.9807C12.9332 38.8893 13.8833 37.404 16.7788 37.404C19.697 37.404 20.534 38.9807 23.0675 38.935C25.6916 38.8893 27.343 36.5585 28.9491 34.1819C30.7814 31.4855 31.5279 28.8575 31.5732 28.7204C31.5279 28.6747 26.506 26.7324 26.4608 20.8824C26.4155 15.9922 30.4195 13.6614 30.6005 13.5243C28.3383 10.1422 24.8094 9.77662 23.5878 9.68521Z" fill="black"/>
</svg>
