<svg width="44" height="44" viewBox="0 0 44 44" fill="none" xmlns="http://www.w3.org/2000/svg">
<g clip-path="url(#clip0_7_1806)">
<path d="M39.3337 10.5241C35.1554 8.08764 29.8125 9.53545 27.3979 13.7563L21.3112 24.4074C19.55 27.4831 21.8173 28.5578 24.3455 30.0891L30.2023 33.5038C32.1857 34.6594 34.719 33.9734 35.863 31.9725L42.1202 21.0266C44.2222 17.3484 42.9749 12.6476 39.3337 10.5241Z" fill="#EA4335"/>
<path d="M32.4465 14.9325L26.5897 11.5178C23.3565 9.70481 21.5256 9.5848 20.1982 11.7161L11.5601 26.8281C9.14815 31.0463 10.584 36.441 14.7597 38.8723C18.4009 40.9957 23.0544 39.7357 25.1564 36.0575L33.9598 20.6533C35.109 18.6499 34.4298 16.0882 32.4465 14.9325Z" fill="#FBBC04"/>
<path d="M33.5738 7.16412L29.4601 4.76416C24.9099 2.11115 19.0918 3.68417 16.4655 8.28062L8.63307 21.9839C7.47615 24.0056 8.16307 26.5934 10.1645 27.7595L14.7715 30.4464C17.0465 31.7743 19.9543 30.9864 21.2688 28.6881L30.2167 13.0336C32.0709 9.79104 36.1743 8.67975 39.3842 10.5528L33.5738 7.16412Z" fill="#34A853"/>
<path d="M17.5782 12.2014L13.1313 9.61361C11.148 8.46059 8.61469 9.14405 7.47069 11.1423L2.13546 20.4552C-0.490847 25.0386 1.06634 30.9029 5.61652 33.5481L9.00205 35.5176L13.108 37.9071L14.8899 38.9427C11.7265 36.8037 10.7219 32.5176 12.6561 29.142L14.0377 26.7316L19.0966 17.9013C20.2381 15.9083 19.5589 13.3544 17.5782 12.2014Z" fill="#4285F4"/>
</g>
<defs>
<clipPath id="clip0_7_1806">
<rect width="42.2819" height="42.7119" fill="white" transform="translate(0.859375 0.305054)"/>
</clipPath>
</defs>
</svg>
