<svg width="31" height="36" viewBox="0 0 31 36" fill="none" xmlns="http://www.w3.org/2000/svg">
<path d="M8.94816 34.4319L9.55301 30.551L8.2057 30.5195H1.77216L6.24314 1.88218C6.25702 1.79573 6.30212 1.71512 6.36804 1.65788C6.43396 1.60063 6.51838 1.56909 6.60628 1.56909H17.4541C21.0554 1.56909 23.5407 2.32612 24.8383 3.82031C25.4466 4.52126 25.834 5.25375 26.0214 6.05984C26.218 6.90565 26.2215 7.91619 26.0295 9.14869L26.0156 9.23865V10.0284L26.6239 10.3765C27.1362 10.6511 27.5433 10.9653 27.8556 11.3251C28.376 11.9244 28.7125 12.6861 28.8548 13.5892C29.0017 14.518 28.9531 15.6231 28.7125 16.8743C28.435 18.3136 27.9863 19.5671 27.3803 20.5929C26.8228 21.538 26.1128 22.3219 25.2697 22.9294C24.4648 23.5065 23.5083 23.9446 22.427 24.2249C21.3793 24.5006 20.1846 24.6397 18.8743 24.6397H18.0301C17.4264 24.6397 16.84 24.8593 16.3798 25.253C15.9183 25.6549 15.613 26.204 15.5193 26.8044L15.4557 27.1537L14.3871 33.9938L14.3386 34.245C14.3258 34.3245 14.3039 34.3642 14.2715 34.391C14.2426 34.4156 14.2009 34.4319 14.1605 34.4319H8.94816Z" fill="#253B80"/>
<path d="M27.2 9.32971C27.1676 9.53883 27.1306 9.75262 27.0889 9.97225C25.6584 17.3918 20.7641 19.9549 14.5133 19.9549H11.3306C10.5662 19.9549 9.92204 20.5157 9.80292 21.2774L8.17343 31.7169L7.71199 34.676C7.6345 35.176 8.01614 35.627 8.51575 35.627H14.1606C14.829 35.627 15.3968 35.1363 15.5021 34.4704L15.5576 34.1807L16.6204 27.3675L16.6886 26.9936C16.7927 26.3254 17.3617 25.8347 18.0302 25.8347H18.8744C24.3434 25.8347 28.6248 23.5917 29.8761 17.1009C30.3988 14.3894 30.1282 12.1253 28.745 10.533C28.3264 10.0529 27.8071 9.65449 27.2 9.32971Z" fill="#179BD7"/>
<path d="M25.7032 8.72708C25.4846 8.66282 25.2591 8.60441 25.0278 8.55184C24.7953 8.50044 24.5571 8.45487 24.3119 8.41515C23.4538 8.27496 22.5136 8.20837 21.5063 8.20837H13.0038C12.7944 8.20837 12.5955 8.25627 12.4174 8.34272C12.0254 8.53315 11.7339 8.90816 11.6634 9.36728L9.85465 20.94L9.80261 21.2776C9.92173 20.5159 10.5659 19.9551 11.3303 19.9551H14.513C20.7638 19.9551 25.6581 17.3908 27.0886 9.97243C27.1314 9.7528 27.1673 9.53901 27.1997 9.32989C26.8377 9.13596 26.4456 8.97007 26.0235 8.82871C25.9194 8.79367 25.8119 8.75979 25.7032 8.72708Z" fill="#222D65"/>
<path d="M11.6635 9.36715C11.7341 8.90803 12.0255 8.53302 12.4176 8.34376C12.5968 8.25731 12.7946 8.20942 13.0039 8.20942H21.5064C22.5137 8.20942 23.4539 8.27601 24.312 8.4162C24.5572 8.45592 24.7955 8.50148 25.0279 8.55288C25.2592 8.60545 25.4847 8.66387 25.7033 8.72812C25.812 8.76083 25.9196 8.79471 26.0248 8.82859C26.4469 8.96995 26.839 9.13701 27.201 9.32977C27.6265 6.58789 27.1975 4.72103 25.7299 3.03057C24.112 1.16955 21.1918 0.372803 17.4552 0.372803H6.60737C5.84409 0.372803 5.19299 0.933562 5.07502 1.69643L0.556626 30.6281C0.467577 31.2006 0.904729 31.7169 1.47603 31.7169H8.17326L9.85479 20.9398L11.6635 9.36715Z" fill="#253B80"/>
</svg>
