<svg width="59" height="22" viewBox="0 0 59 22" fill="none" xmlns="http://www.w3.org/2000/svg">
<path d="M46.5641 2.67686L51.4256 1.77274V21.265H46.5641V2.67686ZM53.6606 2.67686V21.2543H58.5221V1.77274L53.6606 2.67686ZM39.6529 21.2543H44.5144V7.00369H39.6529V21.2543ZM7.52803 9.01642C6.91005 8.97337 5.48868 8.8765 5.48868 7.54185C5.48868 5.92736 7.53833 5.92736 8.30051 5.92736C9.64978 5.92736 11.4007 6.34713 12.647 6.73461C12.647 6.73461 13.3474 6.99293 13.9345 7.25124L13.986 7.26201V7.20819V2.84907L13.9139 2.82754C12.441 2.28938 10.7313 1.77274 7.54863 1.77274C2.06916 1.77274 0.132812 5.10935 0.132812 7.96162C0.132812 9.6084 0.812596 13.4832 7.08514 13.9352C7.62073 13.9675 9.03179 14.0536 9.03179 15.4421C9.03179 16.583 7.87822 17.2611 5.93157 17.2611C3.79952 17.2611 1.73957 16.6906 0.483004 16.1525V20.7053C2.35756 21.222 4.47931 21.4803 6.96154 21.4803C12.3174 21.4803 14.7173 18.3266 14.7173 15.1945C14.7173 11.6427 12.0393 9.33932 7.52803 9.01642ZM36.9132 6.79919C32.4225 6.94987 30.1463 9.05947 30.1463 13.2464V21.265H35.049V14.721C35.049 12.2131 35.3579 11.1368 38.211 11.0399V6.86377C37.7166 6.7669 36.9132 6.79919 36.9132 6.79919ZM23.7295 6.99293C23.6265 7.27277 22.8438 9.57611 20.9589 11.9548V1.77274L15.9429 2.80602V21.2543H20.9589V15.5497C22.4112 17.8315 23.1321 21.2543 23.1321 21.2543H29.1369C28.5395 18.6711 25.944 13.9137 25.944 13.9137C28.2717 10.8246 29.3017 7.53109 29.4665 6.98216H23.7295V6.99293ZM42.0734 5.63675C43.3918 5.63675 44.4732 4.51737 44.4732 3.13968C44.4732 1.76198 43.4021 0.631836 42.0734 0.631836C40.755 0.631836 39.6838 1.75122 39.6838 3.13968C39.6838 4.51737 40.755 5.63675 42.0734 5.63675Z" fill="url(#paint0_linear_213_82)"/>
<defs>
<linearGradient id="paint0_linear_213_82" x1="0.132813" y1="10.9999" x2="58.5221" y2="10.9999" gradientUnits="userSpaceOnUse">
<stop stop-color="#7E3164"/>
<stop offset="1" stop-color="#4B2954"/>
</linearGradient>
</defs>
</svg>
