<svg width="78" height="78" viewBox="0 0 78 78" fill="none" xmlns="http://www.w3.org/2000/svg">
<path d="M10 36.0817V42.9638C10 44.2091 11.0448 45.2189 12.3332 45.2189H37.864C39.1524 45.2189 40.1972 44.2091 40.1972 42.9638V37.1493L43.3749 33.922L12.3407 33.8281C11.0493 33.8238 10 34.835 10 36.0817Z" fill="#F5F5F5"/>
<path d="M36.4338 37.9948L13.2676 37.8908L13.2691 37.2031L36.4368 37.3071L36.4338 37.9948Z" fill="#E0E0E0"/>
<path d="M36.4338 40.2584L13.2676 40.1559L13.2691 39.4668L36.4368 39.5708L36.4338 40.2584Z" fill="#E0E0E0"/>
<path d="M27.2659 41.7381L27.2627 42.4258L36.4296 42.4727L36.4329 41.7851L27.2659 41.7381Z" fill="#E0E0E0"/>
<path d="M33.6582 59.861V66.7431C33.6582 67.9884 34.703 68.9982 35.9914 68.9982H61.5222C62.8106 68.9982 63.8554 67.9884 63.8554 66.7431V60.9286L67.0331 57.7013L35.9989 57.6074C34.7075 57.6031 33.6582 58.6143 33.6582 59.861Z" fill="#F5F5F5"/>
<path d="M60.2028 61.5983L37.0352 61.4957L37.0367 60.8066L60.2043 60.9107L60.2028 61.5983Z" fill="#E0E0E0"/>
<path d="M60.2028 63.8639L37.0352 63.7613L37.0367 63.0723L60.2043 63.1763L60.2028 63.8639Z" fill="#E0E0E0"/>
<path d="M51.0394 65.3378L51.0361 66.0254L60.203 66.0724L60.2063 65.3847L51.0394 65.3378Z" fill="#E0E0E0"/>
<path d="M23.6473 10.1621H38.7048C39.4507 10.1621 40.0545 10.7457 40.0545 11.4666V18.5856C40.0545 19.3065 39.4507 19.8901 38.7048 19.8901H25.9267C25.1809 19.8901 24.577 19.3065 24.577 18.5856V11.0621L23.6473 10.1621Z" fill="#F5F5F5"/>
<path d="M32.3751 17.0825V21.6461C32.3751 22.4724 31.6831 23.1412 30.8281 23.1412H13.8948C13.0398 23.1412 12.3477 22.4724 12.3477 21.6461V17.789L10.2402 15.6481L30.8236 15.5859C31.6801 15.5859 32.3751 16.2548 32.3751 17.0825Z" fill="#E0E0E0"/>
<path d="M14.8422 18.3506L30.2091 18.2827L30.2061 17.8262L14.8407 17.8955L14.8422 18.3506Z" fill="#F5F5F5"/>
<path d="M14.8423 19.8564L30.2092 19.7885L30.2062 19.332L14.8408 19.3999L14.8423 19.8564Z" fill="#F5F5F5"/>
<path d="M20.9212 20.8388L14.8408 20.8672L14.8432 21.3237L20.9236 21.2953L20.9212 20.8388Z" fill="#F5F5F5"/>
<path d="M64.4498 38.2486V42.8121C64.4498 43.6384 63.7577 44.3072 62.9028 44.3072H45.9709C45.116 44.3072 44.4239 43.6384 44.4239 42.8121V38.955L42.3164 36.8141L62.8998 36.752C63.7547 36.752 64.4498 37.4223 64.4498 38.2486Z" fill="#E0E0E0"/>
<path d="M46.9185 39.5219L62.2854 39.4526L62.2824 38.9961L46.917 39.0654L46.9185 39.5219Z" fill="#F5F5F5"/>
<path d="M46.9185 41.0244L62.2854 40.9565L62.2824 40.5L46.917 40.5679L46.9185 41.0244Z" fill="#F5F5F5"/>
<path d="M52.9984 42.0049L46.918 42.0332L46.9203 42.4897L53.0007 42.4614L52.9984 42.0049Z" fill="#F5F5F5"/>
<path d="M46.3903 66.3985L29.1267 66.322C27.0505 66.3133 25.375 64.6795 25.3839 62.6715L25.5663 20.8414C25.5753 18.8334 27.2673 17.2126 29.3449 17.2227L46.6085 17.2993C48.6847 17.3079 50.3602 18.9418 50.3512 20.9498L50.1689 62.7798C50.1599 64.7864 48.4679 66.4072 46.3903 66.3985Z" fill="#263238"/>
<path d="M46.5846 18.7446L43.238 18.7301C42.7896 18.7287 42.4234 19.0942 42.4219 19.5478L42.4189 20.1343C42.4174 20.5879 42.0512 20.9534 41.6028 20.9519L35.0785 20.923C34.6301 20.9216 34.2669 20.5518 34.2699 20.0982L34.2728 19.5116C34.2743 19.058 33.9126 18.6882 33.4642 18.6868L32.2864 18.681L29.3568 18.668C27.9025 18.6622 26.7172 19.7962 26.7112 21.2033L26.5333 62.0322C26.5274 63.4378 27.7007 64.5819 29.155 64.5891L46.3843 64.6657C47.8387 64.6729 49.0239 63.5375 49.0299 62.1304L49.2078 21.3015C49.2123 19.8945 48.0374 18.7503 46.5846 18.7446Z" fill="#FAFAFA"/>
<path d="M36.8307 60.7571C36.8292 60.9203 36.6708 61.0518 36.4735 61.0504C36.2777 61.0489 36.1193 60.916 36.1193 60.7542C36.1208 60.591 36.2792 60.4595 36.4765 60.4609C36.6723 60.4609 36.8307 60.5939 36.8307 60.7571Z" fill="#455A64"/>
<path d="M37.9311 60.759C37.9311 60.9223 37.7711 61.0537 37.5738 61.0523C37.378 61.0509 37.2196 60.918 37.2196 60.7562C37.2196 60.5929 37.3795 60.4615 37.5768 60.4629C37.7741 60.4643 37.9311 60.5958 37.9311 60.759Z" fill="#455A64"/>
<path d="M39.0329 60.7669C39.0329 60.9301 38.873 61.0616 38.6757 61.0601C38.4798 61.0587 38.3214 60.9258 38.3214 60.764C38.3214 60.6007 38.4813 60.4693 38.6786 60.4707C38.8744 60.4707 39.0329 60.6036 39.0329 60.7669Z" fill="#455A64"/>
<path d="M31.8527 38.4316C32.1337 38.4706 49.0685 41.6806 49.0685 41.6806V38.4316H31.8527Z" fill="#EBEBEB"/>
<path d="M26.5265 59.0623C26.5265 59.0623 44.95 56.5429 44.7886 56.6209C44.6287 56.6989 26.5265 56.6209 26.5265 56.6209V59.0623Z" fill="#EBEBEB"/>
<path d="M47.9238 11.3887C47.9447 11.3887 47.9626 12.2887 47.9626 13.3996C47.9626 14.5105 47.9447 15.4105 47.9238 15.4105C47.9028 15.4105 47.8849 14.5105 47.8849 13.3996C47.8849 12.2887 47.9013 11.3887 47.9238 11.3887Z" fill="#263238"/>
<path d="M55.2925 16.0184C55.3015 16.0372 54.4555 16.4157 53.4047 16.865C52.354 17.3128 51.4945 17.6609 51.4855 17.6422C51.4766 17.6234 52.3211 17.2449 53.3733 16.7956C54.4241 16.3463 55.2836 15.9982 55.2925 16.0184Z" fill="#263238"/>
<path d="M55.1076 9.00006C55.1106 9.0015 55.0956 9.02751 55.0672 9.07662C55.0344 9.13296 54.991 9.20231 54.9387 9.28898C54.8266 9.47389 54.6607 9.73825 54.4514 10.0618C54.0329 10.7105 53.4306 11.5931 52.749 12.5552C52.0659 13.5173 51.4576 14.3942 51.0271 15.0342C50.8163 15.3491 50.6445 15.6062 50.5189 15.794C50.4621 15.8778 50.4158 15.9457 50.3784 15.9992C50.3455 16.0454 50.3276 16.07 50.3246 16.0685C50.3216 16.0671 50.3366 16.0411 50.365 15.992C50.3978 15.9356 50.4412 15.8663 50.492 15.7796C50.6041 15.5947 50.77 15.3318 50.9793 15.0067C51.3978 14.3581 52.0001 13.4754 52.6832 12.5133C53.3648 11.5512 53.9746 10.6758 54.4036 10.0344C54.6144 9.71947 54.7862 9.46233 54.9118 9.27454C54.9686 9.19075 55.0149 9.12285 55.0523 9.0694C55.0882 9.02317 55.1061 8.99862 55.1076 9.00006Z" fill="#263238"/>
<path d="M65.4392 26.0078H31.7414C31.0135 26.0078 30.4231 26.5784 30.4231 27.282V37.3841C30.4231 38.0876 31.0135 38.6582 31.7414 38.6582H34.2525C34.4543 39.7128 34.6919 41.0447 34.6919 41.0447L36.9639 38.6582H65.4392C66.1671 38.6582 66.7575 38.0876 66.7575 37.3841V27.282C66.756 26.5784 66.1671 26.0078 65.4392 26.0078Z" fill="#0EA980"/>
<path d="M51.5371 31.4887C51.5371 31.509 47.5269 31.5263 42.581 31.5263C37.6335 31.5263 33.6233 31.509 33.6233 31.4887C33.6233 31.4685 37.6335 31.4512 42.581 31.4512C47.5269 31.4512 51.5371 31.4685 51.5371 31.4887Z" fill="#F5F5F5"/>
<path d="M51.5373 29.936C51.5373 29.9562 47.527 29.9736 42.5811 29.9736C37.6337 29.9736 33.6234 29.9562 33.6234 29.936C33.6234 29.9158 37.6337 29.8984 42.5811 29.8984C47.527 29.8984 51.5373 29.9143 51.5373 29.936Z" fill="#F5F5F5"/>
<path d="M51.5371 33.0239C51.5371 33.0441 47.5269 33.0614 42.581 33.0614C37.6335 33.0614 33.6233 33.0441 33.6233 33.0239C33.6233 33.0037 37.6335 32.9863 42.581 32.9863C47.5269 32.9863 51.5371 33.0022 51.5371 33.0239Z" fill="#F5F5F5"/>
<path d="M45.3566 34.6157C45.3566 34.6359 42.7289 34.6532 39.4899 34.6532C36.2495 34.6532 33.6233 34.6359 33.6233 34.6157C33.6233 34.5955 36.2495 34.5781 39.4899 34.5781C42.7304 34.5781 45.3566 34.594 45.3566 34.6157Z" fill="#F5F5F5"/>
<path d="M50.2134 44.1699H16.2406C15.7309 44.1699 15.3184 44.5686 15.3184 45.0612V55.7499C15.3184 56.2425 15.7309 56.6412 16.2406 56.6412H40.9149L43.1614 59.0003C43.1614 59.0003 43.3976 57.6741 43.5949 56.6412H50.2134C50.7231 56.6412 51.1356 56.2425 51.1356 55.7499V45.0612C51.1356 44.5686 50.7231 44.1699 50.2134 44.1699Z" fill="#3B3B83"/>
<path d="M48.8787 49.6821C48.8787 49.7023 44.8684 49.7197 39.9225 49.7197C34.9751 49.7197 30.9648 49.7023 30.9648 49.6821C30.9648 49.6619 34.9751 49.6445 39.9225 49.6445C44.8684 49.6445 48.8787 49.6604 48.8787 49.6821Z" fill="white"/>
<path d="M48.8816 48.1294C48.8816 48.1496 44.8714 48.1669 39.9254 48.1669C34.978 48.1669 30.9678 48.1496 30.9678 48.1294C30.9678 48.1091 34.978 48.0918 39.9254 48.0918C44.8714 48.0918 48.8816 48.1077 48.8816 48.1294Z" fill="white"/>
<path d="M48.8787 51.2192C48.8787 51.2394 44.8684 51.2568 39.9225 51.2568C34.9751 51.2568 30.9648 51.2394 30.9648 51.2192C30.9648 51.199 34.9751 51.1816 39.9225 51.1816C44.8684 51.1816 48.8787 51.199 48.8787 51.2192Z" fill="white"/>
<path d="M42.6982 52.809C42.6982 52.8293 40.0705 52.8466 36.8315 52.8466C33.591 52.8466 30.9648 52.8293 30.9648 52.809C30.9648 52.7888 33.591 52.7715 36.8315 52.7715C40.072 52.7715 42.6982 52.7888 42.6982 52.809Z" fill="white"/>
</svg>
