<svg width="78" height="78" viewBox="0 0 78 78" fill="none" xmlns="http://www.w3.org/2000/svg">
<path d="M28.0038 21.2658L13.606 21.4323C12.3171 21.4478 11.3334 22.5686 11.5098 23.8203L15.4309 51.6843C15.5779 52.7341 16.4982 53.5109 17.5769 53.4975L61.9868 52.9871C63.0655 52.9738 63.9655 52.177 64.0876 51.125L66.8012 27.0361C66.8984 26.1972 66.2245 25.4648 65.3652 25.4737L31.5201 25.8643L30.3035 22.5686C29.8377 21.7541 28.9558 21.2547 28.0038 21.2658Z" fill="#0EA980"/>
<path d="M28.0106 21.9377L13.6128 22.1041C12.3238 22.1197 11.3402 23.2404 11.5165 24.4922L14.6372 52.3673L64.8949 51.788L66.8079 27.708C66.9052 26.8691 66.2313 26.1367 65.372 26.1456L31.5269 26.5362L30.3103 23.2404C29.8468 22.4259 28.9648 21.9266 28.0106 21.9377Z" fill="#3B3B83"/>
<path d="M12.1025 29.7062L14.6397 52.3658L64.8975 51.7866L66.702 29.0781L12.1025 29.7062Z" fill="#3B3B83"/>
<path d="M37.7727 7.31504L12.0488 12.1582L18.2382 43.8239L43.9621 38.9807L37.7727 7.31504Z" fill="white"/>
<path opacity="0.42" d="M37.7723 7.31641L37.3788 7.38965L33.3017 38.8224L40.2191 39.6857L43.9615 38.9822L37.7723 7.31641Z" fill="#D3E2EC"/>
<path d="M33.5872 10.541L17.1552 13.6348L17.4262 15.021L33.8581 11.9273L33.5872 10.541Z" fill="#0EA980"/>
<path d="M37.2347 29.2051L20.8027 32.2988L21.0736 33.6851L37.5056 30.5913L37.2347 29.2051Z" fill="#0EA980"/>
<path d="M37.7796 31.9922L21.3476 35.0859L21.6186 36.4722L38.0505 33.3785L37.7796 31.9922Z" fill="#0EA980"/>
<path d="M38.3225 34.7793L21.8906 37.873L22.1615 39.2593L38.5935 36.1656L38.3225 34.7793Z" fill="#0EA980"/>
<path d="M29.8835 13.403L21.6708 14.9492L21.8063 15.6423L30.019 14.0961L29.8835 13.403Z" fill="#0EA980"/>
<path d="M25.8125 17.8179L16.7226 19.5293L16.8581 20.2224L25.948 18.511L25.8125 17.8179Z" fill="#0EA980"/>
<path d="M26.2158 19.8726L17.1259 21.584L17.2614 22.2771L26.3513 20.5657L26.2158 19.8726Z" fill="#0EA980"/>
<path d="M26.6152 21.9292L17.5253 23.6406L17.6608 24.3337L26.7507 22.6224L26.6152 21.9292Z" fill="#0EA980"/>
<path d="M27.0176 23.9839L17.9277 25.6953L18.0632 26.3884L27.153 24.677L27.0176 23.9839Z" fill="#0EA980"/>
<path d="M27.4189 26.0386L18.329 27.75L18.4645 28.4431L27.5544 26.7317L27.4189 26.0386Z" fill="#0EA980"/>
<path d="M27.8203 28.0952L18.7304 29.8066L18.8659 30.4998L27.9558 28.7884L27.8203 28.0952Z" fill="#0EA980"/>
<path d="M36.7646 15.7495L27.6747 17.4609L27.8102 18.1541L36.9001 16.4427L36.7646 15.7495Z" fill="#0EA980"/>
<path d="M37.167 17.8042L28.0771 19.5156L28.2126 20.2087L37.3025 18.4974L37.167 17.8042Z" fill="#0EA980"/>
<path d="M37.5674 19.8609L28.4775 21.5723L28.613 22.2654L37.7028 20.554L37.5674 19.8609Z" fill="#0EA980"/>
<path d="M37.9697 21.9156L28.8798 23.627L29.0153 24.3201L38.1052 22.6087L37.9697 21.9156Z" fill="#0EA980"/>
<path d="M38.3711 23.9683L29.2812 25.6797L29.4167 26.3728L38.5066 24.6614L38.3711 23.9683Z" fill="#0EA980"/>
<path d="M38.7724 26.023L29.6826 27.7344L29.818 28.4275L38.9079 26.7161L38.7724 26.023Z" fill="#0EA980"/>
<path d="M64.7186 10.2442L38.7353 7L34.5893 38.9849L60.5726 42.2291L64.7186 10.2442Z" fill="white"/>
<path d="M59.7187 12.0333L43.121 9.96094L42.9395 11.3612L59.5372 13.4335L59.7187 12.0333Z" fill="#0EA980"/>
<path d="M57.2733 30.8887L40.6757 28.8164L40.4942 30.2166L57.0918 32.289L57.2733 30.8887Z" fill="#0EA980"/>
<path d="M56.9101 33.7012L40.3124 31.6289L40.1309 33.0291L56.7286 35.1015L56.9101 33.7012Z" fill="#0EA980"/>
<path d="M56.5438 36.5157L39.9462 34.4434L39.7647 35.8436L56.3623 37.9159L56.5438 36.5157Z" fill="#0EA980"/>
<path d="M55.2944 13.6275L46.999 12.5918L46.9082 13.2919L55.2037 14.3277L55.2944 13.6275Z" fill="#0EA980"/>
<path d="M50.0067 16.5761L40.8251 15.4297L40.7344 16.1298L49.9159 17.2762L50.0067 16.5761Z" fill="#0EA980"/>
<path d="M49.7381 18.6522L40.5566 17.5059L40.4658 18.206L49.6473 19.3523L49.7381 18.6522Z" fill="#0EA980"/>
<path d="M49.4686 20.7265L40.287 19.5801L40.1963 20.2802L49.3778 21.4266L49.4686 20.7265Z" fill="#0EA980"/>
<path d="M49.199 22.8007L40.0175 21.6543L39.9268 22.3544L49.1083 23.5008L49.199 22.8007Z" fill="#0EA980"/>
<path d="M48.9307 24.8788L39.7491 23.7324L39.6584 24.4325L48.8399 25.5789L48.9307 24.8788Z" fill="#0EA980"/>
<path d="M48.662 26.953L39.4805 25.8066L39.3898 26.5068L48.5713 27.6531L48.662 26.953Z" fill="#0EA980"/>
<path d="M61.0858 17.9589L51.9042 16.8125L51.8135 17.5126L60.995 18.659L61.0858 17.9589Z" fill="#0EA980"/>
<path d="M60.8172 20.0331L51.6357 18.8867L51.5449 19.5868L60.7264 20.7332L60.8172 20.0331Z" fill="#0EA980"/>
<path d="M60.5469 22.1112L51.3654 20.9648L51.2747 21.665L60.4562 22.8113L60.5469 22.1112Z" fill="#0EA980"/>
<path d="M60.2783 24.1854L51.0967 23.0391L51.006 23.7392L60.1875 24.8856L60.2783 24.1854Z" fill="#0EA980"/>
<path d="M60.0096 26.2616L50.8281 25.1152L50.7374 25.8153L59.9189 26.9617L60.0096 26.2616Z" fill="#0EA980"/>
<path d="M59.741 28.3358L50.5594 27.1895L50.4687 27.8896L59.6502 29.0359L59.741 28.3358Z" fill="#0EA980"/>
<path d="M64.1283 65.765L15.6457 66.3243C14.4676 66.3376 13.4635 65.4898 13.303 64.3446L9.02231 33.9239C8.8301 32.5568 9.90422 31.3339 11.3108 31.3162L67.6265 30.6681C69.0331 30.6526 70.1343 31.851 69.9761 33.2226L66.4235 63.7321C66.2878 64.8817 65.3042 65.7517 64.1283 65.765Z" fill="#0EA980"/>
<path d="M64.0326 67.0001H15.6522C14.4741 67.0134 13.4701 66.1656 13.3095 65.0204L9.0311 34.5997C8.83888 33.2326 9.91301 32.0097 11.3195 31.992L67.6353 31.3439C69.0419 31.3284 70.1431 32.5268 69.9848 33.8984L66.4323 64.4079C66.2966 65.5553 65.2107 66.9868 64.0326 67.0001Z" fill="#3B3B83"/>
</svg>
