<svg width="78" height="78" viewBox="0 0 78 78" fill="none" xmlns="http://www.w3.org/2000/svg">
<path d="M42.0585 20.3974L28.8193 19.2988L28.1559 27.2939L41.3951 28.3925L42.0585 20.3974Z" fill="#0EA980"/>
<path d="M41.395 28.3898L28.1553 27.2928L42.0572 20.3965L41.395 28.3898Z" fill="#4BAD93"/>
<path d="M41.3958 28.3894L28.156 27.2925L28.8204 19.2969L41.3958 28.3894Z" fill="#4BAD93"/>
<path d="M41.395 28.39L28.1553 27.293L35.1074 23.8438L41.395 28.39Z" fill="#0EA980"/>
<path d="M58.8156 9.00094L45.5977 10.332L46.4015 18.3142L59.6194 16.9832L58.8156 9.00094Z" fill="#D3E8ED"/>
<path d="M59.6159 16.9822L46.3984 18.3133L58.811 9L59.6159 16.9822Z" fill="#C2E4ED"/>
<path d="M59.6161 16.9831L46.3987 18.3142L45.5938 10.332L59.6161 16.9831Z" fill="#C2E4ED"/>
<path d="M59.6159 16.9826L46.3984 18.3137L52.6058 13.6582L59.6159 16.9826Z" fill="#B3DAE5"/>
<path d="M20.192 14.1574L7.00195 15.7422L7.95902 23.7076L21.149 22.1227L20.192 14.1574Z" fill="#698EBD"/>
<path d="M21.1473 22.1228L7.95886 23.7059L20.1886 14.1562L21.1473 22.1228Z" fill="#526F94"/>
<path d="M21.1472 22.1235L7.95876 23.7065L7 15.7422L21.1472 22.1235Z" fill="#526F94"/>
<path d="M21.1474 22.1242L7.95898 23.7073L14.075 18.9336L21.1474 22.1242Z" fill="#415875"/>
<path d="M47.2471 19.832V24.7618" stroke="white" stroke-width="1.76773" stroke-miterlimit="10" stroke-linecap="round" stroke-linejoin="round"/>
<path d="M47.2471 26.7129V28.8868" stroke="white" stroke-width="1.76773" stroke-miterlimit="10" stroke-linecap="round" stroke-linejoin="round"/>
<path d="M49.1533 26.4905V20.6934" stroke="white" stroke-width="1.76773" stroke-miterlimit="10" stroke-linecap="round" stroke-linejoin="round"/>
<path d="M9.78906 25.3066V31.7437" stroke="white" stroke-width="1.76773" stroke-miterlimit="10" stroke-linecap="round" stroke-linejoin="round"/>
<path d="M11.5732 26.5195V29.2219" stroke="white" stroke-width="1.76773" stroke-miterlimit="10" stroke-linecap="round" stroke-linejoin="round"/>
<path d="M11.5732 30.8926V33.7889" stroke="white" stroke-width="1.76773" stroke-miterlimit="10" stroke-linecap="round" stroke-linejoin="round"/>
<path d="M14.9736 29.2201V25.4297" stroke="white" stroke-width="1.76773" stroke-miterlimit="10" stroke-linecap="round" stroke-linejoin="round"/>
<path d="M56.166 20.1348V23.1671" stroke="white" stroke-width="1.76773" stroke-miterlimit="10" stroke-linecap="round" stroke-linejoin="round"/>
<path d="M9.78906 37.1367V39.7008" stroke="white" stroke-width="1.76773" stroke-miterlimit="10" stroke-linecap="round" stroke-linejoin="round"/>
<path d="M63.8092 26.0566H59.2295V34.3332H63.8092V26.0566Z" fill="#95D4E5"/>
<path d="M61.5196 22.4531L65.2543 26.957H57.7871L61.5196 22.4531Z" fill="#95D4E5"/>
<path d="M55.2985 30.0625H50.7188V38.339H55.2985V30.0625Z" fill="#95D4E5"/>
<path d="M53.0071 26.459L56.7396 30.9629H49.2725L53.0071 26.459Z" fill="#95D4E5"/>
<path d="M25.9049 28.8672H21.3252V37.1437H25.9049V28.8672Z" fill="#95D4E5"/>
<path d="M23.6136 25.2637L27.3483 29.7676H19.8789L23.6136 25.2637Z" fill="#95D4E5"/>
<path d="M67.1856 65.2662H18.8376C18.0527 65.2662 17.415 64.6285 17.415 63.8436V34.5436C17.415 33.7588 18.0527 33.1211 18.8376 33.1211H67.1878C67.9727 33.1211 68.6103 33.7588 68.6103 34.5436V63.8436C68.6081 64.6307 67.9727 65.2662 67.1856 65.2662Z" fill="#3C3C3C"/>
<path d="M66.6458 35.0195H19.377V62.2214H66.6458V35.0195Z" fill="white"/>
<path d="M69.1428 69.0019H16.8795C15.5774 69.0019 14.5205 67.9451 14.5205 66.6429V65.207H71.504V66.6429C71.5018 67.9451 70.4472 69.0019 69.1428 69.0019Z" fill="#BDE3E2"/>
<path d="M47.4879 67.1028H38.5358C37.7688 67.1028 37.1445 66.4807 37.1445 65.7115V65.2031H48.8793V65.7115C48.877 66.4807 48.2549 67.1028 47.4879 67.1028Z" fill="#BDE3E2"/>
<path d="M66.6458 35.0195V44.3083L48.648 62.2214H19.377V58.6317L43.0716 35.0195H66.6458Z" fill="white"/>
<path d="M52.0299 56.6608H33.9919V45.7667L42.9396 40.4355L52.0299 45.7667V56.6608Z" fill="#3B3B83"/>
<path d="M52.0314 45.7656H33.9912V56.6598H52.0314V45.7656Z" fill="#3B3B83"/>
<path d="M49.1526 41.8652H36.6709V56.0883H49.1526V41.8652Z" fill="white"/>
<path d="M47.8529 43.0332H37.9688V43.7422H47.8529V43.0332Z" fill="#E5E5E5"/>
<path d="M47.8529 44.2598H37.9688V44.9688H47.8529V44.2598Z" fill="#E5E5E5"/>
<path d="M47.8529 45.4863H37.9688V46.1954H47.8529V45.4863Z" fill="#E5E5E5"/>
<path d="M47.8529 46.7129H37.9688V47.4219H47.8529V46.7129Z" fill="#E5E5E5"/>
<path d="M47.8529 47.9375H37.9688V48.6465H47.8529V47.9375Z" fill="#E5E5E5"/>
<path d="M47.8529 49.1641H37.9688V49.8731H47.8529V49.1641Z" fill="#E5E5E5"/>
<path d="M47.8529 50.3906H37.9688V51.0997H47.8529V50.3906Z" fill="#E5E5E5"/>
<path d="M47.8529 51.6172H37.9688V52.3262H47.8529V51.6172Z" fill="#E5E5E5"/>
<path d="M52.0292 56.6598H33.9912L52.0292 45.7656V56.6598Z" fill="#3B3B83"/>
<path d="M52.0292 56.6598H33.9912V45.7656L52.0292 56.6598Z" fill="#3B3B83"/>
<path d="M52.0292 56.6619H33.9912L43.0102 51.2148L52.0292 56.6619Z" fill="#3B3B83"/>
<path d="M24.3224 42.3432L25.3436 43.3644C26.3179 42.39 27.8609 42.3476 28.7817 43.2685L29.0515 42.9987L29.8609 42.1893C29.1318 41.4602 28.1596 41.1079 27.1741 41.1235C26.1552 41.1369 25.1206 41.545 24.3224 42.3432Z" fill="#91C9D9"/>
<path d="M25.1468 39.0945C24.2438 39.4223 23.3876 39.9441 22.6562 40.6776L23.6774 41.6988C24.4355 40.9407 25.3675 40.468 26.3307 40.2785C27.838 39.982 29.421 40.3833 30.5448 41.507L31.624 40.4279C29.9116 38.7133 27.3809 38.2852 25.1468 39.0945Z" fill="#91C9D9"/>
<path d="M26.0186 44.0403L27.013 45.0347L28.0654 43.9823C27.5169 43.4316 26.6005 43.4583 26.0186 44.0403Z" fill="#91C9D9"/>
<path d="M35.3562 50.1074L25.5791 55.7395L33.4454 59.5367L35.3562 50.1074Z" fill="white"/>
<path d="M25.5791 55.7395L33.4454 59.5367L35.3562 50.1074L25.5791 55.7395Z" fill="white"/>
<path d="M28.5558 57.1755L35.3563 50.1074L30.1567 57.9514L29.082 59.5367L28.5558 57.1755Z" fill="#E5E5E5"/>
<path d="M30.1914 28.8867V35.7987" stroke="white" stroke-width="1.76773" stroke-miterlimit="10" stroke-linecap="round" stroke-linejoin="round"/>
<path d="M32.0303 29.7773V31.6726" stroke="white" stroke-width="1.76773" stroke-miterlimit="10" stroke-linecap="round" stroke-linejoin="round"/>
<path d="M32.0303 33.959V37.415" stroke="white" stroke-width="1.76773" stroke-miterlimit="10" stroke-linecap="round" stroke-linejoin="round"/>
<path d="M33.9805 29.1387V34.2112" stroke="white" stroke-width="1.76773" stroke-miterlimit="10" stroke-linecap="round" stroke-linejoin="round"/>
</svg>
