<svg width="78" height="78" viewBox="0 0 78 78" fill="none" xmlns="http://www.w3.org/2000/svg">
<mask id="mask0_218_6990" style="mask-type:alpha" maskUnits="userSpaceOnUse" x="0" y="9" width="78" height="60">
<rect x="-0.441933" y="0.441933" width="77.1161" height="59.1161" rx="6.62899" transform="matrix(-1 0 0 1 77.1161 9)" fill="white" stroke="#D9D9D9" stroke-width="0.883865"/>
</mask>
<g mask="url(#mask0_218_6990)">
<g clip-path="url(#clip0_218_6990)">
<path d="M21.7481 62.2306C12.6915 52.8007 12.6915 37.5118 21.7481 28.0819C30.8047 18.652 45.4883 18.652 54.5449 28.0819C63.6015 37.5118 63.6015 52.8007 54.5449 62.2306C45.4883 71.6605 30.8047 71.6605 21.7481 62.2306Z" fill="#BAF4EE"/>
<path opacity="0.73" d="M19.2441 50.9355V59.0749C20.1003 60.3152 21.0681 61.478 22.1104 62.5633V50.9355C22.1104 50.858 23.525 49.6564 24.6045 48.765V48.2223L23.3016 47.8735C22.7805 47.7185 22.2221 47.796 21.701 47.9898C21.4776 48.106 21.2543 48.1836 20.9937 48.2611V49.3076C19.9142 50.2766 19.2441 50.858 19.2441 50.9355Z" fill="#7FD6CB"/>
<path d="M71.1357 14.1914L64.3236 30.8191L59.3727 27.2533L56.4691 31.6331L55.948 24.2688L49.9548 20.4704L71.1357 14.1914Z" fill="#18367E"/>
<path d="M58.2567 26.4773L64.3243 30.8184L59.3734 27.2525L56.4699 31.6323L55.9487 24.2681L65.5527 18.3379L58.2567 26.4773Z" fill="#35549C"/>
<path d="M56.0976 26.0898L65.5527 18.3379L55.9487 24.2681L56.0976 26.0898Z" fill="#25448F"/>
<path d="M56.3568 33.6868C56.3941 33.3767 56.4685 33.0279 56.543 32.7178L56.059 32.6016C55.9846 32.9116 55.9101 33.2605 55.8357 33.6093L56.3568 33.6868Z" fill="#00C8B7"/>
<path d="M61.9777 44.9663C62.685 44.9275 63.355 44.695 63.9134 44.3074L63.6528 43.881C63.1689 44.2299 62.5733 44.4237 61.9405 44.4624L61.9777 44.9663ZM60.0048 44.5787L60.2281 44.1136C59.7442 43.8423 59.2231 43.4547 58.7764 42.9121L58.4041 43.2609C58.888 43.8423 59.4464 44.2686 60.0048 44.5787ZM65.2907 42.7183C65.5513 42.1369 65.7002 41.5167 65.7002 40.8966C65.7002 40.8578 65.7002 40.7803 65.7002 40.7415V40.6253L65.2163 40.664V40.7415C65.2163 40.7803 65.2163 40.819 65.2163 40.8578C65.2163 41.4004 65.1046 41.9431 64.844 42.4469L65.2907 42.7183ZM46.6038 42.602V42.0981C45.971 42.0981 45.3382 42.0593 44.6681 42.0206L44.6309 42.5245C45.301 42.5632 45.971 42.5632 46.6038 42.602ZM48.5395 42.5245L48.8373 42.4857C49.4329 42.4469 49.9541 42.3694 50.4752 42.2531L50.4008 41.7493C49.9168 41.8268 49.3957 41.9043 48.8001 41.9431L48.5023 41.9818L48.5395 42.5245ZM42.6952 42.2919L42.7697 41.788C42.1368 41.7105 41.504 41.5942 40.8712 41.478L40.7968 41.9818C41.4296 42.0981 42.0624 42.2144 42.6952 42.2919ZM52.4109 41.788C52.9693 41.5942 53.5277 41.3229 53.9744 41.0516C54.0488 41.0128 54.1233 40.9741 54.1977 40.8966L53.9371 40.4702C53.8627 40.509 53.7882 40.5477 53.7138 40.5865C53.2671 40.8578 52.7459 41.0904 52.2248 41.2842L52.4109 41.788ZM57.2501 41.5942L57.6596 41.3617C57.3618 40.7803 57.064 40.1989 56.8779 39.5788L56.4312 39.7338C56.6545 40.3539 56.9151 40.9741 57.2501 41.5942ZM38.8611 41.5167L38.9727 41.0128C38.3771 40.8578 37.7443 40.7028 37.1115 40.509L36.9626 40.9741C37.6326 41.2066 38.2655 41.3617 38.8611 41.5167ZM35.1013 40.4315L35.2502 39.9663C34.6546 39.7725 34.0218 39.54 33.4262 39.3074L33.2773 39.7725C33.8729 40.0051 34.5057 40.1989 35.1013 40.4315ZM55.8356 39.7338C56.2823 39.385 56.7662 39.0361 57.2874 38.7648L57.4363 38.6873L57.2129 38.2222C57.1385 38.2609 57.1012 38.2997 57.0268 38.2997C56.4684 38.6098 55.9845 38.9974 55.5378 39.3074L55.8356 39.7338ZM64.509 38.9974L64.844 38.6485C64.4345 38.2222 63.839 37.8733 63.0572 37.6408L62.9083 38.1059C63.6528 38.3385 64.174 38.6098 64.509 38.9974ZM59.2231 38.0284C59.7814 37.9121 60.3398 37.8346 60.8982 37.8346H61.0843V37.3307C60.4143 37.3307 59.7442 37.3695 59.1114 37.5245L59.2231 38.0284ZM55.9101 37.7183L56.394 37.6408C56.2823 36.9819 56.2079 36.323 56.2079 35.6641H55.7239C55.7239 36.3617 55.7984 37.0206 55.9101 37.7183Z" fill="#00C8B7"/>
<path d="M31.4164 39.0347L31.6025 38.5695C31.3047 38.4533 31.0069 38.337 30.7091 38.2207L30.523 38.6858C30.8208 38.8021 31.1186 38.9184 31.4164 39.0347Z" fill="#00C8B7"/>
<path d="M16.2288 51.2847C16.4894 51.2847 16.6755 51.0909 16.7127 50.8195C16.7499 50.5482 16.5266 50.3157 16.266 50.2769C13.3625 49.9668 10.6823 48.5327 8.70937 46.2072C8.52324 46.0134 8.22544 45.9746 8.03932 46.1684C7.8532 46.3622 7.81597 46.6723 8.00209 46.8661C10.1239 49.3855 13.0275 50.9746 16.1916 51.2847C16.1916 51.2847 16.1916 51.2847 16.2288 51.2847Z" fill="#00C8B7"/>
<path d="M22.1105 50.9349L38.9362 61.2448L55.7246 50.9349V50.8961C55.7246 50.8186 54.794 50.0046 53.3794 48.8419L53.3422 48.8031C48.6891 44.8884 38.9362 36.8652 38.9362 36.8652C38.9362 36.8652 29.146 44.8884 24.5302 48.8419C23.0784 50.0434 22.1105 50.8573 22.1105 50.9349Z" fill="#7A4C08"/>
<path d="M32.0119 28.2988H50.1404C51.7038 28.2988 52.9695 29.6166 52.9695 31.2445V59.8101C52.9695 61.438 51.7038 62.7559 50.1404 62.7559H27.396C25.8325 62.7559 24.5669 61.438 24.5669 59.8101V36.0119L32.0119 28.2988Z" fill="white"/>
<path d="M32.0125 33.0662C32.0125 34.6941 30.7468 36.0119 29.1834 36.0119H24.6047L32.0125 28.2988V33.0662Z" fill="#E6E8E8"/>
<path d="M41.4294 33.1445H47.6832C48.2415 33.1445 48.6882 33.6096 48.6882 34.191V40.7026C48.6882 41.284 48.2415 41.7491 47.6832 41.7491H41.4294C40.871 41.7491 40.4243 41.284 40.4243 40.7026V34.191C40.4243 33.6096 40.871 33.1445 41.4294 33.1445Z" fill="#82EBE3"/>
<path d="M32.8304 44.1133H47.8693C48.316 44.1133 48.6882 44.5009 48.6882 44.966C48.6882 45.4311 48.316 45.8187 47.8693 45.8187H32.8304C32.3837 45.8187 32.0115 45.4311 32.0115 44.966C32.0115 44.5009 32.3837 44.1133 32.8304 44.1133Z" fill="#D9DBDB"/>
<path d="M32.8304 48.3379H47.8693C48.316 48.3379 48.6882 48.7255 48.6882 49.1906C48.6882 49.6557 48.316 50.0433 47.8693 50.0433H32.8304C32.3837 50.0433 32.0115 49.6557 32.0115 49.1906C32.0115 48.6867 32.3837 48.3379 32.8304 48.3379Z" fill="#D9DBDB"/>
<path d="M39.6437 52.4082H47.8332C48.2798 52.4082 48.6521 52.7958 48.6521 53.2609C48.6521 53.726 48.2798 54.1136 47.8332 54.1136H39.6437C39.197 54.1136 38.8247 53.726 38.8247 53.2609C38.862 52.757 39.197 52.4082 39.6437 52.4082Z" fill="#D9DBDB"/>
<path d="M22.1105 50.9336V67.7164C22.1105 68.8791 23.0412 69.8481 24.1579 69.8481H53.6772C54.794 69.8481 55.7246 68.8791 55.7246 67.7164V50.9336L38.899 61.2436L22.1105 50.9336Z" fill="#18367E"/>
<path d="M22.6685 69.2282L33.501 57.9492L38.9358 61.2825L44.3706 57.9492L55.2031 69.2282C54.8308 69.6545 54.3097 69.8871 53.7141 69.8871H24.1575C23.5619 69.8871 23.0408 69.6158 22.6685 69.2282Z" fill="#35549C"/>
<path d="M18.7227 27.8739C23.562 28.3778 27.4334 32.5251 27.7684 37.5638C27.9545 40.0831 27.2472 42.4087 25.9816 44.3079C25.4977 45.0055 25.4232 45.9358 25.7582 46.7497L26.54 48.7652L23.2642 47.8737C22.743 47.7187 22.1846 47.7575 21.6635 47.99C20.1373 48.6877 18.4622 48.9978 16.6381 48.804C11.8734 48.3388 8.03921 44.3466 7.59251 39.3854C6.99691 32.7576 12.3201 27.2538 18.7227 27.8739Z" fill="#22A09D"/>
<path d="M17.4204 43.6864L16.862 43.105C16.862 43.105 17.3087 42.0197 15.4475 40.1981C14.3307 39.1128 14.1074 38.0663 14.1818 37.2136C14.3307 35.857 15.4103 34.733 16.7131 34.578C17.5321 34.5004 18.5372 34.733 19.5795 35.8958C21.329 37.8337 22.3713 37.3686 22.3713 37.3686L22.9297 37.95L17.4204 43.6864Z" fill="white"/>
<path d="M21.7008 40.1211C22.1475 40.7412 22.0731 41.6327 21.5519 42.1753C21.0308 42.718 20.1746 42.7955 19.579 42.3304L21.7008 40.1211Z" fill="white"/>
<path d="M13.8091 35.2377L14.1441 35.5866C14.4047 35.1602 14.7769 34.7726 15.2236 34.5013L14.8886 34.1525C14.5908 33.8424 14.1069 33.8424 13.8091 34.1525C13.5485 34.4626 13.5485 34.9277 13.8091 35.2377Z" fill="white"/>
<path d="M17.941 27.8353C14.3302 28.9593 11.7245 32.4089 11.7245 36.5562C11.7245 41.5949 15.6331 45.6646 20.4723 45.6646C23.0036 45.6646 25.2743 44.5406 26.875 42.7189C26.6144 43.3003 26.3166 43.8429 25.9816 44.3468C25.4977 45.0444 25.4232 45.9747 25.7583 46.7886L26.54 48.8041L23.2642 47.9126C22.743 47.7576 22.1847 47.7964 21.6635 48.0289C20.1373 48.7266 18.4622 49.0366 16.6382 48.8429C11.8734 48.3777 8.03922 44.3855 7.59253 39.4243C7.03415 33.0291 11.9106 27.6803 17.941 27.8353Z" fill="#1B817E"/>
<path d="M70.5768 19.1131L68.3805 24.3844C68.2688 24.6557 68.3805 24.9657 68.6411 25.082L68.7155 25.1208C68.9761 25.2371 69.2739 25.1208 69.3856 24.8495L71.5074 19.5394C71.6191 19.2681 71.4702 18.9581 71.2096 18.8418C70.949 18.7255 70.6512 18.8418 70.5768 19.1131Z" fill="#18367E"/>
<path d="M61.903 56.2051C62.7964 56.2051 63.5409 56.9803 63.5409 57.9105C63.5409 58.8407 62.7964 59.6159 61.903 59.6159C61.0096 59.6159 60.2651 58.8407 60.2651 57.9105C60.3023 56.9803 61.0096 56.2051 61.903 56.2051ZM61.903 58.5694C62.2752 58.5694 62.573 58.2593 62.573 57.8717C62.573 57.4841 62.2752 57.1741 61.903 57.1741C61.5308 57.1741 61.233 57.4841 61.233 57.8717C61.2702 58.2593 61.568 58.5694 61.903 58.5694Z" fill="#BAF4EE"/>
<path d="M18.4617 63.0273C19.3551 63.0273 20.0996 63.8025 20.0996 64.7328C20.0996 65.663 19.3551 66.4382 18.4617 66.4382C17.5683 66.4382 16.8238 65.663 16.8238 64.7328C16.8238 63.8025 17.5683 63.0273 18.4617 63.0273ZM18.4617 65.4304C18.834 65.4304 19.1318 65.1204 19.1318 64.7328C19.1318 64.3452 18.834 64.0351 18.4617 64.0351C18.0895 64.0351 17.7917 64.3452 17.7917 64.7328C17.7917 65.1204 18.0895 65.4304 18.4617 65.4304Z" fill="#BAF4EE"/>
<path d="M5.20909 36.8262C5.87913 36.8262 6.4375 37.4076 6.4375 38.1052C6.4375 38.8029 5.87913 39.3843 5.20909 39.3843C4.53904 39.3843 3.98067 38.8029 3.98067 38.1052C3.94345 37.4076 4.50182 36.8262 5.20909 36.8262ZM5.20909 38.6479C5.46966 38.6479 5.73023 38.4153 5.73023 38.1052C5.73023 37.8339 5.50688 37.5626 5.20909 37.5626C4.94851 37.5626 4.68794 37.7952 4.68794 38.1052C4.68794 38.3765 4.91129 38.6479 5.20909 38.6479Z" fill="#BAF4EE"/>
<path d="M27.0604 16.1289C27.7677 16.1289 28.3633 16.7491 28.3633 17.4855C28.3633 18.2219 27.7677 18.8421 27.0604 18.8421C26.3531 18.8421 25.7575 18.2219 25.7575 17.4855C25.7575 16.7491 26.3159 16.1289 27.0604 16.1289ZM27.0604 18.0669C27.3582 18.0669 27.5816 17.8343 27.5816 17.5242C27.5816 17.2142 27.3582 16.9816 27.0604 16.9816C26.7626 16.9816 26.5393 17.2142 26.5393 17.5242C26.5393 17.7956 26.7626 18.0669 27.0604 18.0669Z" fill="#BAF4EE"/>
<path d="M69.0504 47.9883C69.7949 47.9883 70.4277 48.6472 70.4277 49.4224C70.4277 50.1976 69.7949 50.8565 69.0504 50.8565C68.3059 50.8565 67.6731 50.1976 67.6731 49.4224C67.6731 48.6084 68.3059 47.9883 69.0504 47.9883Z" fill="#BAF4EE"/>
<path d="M13.659 52.7559C14.2174 52.7559 14.6641 53.221 14.6641 53.8024C14.6641 54.3838 14.2174 54.8489 13.659 54.8489C13.1006 54.8489 12.6539 54.3838 12.6539 53.8024C12.6539 53.221 13.1006 52.7559 13.659 52.7559Z" fill="#BAF4EE"/>
<path d="M46.9008 16.5547C47.7197 16.5547 48.3525 17.2524 48.3525 18.0663C48.3525 18.8802 47.6825 19.5779 46.9008 19.5779C46.0818 19.5779 45.449 18.8802 45.449 18.0663C45.449 17.2524 46.119 16.5547 46.9008 16.5547Z" fill="#BAF4EE"/>
<path d="M18.3496 22.4453C19.0569 22.4453 19.6152 23.0267 19.6152 23.7631C19.6152 24.4996 19.0569 25.0809 18.3496 25.0809C17.6423 25.0809 17.0839 24.4996 17.0839 23.7631C17.1212 23.0267 17.6795 22.4453 18.3496 22.4453Z" fill="#BAF4EE"/>
<path d="M62.8337 34.0744C62.4431 34.0744 62.1265 33.7447 62.1265 33.338C62.1265 32.9313 62.4431 32.6016 62.8337 32.6016C63.2244 32.6016 63.541 32.9313 63.541 33.338C63.541 33.7447 63.2244 34.0744 62.8337 34.0744Z" fill="#BAF4EE"/>
<path d="M4.7628 30.3145C5.43284 30.3145 5.99121 30.8958 5.99121 31.5935C5.99121 32.2912 5.43284 32.8726 4.7628 32.8726C4.09276 32.8726 3.53439 32.2912 3.53439 31.5935C3.53439 30.8571 4.09276 30.3145 4.7628 30.3145Z" fill="#BAF4EE"/>
<path d="M69.7202 38.6474C69.2885 38.6474 68.9385 38.283 68.9385 37.8335C68.9385 37.3839 69.2885 37.0195 69.7202 37.0195C70.152 37.0195 70.502 37.3839 70.502 37.8335C70.502 38.283 70.152 38.6474 69.7202 38.6474Z" fill="#BAF4EE"/>
<path d="M37.0366 13.8413L36.5527 13.3375C36.3666 13.1437 36.3666 12.8723 36.5527 12.6786C36.7388 12.4848 36.9994 12.4848 37.1855 12.6786L37.6694 13.1824L38.1534 12.6786C38.3395 12.4848 38.6001 12.4848 38.7862 12.6786C38.9723 12.8723 38.9723 13.1437 38.7862 13.3375L38.265 13.8413L38.749 14.3452C38.9351 14.539 38.9351 14.8103 38.749 15.0041C38.5628 15.1979 38.3023 15.1979 38.1161 15.0041L37.6694 14.5002L37.1855 15.0041C36.9994 15.1979 36.7388 15.1979 36.5527 15.0041C36.3666 14.8103 36.3666 14.539 36.5527 14.3452L37.0366 13.8413Z" fill="#BAF4EE"/>
<path d="M70.2778 29.228L69.7939 28.7242C69.6078 28.5304 69.6078 28.2591 69.7939 28.0653C69.98 27.8715 70.2406 27.8715 70.4267 28.0653L70.9107 28.5691L71.3946 28.0653C71.5807 27.8715 71.8413 27.8715 72.0274 28.0653C72.2135 28.2591 72.2135 28.5304 72.0274 28.7242L71.5063 29.228L71.9902 29.7319C72.1763 29.9257 72.1763 30.197 71.9902 30.3908C71.804 30.5846 71.5435 30.5846 71.3574 30.3908L70.8734 29.887L70.3895 30.3908C70.2034 30.5846 69.9428 30.5846 69.7567 30.3908C69.5706 30.197 69.5706 29.9257 69.7567 29.7319L70.2778 29.228Z" fill="#BAF4EE"/>
<path d="M12.6914 60.2747L12.282 59.8484C12.1331 59.6933 12.1331 59.4608 12.282 59.3057C12.4309 59.1507 12.6542 59.1507 12.8031 59.3057L13.2126 59.7321L13.6221 59.3057C13.771 59.1507 13.9943 59.1507 14.1432 59.3057C14.2921 59.4608 14.2921 59.6933 14.1432 59.8484L13.7337 60.2747L14.1432 60.7011C14.2921 60.8561 14.2921 61.0887 14.1432 61.2437C13.9943 61.3987 13.771 61.3987 13.6221 61.2437L13.2126 60.8173L12.8031 61.2437C12.6542 61.3987 12.4309 61.3987 12.282 61.2437C12.1331 61.0887 12.1331 60.8561 12.282 60.7011L12.6914 60.2747Z" fill="#BAF4EE"/>
</g>
</g>
<defs>
<clipPath id="clip0_218_6990">
<rect width="68.6055" height="61.5498" fill="white" transform="matrix(-1 0 0 1 72.1406 12.5625)"/>
</clipPath>
</defs>
</svg>
