<svg width="78" height="78" viewBox="0 0 78 78" fill="none" xmlns="http://www.w3.org/2000/svg">
<g clip-path="url(#clip0_218_7062)">
<mask id="mask0_218_7062" style="mask-type:alpha" maskUnits="userSpaceOnUse" x="0" y="9" width="78" height="60">
<rect y="9" width="78" height="60" rx="7.07092" fill="white"/>
</mask>
<g mask="url(#mask0_218_7062)">
<g clip-path="url(#clip1_218_7062)">
<path d="M60.4437 121.513L24.4662 121.886C20.8472 121.939 17.8668 119.012 17.8136 115.393L16.9089 27.5781C16.8556 23.9591 19.7828 20.9787 23.4018 20.9787L59.3793 20.6062C62.9983 20.553 65.9787 23.4801 66.0319 27.0992L66.9367 114.861C66.9899 118.48 64.0627 121.46 60.4437 121.513Z" fill="#A3AFCB"/>
<path d="M60.4442 118.906L24.4668 119.278C20.8478 119.332 17.8674 116.405 17.8142 112.786L16.8562 25.0239C16.803 21.4049 19.7301 18.4245 23.3492 18.3713L59.3798 17.9988C62.9989 17.9455 65.9792 20.8727 66.0325 24.4917L66.9372 112.253C66.9904 115.926 64.0633 118.906 60.4442 118.906Z" fill="#18367E"/>
<path d="M46.5011 23.2666L40.2743 23.373C39.8485 23.373 39.476 23.0004 39.4227 22.5747C39.4227 22.0957 39.7953 21.7231 40.2743 21.7231L46.5011 21.6699C46.9269 21.6699 47.2995 22.0425 47.2995 22.4682C47.2995 22.894 46.9269 23.2666 46.5011 23.2666Z" fill="#1D2769"/>
<path d="M37.1329 22.5757C37.1329 23.0014 36.7603 23.374 36.3346 23.4272C35.9088 23.4272 35.5363 23.0547 35.483 22.6289C35.4298 22.2031 35.8556 21.8306 36.2814 21.7773C36.7603 21.7773 37.1329 22.0967 37.1329 22.5757Z" fill="#1D2769"/>
<path d="M65.0422 26.256L18.2578 26.7754L19.1805 109.876L65.9649 109.357L65.0422 26.256Z" fill="#EBFCFA"/>
<path d="M64.9649 57.3933L18.9375 57.9043L19.4066 100.158L65.4339 99.6466L64.9649 57.3933Z" fill="white"/>
<path d="M23.0815 48.9726C22.6558 48.9194 22.3364 48.5468 22.2832 48.1211C22.2832 47.6421 22.6558 47.2695 23.1347 47.2695L60.4959 46.8438C60.9749 46.8438 61.3475 47.2163 61.3475 47.6953C61.3475 48.1743 60.9749 48.5468 60.4959 48.5468L23.1347 48.9726C23.1347 48.9726 23.1347 48.9726 23.0815 48.9726Z" fill="#BDE3E2"/>
<path d="M23.1333 53.8163C22.7075 53.7631 22.3882 53.3906 22.335 52.9648C22.335 52.4858 22.7075 52.1133 23.1865 52.1133L60.5477 51.6875C61.0267 51.6875 61.3992 52.06 61.3992 52.539C61.3992 53.018 61.0267 53.3906 60.5477 53.3906L23.2397 53.8696C23.2397 53.8696 23.1865 53.8696 23.1333 53.8163Z" fill="#BDE3E2"/>
</g>
<g filter="url(#filter0_d_218_7062)">
<path d="M73.2063 44.2884L11.0765 45.0878C6.04026 45.1686 1.95511 41.1196 1.86893 36.1362C1.78808 31.1 5.83715 27.0148 10.8205 26.9286L72.9502 26.1293C77.9865 26.0484 82.0716 30.0975 82.1578 35.0808C82.2386 40.1171 78.1896 44.2022 73.2063 44.2884Z" fill="white"/>
</g>
<path d="M24.5645 32.8076C24.1939 32.7703 23.9028 32.4735 23.9402 32.1028C23.9246 31.7268 24.2267 31.3828 24.6557 31.3726L72.3703 30.8322C72.7463 30.8166 73.0903 31.1187 73.1006 31.5477C73.1162 31.9237 72.814 32.2677 72.3851 32.2779L24.6704 32.8183C24.6704 32.8183 24.6175 32.813 24.5645 32.8076Z" fill="#BDE3E2"/>
<path d="M43.5246 36.2698C43.1539 36.2325 42.8629 35.9357 42.9003 35.565C42.8847 35.189 43.1868 34.845 43.6157 34.8348L72.4299 34.4757C72.8059 34.4601 73.1499 34.7622 73.1602 35.1912C73.1758 35.5672 72.8736 35.9112 72.4447 35.9214L43.6305 36.2805C43.5776 36.2752 43.5246 36.2698 43.5246 36.2698Z" fill="#BDE3E2"/>
<path d="M24.6188 36.5037C24.2482 36.4664 23.9571 36.1696 23.9945 35.7989C23.9789 35.4229 24.281 35.0789 24.71 35.0687L39.7605 34.8737C40.1365 34.8581 40.4805 35.1603 40.4907 35.5892C40.5063 35.9652 40.2042 36.3092 39.7752 36.3195L24.7247 36.5144C24.6718 36.5091 24.6718 36.5091 24.6188 36.5037Z" fill="#BDE3E2"/>
<path d="M24.6813 40.1474C24.3106 40.1101 24.0196 39.8133 24.0569 39.4426C24.0413 39.0666 24.3435 38.7226 24.7724 38.7124L59.4754 38.3049C59.8514 38.2893 60.1954 38.5914 60.2057 39.0204C60.2213 39.3964 59.9191 39.7404 59.4902 39.7507L24.7872 40.1581C24.7342 40.1528 24.6813 40.1474 24.6813 40.1474Z" fill="#BDE3E2"/>
<path d="M17.8656 34.5377L14.1696 34.0582L12.4722 30.7312L10.8492 34.098L7.15231 34.6883L9.8882 37.2641L9.30283 40.9494L12.5876 39.1409L15.8907 40.8645L15.2475 37.1623L17.8656 34.5377Z" fill="#18367E"/>
</g>
</g>
<defs>
<filter id="filter0_d_218_7062" x="-1.66772" y="26.1289" width="87.3621" height="26.0319" filterUnits="userSpaceOnUse" color-interpolation-filters="sRGB">
<feFlood flood-opacity="0" result="BackgroundImageFix"/>
<feColorMatrix in="SourceAlpha" type="matrix" values="0 0 0 0 0 0 0 0 0 0 0 0 0 0 0 0 0 0 127 0" result="hardAlpha"/>
<feOffset dy="3.53546"/>
<feGaussianBlur stdDeviation="1.76773"/>
<feColorMatrix type="matrix" values="0 0 0 0 0 0 0 0 0 0 0 0 0 0 0 0 0 0 0.02 0"/>
<feBlend mode="normal" in2="BackgroundImageFix" result="effect1_dropShadow_218_7062"/>
<feBlend mode="normal" in="SourceGraphic" in2="effect1_dropShadow_218_7062" result="shape"/>
</filter>
<clipPath id="clip0_218_7062">
<rect width="78" height="78" fill="white"/>
</clipPath>
<clipPath id="clip1_218_7062">
<rect width="50.1875" height="103.888" fill="white" transform="translate(16.8545 17.998)"/>
</clipPath>
</defs>
</svg>
