<svg width="15" height="16" viewBox="0 0 15 16" fill="none" xmlns="http://www.w3.org/2000/svg">
<g style="mix-blend-mode:luminosity">
<path d="M9.87474 7.43359H4.59753C4.34037 7.43359 4.13086 7.67501 4.13086 8.07618C4.13086 8.47735 4.34936 8.71877 4.59753 8.71877H9.87474C10.1319 8.71877 10.3414 8.42979 10.3414 8.07618C10.3414 7.72258 10.1355 7.43359 9.87474 7.43359Z" fill="#D31B1B"/>
</g>
<g style="mix-blend-mode:luminosity">
<path d="M7.23826 1.86306C8.67754 1.86444 10.0718 2.36379 11.1836 3.27606C12.2955 4.18834 13.056 5.45711 13.3358 6.86627C13.6156 8.27543 13.3973 9.73782 12.7181 11.0044C12.0389 12.2709 10.9408 13.2633 9.61079 13.8124C8.28081 14.3615 6.80123 14.4335 5.42407 14.016C4.0469 13.5985 2.85733 12.7174 2.05796 11.5228C1.25859 10.3282 0.898871 8.89391 1.04007 7.46427C1.18127 6.03464 1.81465 4.69807 2.83234 3.68223C3.40957 3.10305 4.09625 2.64402 4.85257 2.33174C5.60888 2.01946 6.41979 1.86016 7.23826 1.86306V1.86306ZM7.23826 0.896484C5.81555 0.896484 4.42479 1.31757 3.24186 2.10649C2.05892 2.89541 1.13693 4.01674 0.592485 5.32867C0.0480386 6.6406 -0.0944134 8.08421 0.183143 9.47695C0.460699 10.8697 1.1458 12.149 2.1518 13.1531C3.15781 14.1572 4.43954 14.841 5.83491 15.118C7.23028 15.3951 8.67662 15.2529 9.99103 14.7095C11.3054 14.1661 12.4289 13.2458 13.2193 12.0651C14.0097 10.8844 14.4316 9.49627 14.4316 8.07624C14.4316 6.17205 13.6737 4.34585 12.3247 2.99939C10.9757 1.65292 9.14605 0.896484 7.23826 0.896484V0.896484Z" fill="#D31B1B"/>
</g>
</svg>
