<svg width="15" height="15" viewBox="0 0 15 15" fill="none" xmlns="http://www.w3.org/2000/svg">
<g style="mix-blend-mode:luminosity">
<g style="mix-blend-mode:luminosity">
<path d="M10.3748 14.844C9.90662 14.8433 9.44216 14.7615 9.00261 14.6025C7.00598 13.8829 5.19233 12.7431 3.6878 11.2624C2.18587 9.7792 1.02975 7.99118 0.299846 6.02277C0.069999 5.40813 0.000260308 4.74646 0.0970176 4.09837C0.190514 3.48191 0.428309 2.89538 0.791572 2.38522C1.15483 1.87505 1.63359 1.45528 2.18992 1.15913C2.77804 0.846734 3.43618 0.684601 4.10422 0.687539C4.20721 0.688128 4.30685 0.723622 4.38643 0.788063C4.46602 0.852505 4.52069 0.941973 4.54129 1.04145L5.2458 4.28152C5.26149 4.35367 5.25862 4.42854 5.23746 4.49931C5.2163 4.57009 5.17752 4.63452 5.12464 4.68675L3.92293 5.8697C5.06183 8.09862 6.89699 9.90783 9.15788 11.0306L10.3614 9.84414C10.4144 9.79202 10.4797 9.75378 10.5515 9.73292C10.6233 9.71206 10.6992 9.70923 10.7724 9.72469L14.059 10.4201C14.1602 10.4405 14.2511 10.4947 14.3165 10.5735C14.3819 10.6523 14.4178 10.751 14.4179 10.8528C14.4209 11.5114 14.2565 12.1602 13.9396 12.74C13.6392 13.2885 13.2134 13.7605 12.6959 14.1186C12.1784 14.4767 11.5835 14.7112 10.9582 14.8033C10.765 14.831 10.57 14.8446 10.3748 14.844ZM3.74613 1.59179C3.27456 1.64416 2.82116 1.8012 2.41997 2.05109C2.01879 2.30099 1.68025 2.63725 1.42979 3.03463C1.17933 3.432 1.02345 3.88016 0.973856 4.34544C0.924266 4.81073 0.982255 5.28104 1.14347 5.72106C1.82263 7.5714 2.90629 9.25183 4.31767 10.6432C5.72904 12.0347 7.43357 13.103 9.31045 13.7726C9.75678 13.9315 10.2338 13.9887 10.7058 13.9398C11.1777 13.8909 11.6323 13.7372 12.0354 13.4903C12.4385 13.2434 12.7796 12.9096 13.033 12.5141C13.2865 12.1186 13.4458 11.6716 13.4989 11.2067L10.8236 10.6396L9.56712 11.8783C9.50197 11.9427 9.41823 11.9858 9.32732 12.0016C9.23642 12.0175 9.14277 12.0053 9.05915 11.9667C6.38484 10.7258 4.23307 8.60441 2.97431 5.96791C2.9352 5.88548 2.92284 5.79315 2.9389 5.70354C2.95496 5.61392 2.99866 5.53136 3.06405 5.46713L4.31872 4.22666L3.74613 1.59179Z" fill="#707070"/>
</g>
</g>
</svg>
