<svg width="38" height="38" viewBox="0 0 38 38" fill="none" xmlns="http://www.w3.org/2000/svg">
<path d="M31.6497 7.64748C31.202 7.64748 30.9534 7.43819 30.7112 7.20093C30.2426 6.74213 30.2347 5.99034 30.6935 5.52174C31.1524 5.05315 31.9042 5.04521 32.3728 5.50401C32.4151 5.54542 32.4565 5.58683 32.498 5.62913C33.2347 6.38115 32.6937 7.64748 31.6497 7.64748V7.64748Z" fill="#3D518E"/>
<path d="M19.0002 38C8.49926 38 0 29.5028 0 19.001C0 12.9683 2.8222 7.51022 7.34938 3.9923C13.8984 -1.09801 22.6221 -1.16362 29.0945 2.90223C29.6499 3.25112 29.8173 3.98406 29.4684 4.53941C29.1196 5.09468 28.3864 5.26204 27.8311 4.91323C16.7598 -2.04158 2.37503 5.97264 2.37503 19.001C2.37503 28.1676 9.83306 35.6251 19.0002 35.6251C28.0228 35.6251 35.6254 28.3111 35.6254 19.001C35.6254 15.8464 34.7384 12.7772 33.0602 10.1252C32.7096 9.57102 32.8746 8.83748 33.4287 8.48681C33.9829 8.13615 34.7166 8.3012 35.0672 8.85536C40.5339 17.4944 38.2213 29.2266 29.2719 34.9872C26.2097 36.9582 22.6578 38 19.0002 38V38Z" fill="#3D518E"/>
<path d="M24.2672 24.0415H16.3786C15.6607 24.0364 14.9654 23.79 14.4045 23.342C13.8435 22.8939 13.4496 22.2702 13.286 21.5712L12.0289 16.4609C11.9132 15.9864 11.9073 15.4918 12.0115 15.0147C12.1158 14.5375 12.3275 14.0904 12.6305 13.7074C12.9335 13.3244 13.3199 13.0155 13.7603 12.8043C14.2006 12.593 14.6833 12.485 15.1717 12.4884H25.5432C26.0315 12.485 26.5143 12.593 26.9546 12.8043C27.395 13.0155 27.7814 13.3244 28.0844 13.7074C28.3874 14.0904 28.5991 14.5375 28.7033 15.0147C28.8076 15.4918 28.8017 15.9864 28.686 16.4609L27.4289 21.5838C27.2591 22.2915 26.8536 22.9204 26.279 23.3671C25.7044 23.8137 24.9949 24.0516 24.2672 24.0415ZM15.134 14.0598C14.8856 14.0605 14.6405 14.1175 14.4172 14.2264C14.1939 14.3353 13.9981 14.4933 13.8445 14.6886C13.6909 14.8839 13.5835 15.1115 13.5303 15.3542C13.4772 15.5969 13.4796 15.8484 13.5374 16.0901L14.7946 21.2129C14.8797 21.5719 15.0838 21.8916 15.3737 22.1198C15.6636 22.3481 16.0222 22.4715 16.3912 22.4701H24.2672C24.6361 22.4715 24.9947 22.3481 25.2846 22.1198C25.5745 21.8916 25.7786 21.5719 25.8637 21.2129L27.1209 16.0901C27.18 15.8483 27.1833 15.5963 27.1307 15.3531C27.078 15.1099 26.9707 14.8819 26.8169 14.6862C26.663 14.4906 26.4667 14.3326 26.2428 14.224C26.0188 14.1155 25.7731 14.0593 25.5243 14.0598H15.134Z" fill="#238582" stroke="#238582" stroke-width="0.8"/>
<path d="M12.9461 18.8001C12.7666 18.798 12.5932 18.7345 12.4548 18.6201C12.3164 18.5057 12.2214 18.3474 12.1855 18.1715L11.0604 13.2875C10.9565 12.8426 10.7047 12.4461 10.3461 12.163C9.98757 11.8798 9.54353 11.7267 9.08665 11.7287H8.06208C7.8537 11.7287 7.65385 11.6459 7.5065 11.4985C7.35915 11.3512 7.27637 11.1513 7.27637 10.943C7.27637 10.7346 7.35915 10.5347 7.5065 10.3874C7.65385 10.24 7.8537 10.1572 8.06208 10.1572H9.08665C9.89864 10.1544 10.6876 10.427 11.3247 10.9305C11.9617 11.434 12.4092 12.1386 12.5941 12.9292L13.7129 17.8132C13.7372 17.9136 13.7412 18.0177 13.7249 18.1196C13.7085 18.2215 13.6721 18.3191 13.6177 18.4069C13.5633 18.4946 13.4921 18.5706 13.4081 18.6306C13.3241 18.6905 13.229 18.7332 13.1284 18.7561C13.0693 18.7771 13.0082 18.7918 12.9461 18.8001ZM16.4975 31.843C16.0002 31.843 15.5141 31.6955 15.1006 31.4192C14.6872 31.143 14.3649 30.7503 14.1746 30.2909C13.9843 29.8314 13.9345 29.3259 14.0315 28.8382C14.1286 28.3504 14.368 27.9024 14.7196 27.5508C15.0713 27.1992 15.5193 26.9597 16.007 26.8627C16.4947 26.7657 17.0003 26.8155 17.4597 27.0058C17.9191 27.1961 18.3118 27.5183 18.5881 27.9318C18.8643 28.3453 19.0118 28.8314 19.0118 29.3287C19.0118 29.9955 18.7469 30.635 18.2754 31.1065C17.8039 31.5781 17.1643 31.843 16.4975 31.843ZM16.4975 28.3607C16.3085 28.3607 16.1238 28.4167 15.9667 28.5217C15.8096 28.6267 15.6871 28.7759 15.6148 28.9505C15.5425 29.1251 15.5236 29.3172 15.5604 29.5025C15.5973 29.6878 15.6883 29.8581 15.8219 29.9917C15.9555 30.1253 16.1258 30.2163 16.3111 30.2532C16.4965 30.29 16.6886 30.2711 16.8631 30.1988C17.0377 30.1265 17.1869 30.004 17.2919 29.8469C17.3969 29.6898 17.4529 29.5051 17.4529 29.3161C17.4529 29.0627 17.3523 28.8197 17.1731 28.6405C16.9939 28.4613 16.7509 28.3607 16.4975 28.3607ZM25.1844 31.843C24.6871 31.843 24.201 31.6955 23.7875 31.4192C23.374 31.143 23.0518 30.7503 22.8615 30.2909C22.6712 29.8314 22.6214 29.3259 22.7184 28.8382C22.8154 28.3504 23.0549 27.9024 23.4065 27.5508C23.7581 27.1992 24.2061 26.9597 24.6939 26.8627C25.1816 26.7657 25.6871 26.8155 26.1465 27.0058C26.606 27.1961 26.9986 27.5183 27.2749 27.9318C27.5512 28.3453 27.6987 28.8314 27.6987 29.3287C27.6987 29.9955 27.4338 30.635 26.9622 31.1065C26.4907 31.5781 25.8512 31.843 25.1844 31.843ZM25.1844 28.3607C24.9957 28.3619 24.8116 28.419 24.6553 28.5247C24.499 28.6305 24.3775 28.7801 24.3062 28.9548C24.2348 29.1295 24.2168 29.3214 24.2544 29.5063C24.2919 29.6912 24.3834 29.8609 24.5173 29.9939C24.6511 30.1269 24.8214 30.2173 25.0066 30.2536C25.1917 30.29 25.3835 30.2707 25.5577 30.1982C25.7319 30.1257 25.8808 30.0032 25.9855 29.8463C26.0902 29.6893 26.1461 29.5048 26.1461 29.3161C26.1461 29.1901 26.1212 29.0654 26.0728 28.949C26.0243 28.8327 25.9534 28.7271 25.864 28.6383C25.7746 28.5495 25.6686 28.4792 25.5519 28.4316C25.4353 28.3839 25.3104 28.3598 25.1844 28.3607Z" fill="#238582" stroke="#238582" stroke-width="0.4"/>
<path d="M25.1847 27.361H14.7127C14.0642 27.361 13.4423 27.1034 12.9837 26.6448C12.5252 26.1863 12.2676 25.5643 12.2676 24.9158C12.2676 24.2674 12.5252 23.6454 12.9837 23.1869C13.4423 22.7283 14.0642 22.4707 14.7127 22.4707H16.3784C16.5868 22.4707 16.7867 22.5535 16.934 22.7008C17.0814 22.8482 17.1641 23.048 17.1641 23.2564C17.1641 23.4648 17.0814 23.6647 16.934 23.812C16.7867 23.9594 16.5868 24.0421 16.3784 24.0421H14.7127C14.481 24.0421 14.2588 24.1342 14.0949 24.298C13.9311 24.4619 13.839 24.6841 13.839 24.9158C13.839 25.1476 13.9311 25.3698 14.0949 25.5337C14.2588 25.6975 14.481 25.7896 14.7127 25.7896H25.1847C25.3931 25.7896 25.593 25.8723 25.7403 26.0197C25.8877 26.167 25.9704 26.3669 25.9704 26.5753C25.9704 26.7837 25.8877 26.9835 25.7403 27.1309C25.593 27.2782 25.3931 27.361 25.1847 27.361Z" fill="#238582" stroke="#238582"/>
</svg>
