<svg width="38" height="38" viewBox="0 0 38 38" fill="none" xmlns="http://www.w3.org/2000/svg">
<path d="M31.6497 7.64764C31.202 7.64764 30.9534 7.43834 30.7112 7.20106C30.2426 6.74224 30.2347 5.99039 30.6935 5.52177C31.1524 5.05315 31.9042 5.0452 32.3728 5.50403C32.4151 5.54544 32.4565 5.58686 32.498 5.62916C33.2347 6.38123 32.6937 7.64764 31.6497 7.64764Z" fill="#3D518E"/>
<path d="M27.4288 9.0087L7.24104 17.9145C6.30795 18.3261 6.29541 19.6511 7.22271 20.079L14.5443 23.458L17.9235 30.7791C18.3508 31.705 19.676 31.6952 20.0882 30.7608L28.9946 10.5744C29.4313 9.5846 28.4184 8.57202 27.4288 9.0087ZM18.9773 27.395L16.8644 22.8174L18.6539 21.028C19.1177 20.5643 19.1177 19.8124 18.6539 19.3487C18.1901 18.885 17.4383 18.885 16.9745 19.3487L15.185 21.1381L10.607 19.0254L25.5855 12.4177L18.9773 27.395Z" fill="#238582"/>
<path d="M19.0002 38C8.49926 38 0 29.5028 0 19.001C0 12.9683 2.8222 7.51022 7.34938 3.9923C13.8984 -1.09801 22.6221 -1.16362 29.0945 2.90223C29.6499 3.25112 29.8173 3.98406 29.4684 4.53941C29.1196 5.09468 28.3864 5.26204 27.8311 4.91323C16.7598 -2.04158 2.37503 5.97264 2.37503 19.001C2.37503 28.1676 9.83306 35.6251 19.0002 35.6251C28.0228 35.6251 35.6254 28.3111 35.6254 19.001C35.6254 15.8464 34.7384 12.7772 33.0602 10.1252C32.7096 9.57102 32.8745 8.83748 33.4287 8.48681C33.9829 8.13615 34.7166 8.3012 35.0672 8.85536C40.5339 17.4944 38.2213 29.2266 29.2719 34.9872C26.2097 36.9582 22.6578 38 19.0002 38Z" fill="#3D518E"/>
</svg>
