<svg width="8" height="8" viewBox="0 0 8 8" fill="none"
                                    xmlns="http://www.w3.org/2000/svg">
                                    <path
                                      d="M6.82529 5.97724L4.8454 3.99734L6.82034 2.02239C6.93287 1.90987 6.99608 1.75725 6.99608 1.59812C6.99608 1.43899 6.93287 1.28638 6.82034 1.17386C6.70782 1.06134 6.55521 0.998123 6.39608 0.998123C6.23695 0.998123 6.08434 1.06134 5.97182 1.17386L3.99687 3.14881L2.02545 1.1774C1.97158 1.1185 1.90603 1.07147 1.83299 1.03929C1.75995 1.00712 1.68101 0.990499 1.60119 0.990499C1.52137 0.990499 1.44243 1.00712 1.36939 1.03929C1.29634 1.07147 1.2308 1.1185 1.17692 1.1774C1.11883 1.23174 1.07252 1.29744 1.04086 1.37042C1.0092 1.4434 0.992865 1.52211 0.992865 1.60166C0.992865 1.68121 1.0092 1.75991 1.04086 1.83289C1.07252 1.90587 1.11883 1.97157 1.17693 2.02592L3.15187 4.00087L1.17551 5.97724C1.11742 6.03158 1.07111 6.09729 1.03945 6.17027C1.00779 6.24324 0.99145 6.32195 0.99145 6.4015C0.99145 6.48105 1.00779 6.55976 1.03945 6.63273C1.07111 6.70571 1.11742 6.77141 1.17551 6.82576C1.23123 6.88148 1.29737 6.92568 1.37016 6.95583C1.44296 6.98598 1.52098 7.0015 1.59977 7.0015C1.67857 7.0015 1.75659 6.98598 1.82939 6.95583C1.90218 6.92568 1.96832 6.88148 2.02404 6.82576L4.00394 4.84586L5.9803 6.82223C6.09282 6.93475 6.24544 6.99796 6.40457 6.99796C6.5637 6.99796 6.71631 6.93475 6.82883 6.82223C6.94135 6.70971 7.00457 6.55709 7.00457 6.39796C7.00457 6.23883 6.94135 6.08622 6.82883 5.9737L6.82529 5.97724Z"
                                      fill="#3C3C3C" />
                                  </svg>