<svg width="38" height="38" viewBox="0 0 38 38" fill="none" xmlns="http://www.w3.org/2000/svg">
<path d="M31.6497 7.64748C31.202 7.64748 30.9534 7.43819 30.7112 7.20093C30.2426 6.74213 30.2347 5.99034 30.6935 5.52174C31.1524 5.05315 31.9042 5.04521 32.3728 5.50401C32.4151 5.54542 32.4565 5.58683 32.498 5.62913C33.2347 6.38115 32.6937 7.64748 31.6497 7.64748Z" fill="#3D518E"/>
<path d="M19.0002 38C8.49926 38 0 29.5028 0 19.001C0 12.9683 2.8222 7.51022 7.34938 3.9923C13.8984 -1.09801 22.6221 -1.16362 29.0945 2.90223C29.6499 3.25112 29.8173 3.98406 29.4684 4.53941C29.1196 5.09468 28.3864 5.26204 27.8311 4.91323C16.7598 -2.04158 2.37503 5.97264 2.37503 19.001C2.37503 28.1676 9.83306 35.6251 19.0002 35.6251C28.0228 35.6251 35.6254 28.3111 35.6254 19.001C35.6254 15.8464 34.7384 12.7772 33.0602 10.1252C32.7096 9.57102 32.8745 8.83748 33.4287 8.48681C33.9829 8.13615 34.7166 8.3012 35.0672 8.85536C40.5339 17.4944 38.2213 29.2266 29.2719 34.9872C26.2097 36.9582 22.6578 38 19.0002 38Z" fill="#3D518E"/>
<g clip-path="url(#clip0_218_7463)">
<path d="M14.7195 17.0505L18.6053 9.2793C19.0136 9.2793 19.4178 9.3597 19.795 9.51592C20.1721 9.67213 20.5148 9.9011 20.8035 10.1897C21.0922 10.4784 21.3211 10.8211 21.4774 11.1982C21.6336 11.5753 21.714 11.9796 21.714 12.3878V14.7191H27.725C27.9454 14.7191 28.1632 14.766 28.3641 14.8566C28.565 14.9472 28.7444 15.0795 28.8902 15.2448C29.0361 15.41 29.1451 15.6043 29.2101 15.8149C29.2751 16.0255 29.2946 16.2475 29.2673 16.4661L28.1015 25.7915C28.0546 26.1674 27.8719 26.5132 27.5879 26.7639C27.3039 27.0146 26.9381 27.153 26.5592 27.153H14.7195M10.0565 17.0505H14.7195V27.153H10.0565C9.85035 27.153 9.65267 27.0711 9.50692 26.9254C9.36118 26.7796 9.2793 26.582 9.2793 26.3759V17.8276C9.2793 17.6215 9.36118 17.4238 9.50692 17.2781C9.65267 17.1323 9.85035 17.0505 10.0565 17.0505V17.0505Z" stroke="#238582" stroke-width="2.2" stroke-linecap="round" stroke-linejoin="round"/>
</g>
<defs>
<clipPath id="clip0_218_7463">
<rect width="23.9259" height="23.9243" fill="white" transform="translate(7.03711 7.03711)"/>
</clipPath>
</defs>
</svg>
