<svg viewBox="0 0 14 14" fill="none" xmlns="http://www.w3.org/2000/svg"> <path d="M10.6543 1.43135C10.4431 1.22015 10.1066 1.22015 9.89544 1.43135L5.81834 5.50844C5.75391 5.56931 5.71095 5.64805 5.68231 5.73395L5.01652 7.95686C4.95924 8.14658 5.01294 8.3506 5.15255 8.49021C5.25276 8.59403 5.39237 8.64771 5.53198 8.64771C5.58207 8.64771 5.63578 8.64054 5.68589 8.62623L7.90878 7.96044C7.9947 7.93179 8.07344 7.88884 8.13429 7.82441L12.2114 3.74731C12.3116 3.64709 12.3689 3.51107 12.3689 3.36788C12.3689 3.22471 12.3116 3.08869 12.2114 2.98845L10.6543 1.43135Z" fill="#5BC5A9"/> 
<path d="M11.8324 6.44646C11.5358 6.44646 11.2954 6.69472 11.2954 7.00071V10.6957C11.2954 11.2052 10.894 11.6195 10.4005 11.6195H3.24146C2.74804 11.6195 2.34657 11.2052 2.34657 10.6957V3.3057C2.34657 2.79619 2.74804 2.38194 3.24146 2.38194H6.821C7.11761 2.38194 7.35793 2.13368 7.35793 1.82769C7.35793 1.5217 7.11761 1.27344 6.821 1.27344H3.24146C2.15588 1.27344 1.27271 2.18528 1.27271 3.3057V10.6957C1.27271 11.8161 2.15588 12.728 3.24146 12.728H10.4005C11.4861 12.728 12.3693 11.8161 12.3693 10.6957V7.00071C12.3693 6.69472 12.129 6.44646 11.8324 6.44646Z" fill="#5BC5A9"/> 
</svg>