<svg width="12" height="19" viewBox="0 0 12 19" fill="none" xmlns="http://www.w3.org/2000/svg">
<g style="mix-blend-mode:luminosity">
<path d="M7.18173 18.6125H4.30983C4.07902 18.6122 3.85773 18.5217 3.69452 18.3608C3.53131 18.1999 3.43952 17.9818 3.43928 17.7542V11.3626H1.75922C1.52841 11.3623 1.30712 11.2718 1.14391 11.1109C0.980704 10.95 0.888909 10.7319 0.888672 10.5043V7.76505C0.888909 7.53751 0.980704 7.31935 1.14391 7.15845C1.30712 6.99755 1.52841 6.90705 1.75922 6.90682H3.43659V5.53541C3.38985 4.3003 3.84168 3.09731 4.69305 2.19005C5.13009 1.76648 5.65009 1.43514 6.22131 1.21624C6.79253 0.99734 7.403 0.89547 8.01548 0.916847H10.208C10.4384 0.917782 10.6591 1.00856 10.8219 1.16936C10.9847 1.33016 11.0763 1.54792 11.0768 1.77509V4.32149C11.0765 4.54903 10.9847 4.76719 10.8215 4.92809C10.6583 5.08899 10.437 5.17949 10.2062 5.17972H8.72987C8.28113 5.17972 8.16536 5.2682 8.14023 5.29563C8.09984 5.34075 8.05048 5.47259 8.05048 5.82207V6.90682H10.0931C10.2437 6.90608 10.392 6.94323 10.5239 7.01476C10.6597 7.08933 10.7729 7.19825 10.8517 7.33028C10.9306 7.46232 10.9723 7.61271 10.9726 7.76594V10.5088C10.9724 10.7363 10.8806 10.9545 10.7174 11.1154C10.5542 11.2763 10.3329 11.3668 10.1021 11.367H8.05228V17.7542C8.05204 17.9818 7.96025 18.1999 7.79704 18.3608C7.63383 18.5217 7.41254 18.6122 7.18173 18.6125ZM4.48932 17.5755H7.00224V10.8981C7.00247 10.7461 7.06382 10.6004 7.17283 10.4929C7.28185 10.3854 7.42963 10.325 7.5838 10.3247H9.9235V7.94378H7.58111C7.42687 7.94378 7.27894 7.88337 7.16988 7.77585C7.06082 7.66833 6.99955 7.5225 6.99955 7.37044V5.82296C6.9614 5.38985 7.08631 4.95805 7.35046 4.60992C7.53379 4.44084 7.75127 4.31183 7.98867 4.23133C8.22606 4.15082 8.47803 4.12064 8.72807 4.14276H10.0222V1.95735H8.01189C7.53184 1.92623 7.05067 1.99831 6.60167 2.16861C6.15267 2.33891 5.74656 2.60336 5.41145 2.94366C5.07635 3.28396 4.82025 3.69197 4.66087 4.13947C4.5015 4.58698 4.44266 5.06327 4.48842 5.53541V7.37133C4.48842 7.52339 4.42715 7.66922 4.31809 7.77674C4.20903 7.88426 4.0611 7.94466 3.90686 7.94466H1.94051V10.3256H3.90776C4.062 10.3256 4.20992 10.386 4.31899 10.4935C4.42805 10.6011 4.48932 10.7469 4.48932 10.8989V17.5755Z" fill="#707070"/>
</g>
</svg>
