<svg width="38" height="38" viewBox="0 0 38 38" fill="none" xmlns="http://www.w3.org/2000/svg">
<path d="M31.6497 7.64748C31.202 7.64748 30.9534 7.43819 30.7112 7.20093C30.2426 6.74213 30.2347 5.99034 30.6935 5.52174C31.1524 5.05315 31.9042 5.04521 32.3728 5.50401C32.4151 5.54542 32.4565 5.58683 32.498 5.62913C33.2347 6.38115 32.6937 7.64748 31.6497 7.64748V7.64748Z" fill="#3D518E"/>
<path d="M19.0002 38C8.49926 38 0 29.5028 0 19.001C0 12.9683 2.8222 7.51022 7.34938 3.9923C13.8984 -1.09801 22.6221 -1.16362 29.0945 2.90223C29.6499 3.25112 29.8173 3.98406 29.4684 4.53941C29.1196 5.09468 28.3864 5.26204 27.8311 4.91323C16.7598 -2.04158 2.37503 5.97264 2.37503 19.001C2.37503 28.1676 9.83306 35.6251 19.0002 35.6251C28.0228 35.6251 35.6254 28.3111 35.6254 19.001C35.6254 15.8464 34.7384 12.7772 33.0602 10.1252C32.7096 9.57102 32.8746 8.83748 33.4287 8.48681C33.9829 8.13615 34.7166 8.3012 35.0672 8.85536C40.5339 17.4944 38.2213 29.2266 29.2719 34.9872C26.2097 36.9582 22.6578 38 19.0002 38V38Z" fill="#3D518E"/>
<g clip-path="url(#clip0_218_7433)">
<path d="M29.9971 18.4409C29.284 17.2042 25.362 10.9985 18.6991 11.1991C12.5376 11.3551 8.97214 16.7697 8.00279 18.4409C7.905 18.6103 7.85352 18.8024 7.85352 18.998C7.85352 19.1935 7.905 19.3856 8.00279 19.555C8.70473 20.7694 12.4596 26.7968 19.0222 26.7968H19.3008C25.4623 26.6408 29.0388 21.2262 29.9971 19.555C30.0948 19.3856 30.1463 19.1935 30.1463 18.998C30.1463 18.8024 30.0948 18.6103 29.9971 18.4409ZM19.245 24.5686C14.4429 24.68 11.312 20.5689 10.3315 18.998C11.4457 17.2042 14.3537 13.5387 18.8105 13.4273C23.5904 13.3048 26.7325 17.427 27.7241 18.998C26.5765 20.7917 23.7018 24.4572 19.245 24.5686Z" fill="#238582"/>
<path d="M19.0003 15.0986C18.229 15.0986 17.475 15.3273 16.8337 15.7558C16.1924 16.1843 15.6926 16.7933 15.3974 17.5058C15.1023 18.2183 15.025 19.0024 15.1755 19.7588C15.326 20.5152 15.6974 21.21 16.2428 21.7554C16.7882 22.3007 17.483 22.6721 18.2395 22.8226C18.996 22.973 19.7801 22.8958 20.4926 22.6007C21.2052 22.3055 21.8142 21.8057 22.2428 21.1645C22.6713 20.5232 22.9 19.7693 22.9 18.9981C22.9 17.9639 22.4891 16.972 21.7578 16.2408C21.0264 15.5095 20.0345 15.0986 19.0003 15.0986ZM19.0003 20.6693C18.6697 20.6693 18.3466 20.5712 18.0718 20.3876C17.7969 20.204 17.5827 19.943 17.4562 19.6376C17.3297 19.3322 17.2966 18.9962 17.3611 18.672C17.4256 18.3479 17.5848 18.0501 17.8185 17.8164C18.0522 17.5826 18.35 17.4235 18.6742 17.359C18.9984 17.2945 19.3345 17.3276 19.6399 17.4541C19.9452 17.5806 20.2063 17.7948 20.3899 18.0696C20.5736 18.3444 20.6716 18.6675 20.6716 18.9981C20.6716 19.4413 20.4955 19.8664 20.1821 20.1798C19.8686 20.4932 19.4435 20.6693 19.0003 20.6693Z" fill="#238582"/>
</g>
<defs>
<clipPath id="clip0_218_7433">
<rect width="26.7407" height="26.739" fill="white" transform="translate(5.62988 5.62891)"/>
</clipPath>
</defs>
</svg>
