<svg width="15" height="15" viewBox="0 0 15 15" fill="none" xmlns="http://www.w3.org/2000/svg">
<g style="mix-blend-mode:luminosity">
<path d="M14.7321 14.8439V9.74313C14.7321 7.24805 14.1873 5.3263 11.2319 5.3263C10.6764 5.30597 10.1258 5.43465 9.63867 5.6986C9.15155 5.96256 8.74622 6.35191 8.46592 6.82512H8.42463V5.559H5.61914V14.843H8.54041V10.2421C8.54041 9.03177 8.77285 7.8612 10.2932 7.8612C11.791 7.8612 11.8135 9.24235 11.8135 10.32V14.8404L14.7321 14.8439Z" fill="#19A980"/>
</g>
<g style="mix-blend-mode:luminosity">
<path d="M0.865234 5.55957H3.7865V14.8436H0.865234V5.55957Z" fill="#19A980"/>
</g>
<g style="mix-blend-mode:luminosity">
<path d="M2.32335 0.937533C1.98514 0.935435 1.65395 1.03253 1.37187 1.21648C1.08979 1.40043 0.869564 1.66292 0.739197 1.97058C0.608829 2.27824 0.574207 2.61717 0.639732 2.94428C0.705257 3.27139 0.867969 3.5719 1.10718 3.80761C1.34639 4.04331 1.6513 4.20356 1.98313 4.26799C2.31497 4.33241 2.65874 4.2981 2.97074 4.16941C3.28275 4.04073 3.54889 3.82348 3.73532 3.54529C3.92176 3.2671 4.02008 2.94053 4.01777 2.60712C4.01753 2.16423 3.83891 1.73957 3.52117 1.42649C3.20343 1.11341 2.77258 0.937533 2.32335 0.937533Z" fill="#19A980"/>
</g>
</svg>
