<svg width="24" height="40" viewBox="0 0 24 40" fill="none" xmlns="http://www.w3.org/2000/svg">
<path d="M19.1176 1H4.88235C3.853 1.00101 2.86611 1.40169 2.13825 2.11411C1.41039 2.82653 1.00103 3.79249 1 4.8V10.5C1 10.668 1.03861 23.1711 1.00282 23.1419C1.00282 23.1419 1.47545 22.5333 1.64706 22.5333C1.81867 22.5333 1.81867 22.5333 1.64706 22.5333C1.64706 22.5333 2.29412 23.3346 2.29412 23.1667V7.96667H21.7059V30.7667H2.29412V23.1667C2.29412 22.9987 2.22595 22.8376 2.1046 22.7188C1.98325 22.6001 1.81867 22.5333 1.64706 22.5333C1.47545 22.5333 1.31087 22.6001 1.18952 22.7188C1.06817 22.8376 1 23.0032 1 23.1711V35.2C1.00103 36.2075 1.41039 37.1735 2.13825 37.8859C2.86611 38.5983 3.853 38.999 4.88235 39H19.1176C20.147 38.999 21.1339 38.5983 21.8617 37.8859C22.5896 37.1735 22.999 36.2075 23 35.2V4.8C22.999 3.79249 22.5896 2.82653 21.8617 2.11411C21.1339 1.40169 20.147 1.00101 19.1176 1ZM2.29412 6.7V4.8C2.29412 4.12812 2.56681 3.48375 3.0522 3.00866C3.53758 2.53357 4.19591 2.26667 4.88235 2.26667H19.1176C19.8041 2.26667 20.4624 2.53357 20.9478 3.00866C21.4332 3.48375 21.7059 4.12812 21.7059 4.8V6.7H2.29412ZM19.1176 37.7333H4.88235C4.19591 37.7333 3.53758 37.4664 3.0522 36.9913C2.56681 36.5162 2.29412 35.8719 2.29412 35.2V32.0333H21.7059V35.2C21.7059 35.8719 21.4332 36.5162 20.9478 36.9913C20.4624 37.4664 19.8041 37.7333 19.1176 37.7333Z" fill="#3D518E"/>
<path d="M1.64706 22.5333C1.47545 22.5333 1.00282 23.1419 1.00282 23.1419C1.03861 23.1711 1 10.668 1 10.5V4.8C1.00103 3.79249 1.41039 2.82653 2.13825 2.11411C2.86611 1.40169 3.853 1.00101 4.88235 1H19.1176C20.147 1.00101 21.1339 1.40169 21.8618 2.11411C22.5896 2.82653 22.999 3.79249 23 4.8V35.2C22.999 36.2075 22.5896 37.1735 21.8618 37.8859C21.1339 38.5983 20.147 38.999 19.1176 39H4.88235C3.853 38.999 2.86611 38.5983 2.13825 37.8859C1.41039 37.1735 1.00103 36.2075 1 35.2V23.1711C1 23.0032 1.06817 22.8376 1.18952 22.7188C1.31087 22.6001 1.47545 22.5333 1.64706 22.5333ZM1.64706 22.5333C1.81867 22.5333 1.81867 22.5333 1.64706 22.5333ZM1.64706 22.5333C1.64706 22.5333 2.29412 23.3346 2.29412 23.1667M1.64706 22.5333C1.81867 22.5333 1.98325 22.6001 2.1046 22.7188C2.22595 22.8376 2.29412 22.9987 2.29412 23.1667M2.29412 23.1667V7.96667H21.7059V30.7667H2.29412V23.1667ZM2.29412 6.7V4.8C2.29412 4.12812 2.56681 3.48375 3.0522 3.00866C3.53758 2.53357 4.19591 2.26667 4.88235 2.26667H19.1176C19.8041 2.26667 20.4624 2.53357 20.9478 3.00866C21.4332 3.48375 21.7059 4.12812 21.7059 4.8V6.7H2.29412ZM19.1176 37.7333H4.88235C4.19591 37.7333 3.53758 37.4664 3.0522 36.9913C2.56681 36.5162 2.29412 35.8719 2.29412 35.2V32.0333H21.7059V35.2C21.7059 35.8719 21.4332 36.5162 20.9478 36.9913C20.4624 37.4664 19.8041 37.7333 19.1176 37.7333Z" stroke="#3D518E"/>
<path d="M14.0665 4.54297H10.1776C10.0303 4.54297 9.88898 4.59565 9.78479 4.68942C9.6806 4.78318 9.62207 4.91036 9.62207 5.04297C9.62207 5.17558 9.6806 5.30275 9.78479 5.39652C9.88898 5.49029 10.0303 5.54297 10.1776 5.54297H14.0665C14.2139 5.54297 14.3552 5.49029 14.4594 5.39652C14.5635 5.30275 14.6221 5.17558 14.6221 5.04297C14.6221 4.91036 14.5635 4.78318 14.4594 4.68942C14.3552 4.59565 14.2139 4.54297 14.0665 4.54297Z" fill="#238582"/>
<path d="M12 33C11.6044 33 11.2178 33.1173 10.8889 33.3371C10.56 33.5568 10.3036 33.8692 10.1522 34.2346C10.0009 34.6001 9.96126 35.0022 10.0384 35.3902C10.1156 35.7781 10.3061 36.1345 10.5858 36.4142C10.8655 36.6939 11.2219 36.8844 11.6098 36.9616C11.9978 37.0387 12.3999 36.9991 12.7654 36.8478C13.1308 36.6964 13.4432 36.44 13.6629 36.1111C13.8827 35.7822 14 35.3956 14 35C14 34.4696 13.7893 33.9609 13.4142 33.5858C13.0391 33.2107 12.5304 33 12 33ZM12 35.8571C11.8305 35.8571 11.6648 35.8069 11.5238 35.7127C11.3828 35.6185 11.273 35.4846 11.2081 35.328C11.1432 35.1714 11.1263 34.999 11.1593 34.8328C11.1924 34.6665 11.274 34.5138 11.3939 34.3939C11.5138 34.274 11.6665 34.1924 11.8328 34.1593C11.999 34.1263 12.1714 34.1432 12.328 34.2081C12.4846 34.273 12.6185 34.3828 12.7127 34.5238C12.8069 34.6648 12.8571 34.8305 12.8571 35C12.8571 35.2273 12.7668 35.4453 12.6061 35.6061C12.4453 35.7668 12.2273 35.8571 12 35.8571Z" fill="#238582"/>
</svg>
