<svg width="22" height="22" viewBox="0 0 22 22" fill="none" xmlns="http://www.w3.org/2000/svg">
<path d="M10.9991 0.655273C5.28547 0.655273 0.654297 5.28645 0.654297 11.0001C0.654297 16.7138 5.28547 21.3449 10.9991 21.3449C16.7128 21.3449 21.344 16.7138 21.344 11.0001C21.344 5.28645 16.7128 0.655273 10.9991 0.655273ZM16.3784 11.8277H11.8267V16.3794C11.8267 16.5989 11.7395 16.8094 11.5843 16.9646C11.4291 17.1198 11.2186 17.207 10.9991 17.207C10.7796 17.207 10.5691 17.1198 10.4139 16.9646C10.2587 16.8094 10.1715 16.5989 10.1715 16.3794V11.8277H5.61981C5.40032 11.8277 5.18983 11.7405 5.03462 11.5853C4.87942 11.4301 4.79223 11.2196 4.79223 11.0001C4.79223 10.7806 4.87942 10.5701 5.03462 10.4149C5.18983 10.2597 5.40032 10.1725 5.61981 10.1725H10.1715V5.62079C10.1715 5.4013 10.2587 5.1908 10.4139 5.0356C10.5691 4.8804 10.7796 4.7932 10.9991 4.7932C11.2186 4.7932 11.4291 4.8804 11.5843 5.0356C11.7395 5.1908 11.8267 5.4013 11.8267 5.62079V10.1725H16.3784C16.5979 10.1725 16.8084 10.2597 16.9636 10.4149C17.1188 10.5701 17.206 10.7806 17.206 11.0001C17.206 11.2196 17.1188 11.4301 16.9636 11.5853C16.8084 11.7405 16.5979 11.8277 16.3784 11.8277Z" fill="#0EA980"/>
</svg>
