<svg width="54" height="55" viewBox="0 0 54 55" fill="none" xmlns="http://www.w3.org/2000/svg">
  <path
    d="M44.9754 10.8687C44.3392 10.8687 43.9858 10.5713 43.6417 10.2341C42.9758 9.5821 42.9645 8.51369 43.6165 7.84775C44.2686 7.18181 45.337 7.17053 46.0029 7.82254C46.063 7.8814 46.1218 7.94025 46.1808 8.00037C47.2277 9.06909 46.4589 10.8687 44.9754 10.8687Z"
    fill="#3D518E" />
  <path
    d="M27.0003 54.0036C12.0779 54.0036 0 41.9278 0 27.0033C0 18.4298 4.0105 10.6731 10.4439 5.67364C19.7504 -1.56044 32.1473 -1.65368 41.3449 4.1245C42.134 4.62031 42.3719 5.66193 41.8761 6.45117C41.3804 7.24029 40.3386 7.47813 39.5495 6.98242C23.8165 -2.90139 3.37504 8.488 3.37504 27.0033C3.37504 40.0303 13.9733 50.6285 27.0003 50.6285C39.8219 50.6285 50.6256 40.2343 50.6256 27.0033C50.6256 22.52 49.3651 18.1583 46.9804 14.3894C46.482 13.6018 46.7165 12.5594 47.504 12.061C48.2916 11.5627 49.3341 11.7972 49.8324 12.5848C57.6009 24.8621 54.3145 41.5352 41.597 49.7219C37.2454 52.523 32.198 54.0036 27.0003 54.0036Z"
    fill="#3D518E" />
  <path
    d="M39.9831 13.8266C39.9831 12.8186 39.1641 12 38.1565 12H18.1249C17.1169 12 16.2983 12.819 16.2983 13.8266C16.2983 14.8345 17.1173 15.6531 18.1249 15.6531H24.4241C27.3848 15.6531 29.9044 17.6058 30.7234 20.2515L18.0619 20.2519C17.0539 20.2519 16.2353 21.071 16.2353 22.0785C16.2353 23.0865 17.0543 23.905 18.0619 23.905L30.9124 23.9055C30.2194 26.8034 27.5738 28.945 24.487 28.945H17.8727C17.1169 28.945 16.4868 29.3862 16.1717 30.0158C15.8567 30.7088 15.9828 31.4646 16.4868 31.9685L27.1327 43.4332C27.5106 43.8111 27.9517 44 28.4557 44C28.8969 44 29.3376 43.8111 29.7155 43.496C30.4713 42.8031 30.4713 41.6694 29.8416 40.9132L22.0932 32.5984H24.4238C29.5894 32.5984 33.8098 28.8186 34.6285 23.9053H38.156C39.1639 23.9053 39.9825 23.0862 39.9825 22.0787C39.9825 21.0707 39.1635 20.2521 38.156 20.2521H34.5651C34.1873 18.5512 33.4315 16.9764 32.2974 15.6538H38.1555C39.1644 15.6538 39.983 14.8348 39.983 13.8268L39.9831 13.8266Z"
    fill="#238582" />
</svg>