<svg width="38" height="38" viewBox="0 0 38 38" fill="none" xmlns="http://www.w3.org/2000/svg">
<path d="M31.6497 7.64748C31.202 7.64748 30.9534 7.43819 30.7112 7.20093C30.2426 6.74213 30.2347 5.99034 30.6935 5.52174C31.1524 5.05315 31.9042 5.04521 32.3728 5.50401C32.4151 5.54542 32.4565 5.58683 32.498 5.62913C33.2347 6.38115 32.6937 7.64748 31.6497 7.64748Z" fill="#3D518E"/>
<path d="M19.0002 38C8.49926 38 0 29.5028 0 19.001C0 12.9683 2.8222 7.51022 7.34938 3.9923C13.8984 -1.09801 22.6221 -1.16362 29.0945 2.90223C29.6499 3.25112 29.8173 3.98406 29.4684 4.53941C29.1196 5.09468 28.3864 5.26204 27.8311 4.91323C16.7598 -2.04158 2.37503 5.97264 2.37503 19.001C2.37503 28.1676 9.83306 35.6251 19.0002 35.6251C28.0228 35.6251 35.6254 28.3111 35.6254 19.001C35.6254 15.8464 34.7384 12.7772 33.0602 10.1252C32.7096 9.57102 32.8745 8.83748 33.4287 8.48681C33.9829 8.13615 34.7166 8.3012 35.0672 8.85536C40.5339 17.4944 38.2213 29.2266 29.2719 34.9872C26.2097 36.9582 22.6578 38 19.0002 38Z" fill="#3D518E"/>
<path d="M27.3341 9.66757C27.3341 8.99199 26.7851 8.44336 26.1098 8.44336H12.6831C12.0075 8.44336 11.4588 8.9923 11.4588 9.66757C11.4588 10.3432 12.0078 10.8918 12.6831 10.8918H16.9054C18.8898 10.8918 20.5786 12.2005 21.1276 13.9737L12.6409 13.974C11.9653 13.974 11.4166 14.523 11.4166 15.1982C11.4166 15.8738 11.9656 16.4224 12.6409 16.4224L21.2542 16.4227C20.7898 18.365 19.0165 19.8004 16.9475 19.8004H12.5141C12.0075 19.8004 11.5852 20.096 11.374 20.5181C11.1629 20.9825 11.2474 21.489 11.5852 21.8268L18.7208 29.5107C18.9741 29.764 19.2698 29.8906 19.6076 29.8906C19.9033 29.8906 20.1987 29.764 20.452 29.5528C20.9586 29.0884 20.9586 28.3286 20.5365 27.8218L15.343 22.249H16.9051C20.3675 22.249 23.1963 19.7156 23.7451 16.4226H26.1094C26.785 16.4226 27.3337 15.8737 27.3337 15.1984C27.3337 14.5228 26.7847 13.9742 26.1094 13.9742H23.7026C23.4493 12.8342 22.9428 11.7787 22.1826 10.8922H26.1091C26.7853 10.8922 27.334 10.3433 27.334 9.66772L27.3341 9.66757Z" fill="#238582"/>
</svg>
