<svg width="24" height="24" viewBox="0 0 24 24" fill="none" xmlns="http://www.w3.org/2000/svg">
                          <path
                            d="M11.9996 2.49377C17.2496 2.49377 21.5059 6.75002 21.5059 12C21.5059 17.25 17.2496 21.5063 11.9996 21.5063C6.74961 21.5063 2.49336 17.25 2.49336 12C2.49336 6.75002 6.74961 2.49377 11.9996 2.49377ZM11.9996 20.6063C16.7434 20.6063 20.6059 16.7438 20.6059 12C20.6059 7.25627 16.7434 3.39377 11.9996 3.39377C7.25586 3.39377 3.39336 7.25627 3.39336 12C3.39336 16.7438 7.25586 20.6063 11.9996 20.6063Z"
                            fill="#0EA980" />
                          <path
                            d="M7.48164 11.55H15.4316L12.5816 8.69998C12.4129 8.53123 12.4129 8.23123 12.5816 8.06248C12.7504 7.89373 13.0504 7.89373 13.2191 8.06248L16.8566 11.6812C16.8941 11.7187 16.9316 11.775 16.9504 11.8312C16.9879 11.9437 16.9879 12.075 16.9504 12.1687C16.9316 12.225 16.8941 12.2812 16.8566 12.3187L13.2191 15.9375C13.1254 16.0312 13.0129 16.0687 12.9004 16.0687C12.7879 16.0687 12.6754 16.0312 12.5816 15.9375C12.4129 15.7687 12.4129 15.4687 12.5816 15.3L15.4316 12.45H7.46289C7.21914 12.45 7.01289 12.2437 7.01289 12C7.01289 11.7562 7.21914 11.55 7.48164 11.55Z"
                            fill="#0EA980" />
                        </svg>