<svg width="54" height="55" viewBox="0 0 54 55" fill="none" xmlns="http://www.w3.org/2000/svg">
<path d="M44.9754 10.8687C44.3392 10.8687 43.9858 10.5713 43.6417 10.2341C42.9758 9.5821 42.9645 8.51369 43.6165 7.84775C44.2686 7.18181 45.337 7.17053 46.0029 7.82254C46.063 7.8814 46.1218 7.94025 46.1808 8.00037C47.2277 9.06909 46.4589 10.8687 44.9754 10.8687Z" fill="#3D518E"/>
<path d="M38.9166 12.8028L10.2876 25.4332C8.96433 26.017 8.94654 27.8962 10.2616 28.5031L20.6447 33.2953L25.4369 43.6783C26.0428 44.9914 27.9221 44.9775 28.5067 43.6523L41.1371 15.0233C41.7565 13.6196 40.32 12.1835 38.9166 12.8028ZM26.9313 38.8789L23.9349 32.3867L26.4727 29.849C27.1303 29.1913 27.1303 28.125 26.4727 27.4674C25.8149 26.8096 24.7487 26.8096 24.091 27.4674L21.5532 30.0051L15.0609 27.0088L36.3025 17.6375L26.9313 38.8789Z" fill="#238582"/>
<path d="M27.0003 54.0036C12.0779 54.0036 0 41.9278 0 27.0033C0 18.4298 4.0105 10.6731 10.4439 5.67364C19.7504 -1.56044 32.1473 -1.65368 41.3449 4.1245C42.134 4.62031 42.3719 5.66193 41.8761 6.45117C41.3804 7.24029 40.3386 7.47813 39.5495 6.98242C23.8165 -2.90138 3.37504 8.488 3.37504 27.0033C3.37504 40.0303 13.9733 50.6285 27.0003 50.6285C39.8219 50.6285 50.6256 40.2343 50.6256 27.0033C50.6256 22.52 49.3651 18.1583 46.9804 14.3894C46.482 13.6018 46.7165 12.5594 47.504 12.061C48.2916 11.5627 49.3341 11.7972 49.8324 12.5848C57.6009 24.8621 54.3145 41.5352 41.597 49.7219C37.2454 52.523 32.198 54.0036 27.0003 54.0036Z" fill="#3D518E"/>
</svg>
