<svg width="42" height="35" viewBox="0 0 42 35" fill="none" xmlns="http://www.w3.org/2000/svg">
<path d="M16.1111 25H3.66667C2.19644 25 1 24.0499 1 22.8824V3.11765C1 1.95012 2.19644 1 3.66667 1H30.3333C31.8036 1 33 1.95012 33 3.11765V15.8235C33 16.2132 32.6018 16.5294 32.1111 16.5294C31.6204 16.5294 31.2222 16.2132 31.2222 15.8235V3.11765C31.2222 2.728 30.8222 2.41176 30.3333 2.41176H3.66667C3.17778 2.41176 2.77778 2.728 2.77778 3.11765V22.8824C2.77778 23.272 3.17778 23.5882 3.66667 23.5882H16.1111C16.6018 23.5882 17 23.9045 17 24.2941C17 24.6838 16.6018 25 16.1111 25Z" fill="#3D518E" stroke="#3D518E"/>
<path d="M33.1156 25.1576C32.9449 25.1576 32.7743 25.0923 32.6436 24.9629L29.8155 22.1348C29.5555 21.8735 29.1315 21.8761 28.8714 22.1348C28.6128 22.3948 28.6128 22.8175 28.8714 23.0788C29.1315 23.3389 29.1315 23.7615 28.8714 24.0215C28.6114 24.2802 28.1888 24.2816 27.9287 24.0202C27.1501 23.2415 27.1501 21.9721 27.9287 21.1934C28.7048 20.4121 29.9768 20.4121 30.7582 21.1934L33.5863 24.0215C33.8463 24.2816 33.8463 24.7042 33.5863 24.9642C33.4569 25.0923 33.2863 25.1576 33.1156 25.1576V25.1576Z" fill="#238582" stroke="#238582" stroke-width="0.8"/>
<path d="M35.0007 23.2719C34.83 23.2719 34.6593 23.2065 34.5287 23.0772L32.6433 21.1918C32.3833 20.9318 31.9606 20.9318 31.7006 21.1918C31.4406 21.4518 31.4406 21.8745 31.7006 22.1345C31.9606 22.3945 31.9606 22.8172 31.7006 23.0772C31.4406 23.3372 31.0179 23.3372 30.7579 23.0772C29.9778 22.2972 29.9778 21.0291 30.7579 20.2491C31.5366 19.4691 32.8073 19.4691 33.586 20.2491L35.4714 22.1345C35.7314 22.3945 35.7314 22.8172 35.4714 23.0772C35.342 23.2065 35.1714 23.2719 35.0007 23.2719V23.2719Z" fill="#238582" stroke="#238582" stroke-width="0.8"/>
<path d="M33.3653 33.9993C32.8746 33.9993 32.3799 33.9393 31.8932 33.8153L27.2451 32.6299C27.0717 32.5859 26.9237 32.4739 26.8331 32.3206C26.5157 31.7766 26.1877 30.4752 27.2211 29.4418C27.6798 28.9831 28.2984 28.8045 28.9011 28.7644L23.2143 23.0776C22.8369 22.7002 22.6289 22.1975 22.6289 21.6629C22.6289 21.1282 22.8369 20.6268 23.2143 20.2481C23.993 19.4681 25.2637 19.4681 26.0424 20.2481L31.6999 25.9057C31.9599 26.1657 31.9599 26.5884 31.6999 26.8484C31.4399 27.1084 31.0172 27.1084 30.7572 26.8484L25.0997 21.1908C24.8397 20.9322 24.417 20.9308 24.157 21.1908C23.897 21.4508 23.897 21.8735 24.157 22.1335L31.2292 29.2045C31.4479 29.4231 31.4866 29.7618 31.3252 30.0245C31.1626 30.2872 30.8439 30.4045 30.5479 30.3085C29.9798 30.1205 28.6491 29.8938 28.1638 30.3832C27.7904 30.7565 27.8211 31.1699 27.8918 31.4179L32.2239 32.5233C33.804 32.9286 35.5174 32.4606 36.6761 31.3005L38.3001 29.6765C39.1828 28.7938 39.6682 27.6217 39.6682 26.375C39.6682 25.1283 39.1828 23.9576 38.3015 23.0749L35.4734 20.2455C35.2134 19.9868 34.7907 19.9855 34.5307 20.2455C34.404 20.3721 34.3347 20.5388 34.3347 20.7175C34.3347 20.8962 34.4053 21.0628 34.5307 21.1882C34.7907 21.4482 34.7907 21.8709 34.5307 22.1322C34.2707 22.3922 33.848 22.3922 33.588 22.1322C33.2093 21.7535 33.0013 21.2508 33.0013 20.7175C33.0013 20.1841 33.2093 19.6815 33.588 19.3028C34.3667 18.5241 35.6347 18.5241 36.4161 19.3028L39.2442 22.1322C40.3776 23.2656 41.0016 24.7736 41.0016 26.375C41.0016 27.9778 40.3776 29.4858 39.2442 30.6178L37.6201 32.2419C36.4841 33.3793 34.94 33.9993 33.3653 33.9993V33.9993Z" fill="#238582" stroke="#238582" stroke-width="0.8"/>
<mask id="path-5-outside-1_218_6443" maskUnits="userSpaceOnUse" x="5" y="8" width="22" height="10" fill="black">
<rect fill="white" x="5" y="8" width="22" height="10"/>
<path d="M8.75608 17C8.24132 17 7.78377 16.9259 7.3834 16.7778C6.98304 16.6296 6.60055 16.3852 6.23593 16.0444C6.15729 15.9852 6.09652 15.9148 6.05362 15.8333C6.01787 15.7444 6 15.6556 6 15.5667C6 15.4259 6.05005 15.3 6.15014 15.1889C6.25023 15.0778 6.37534 15.0222 6.52548 15.0222C6.63987 15.0222 6.74711 15.063 6.8472 15.1444C7.11887 15.4037 7.40127 15.6 7.6944 15.7333C7.99467 15.8667 8.34499 15.9333 8.74535 15.9333C9.03133 15.9333 9.29228 15.8852 9.52821 15.7889C9.77129 15.6926 9.96432 15.563 10.1073 15.4C10.2503 15.237 10.3218 15.0481 10.3218 14.8333C10.3218 14.5667 10.2467 14.3481 10.0966 14.1778C9.9536 14 9.74269 13.8556 9.46387 13.7444C9.19219 13.6259 8.86332 13.5259 8.47725 13.4444C8.11979 13.3778 7.79806 13.2852 7.51209 13.1667C7.23326 13.0481 6.99376 12.9 6.79358 12.7222C6.5934 12.537 6.43969 12.3185 6.33245 12.0667C6.2252 11.8148 6.17158 11.5222 6.17158 11.1889C6.17158 10.737 6.28597 10.3481 6.51475 10.0222C6.74353 9.6963 7.05453 9.44444 7.44775 9.26667C7.84096 9.08889 8.28422 9 8.77753 9C9.22794 9 9.64975 9.07407 10.043 9.22222C10.4362 9.36296 10.7543 9.55556 10.9974 9.8C11.169 9.95556 11.2548 10.1222 11.2548 10.3C11.2548 10.4333 11.2012 10.5593 11.0939 10.6778C10.9938 10.7889 10.8759 10.8444 10.74 10.8444C10.6399 10.8444 10.5541 10.8148 10.4826 10.7556C10.3683 10.6296 10.2145 10.5185 10.0215 10.4222C9.82848 10.3185 9.62115 10.2333 9.39952 10.1667C9.18504 10.1 8.97771 10.0667 8.77753 10.0667C8.45581 10.0667 8.18056 10.1148 7.95178 10.2111C7.723 10.3 7.54784 10.4259 7.4263 10.5889C7.30476 10.7444 7.24399 10.9296 7.24399 11.1444C7.24399 11.3963 7.31191 11.6037 7.44775 11.7667C7.59073 11.9296 7.78734 12.063 8.03757 12.1667C8.2878 12.263 8.57377 12.3519 8.89549 12.4333C9.28871 12.5222 9.63902 12.6222 9.94645 12.7333C10.261 12.8444 10.5255 12.9889 10.74 13.1667C10.9545 13.337 11.1189 13.5519 11.2333 13.8111C11.3477 14.0704 11.4049 14.3926 11.4049 14.7778C11.4049 15.2222 11.2834 15.6111 11.0403 15.9444C10.7972 16.2778 10.4755 16.537 10.0751 16.7222C9.68192 16.9074 9.24223 17 8.75608 17Z"/>
<path d="M18.0534 9.1C18.2107 9.1 18.3358 9.15556 18.4287 9.26667C18.5217 9.37037 18.5682 9.5037 18.5682 9.66667V13.8778C18.5682 14.4704 18.443 15 18.1928 15.4667C17.9426 15.9333 17.5994 16.3 17.1633 16.5667C16.7272 16.8259 16.2232 16.9556 15.6512 16.9556C15.0864 16.9556 14.5824 16.8259 14.1391 16.5667C13.703 16.3 13.3563 15.9333 13.0989 15.4667C12.8487 15 12.7236 14.4704 12.7236 13.8778V9.66667C12.7236 9.5037 12.7772 9.37037 12.8844 9.26667C12.9917 9.15556 13.1311 9.1 13.3027 9.1C13.4385 9.1 13.56 9.15556 13.6673 9.26667C13.7817 9.37037 13.8389 9.5037 13.8389 9.66667V13.8778C13.8389 14.2704 13.9211 14.6148 14.0855 14.9111C14.2571 15.2 14.4823 15.4296 14.7611 15.6C15.0399 15.763 15.3366 15.8444 15.6512 15.8444C15.9944 15.8444 16.309 15.763 16.5949 15.6C16.8809 15.4296 17.1097 15.2 17.2813 14.9111C17.46 14.6148 17.5494 14.2704 17.5494 13.8778V9.66667C17.5494 9.5037 17.5923 9.37037 17.6781 9.26667C17.771 9.15556 17.8961 9.1 18.0534 9.1Z"/>
<path d="M23.6085 9.11111C24.2663 9.11111 24.7632 9.27778 25.0992 9.61111C25.4423 9.94444 25.6139 10.4296 25.6139 11.0667C25.6139 11.4 25.5353 11.7037 25.378 11.9778C25.2279 12.2444 25.0027 12.4556 24.7024 12.6111C24.4093 12.7667 24.0411 12.8481 23.5978 12.8556L23.6193 12.4444C23.8552 12.4444 24.109 12.4778 24.3807 12.5444C24.6595 12.6111 24.9204 12.7259 25.1635 12.8889C25.4066 13.0519 25.6068 13.2741 25.7641 13.5556C25.9214 13.8296 26 14.1741 26 14.5889C26 15.0407 25.9285 15.4185 25.7855 15.7222C25.6425 16.0185 25.4531 16.2519 25.2171 16.4222C24.9812 16.5926 24.7203 16.7148 24.4343 16.7889C24.1555 16.8556 23.8802 16.8889 23.6085 16.8889H20.8632C20.713 16.8889 20.5844 16.837 20.4771 16.7333C20.3699 16.6222 20.3163 16.4852 20.3163 16.3222V9.67778C20.3163 9.51482 20.3699 9.38148 20.4771 9.27778C20.5844 9.16667 20.713 9.11111 20.8632 9.11111H23.6085ZM23.4584 10.2H21.3458L21.4745 10.0222V12.4111L21.3565 12.2889H23.4798C23.7372 12.2815 23.9624 12.1926 24.1555 12.0222C24.3556 11.8444 24.4557 11.5852 24.4557 11.2444C24.4557 10.8963 24.3664 10.637 24.1876 10.4667C24.0089 10.2889 23.7658 10.2 23.4584 10.2ZM23.5335 13.3778H21.3994L21.4745 13.3V15.9222L21.3887 15.8222H23.5978C23.9696 15.8222 24.2699 15.7222 24.4986 15.5222C24.7274 15.3148 24.8418 15.0037 24.8418 14.5889C24.8418 14.2407 24.7739 13.9815 24.638 13.8111C24.5022 13.6407 24.3342 13.5259 24.134 13.4667C23.9338 13.4074 23.7337 13.3778 23.5335 13.3778Z"/>
</mask>
<path d="M8.75608 17C8.24132 17 7.78377 16.9259 7.3834 16.7778C6.98304 16.6296 6.60055 16.3852 6.23593 16.0444C6.15729 15.9852 6.09652 15.9148 6.05362 15.8333C6.01787 15.7444 6 15.6556 6 15.5667C6 15.4259 6.05005 15.3 6.15014 15.1889C6.25023 15.0778 6.37534 15.0222 6.52548 15.0222C6.63987 15.0222 6.74711 15.063 6.8472 15.1444C7.11887 15.4037 7.40127 15.6 7.6944 15.7333C7.99467 15.8667 8.34499 15.9333 8.74535 15.9333C9.03133 15.9333 9.29228 15.8852 9.52821 15.7889C9.77129 15.6926 9.96432 15.563 10.1073 15.4C10.2503 15.237 10.3218 15.0481 10.3218 14.8333C10.3218 14.5667 10.2467 14.3481 10.0966 14.1778C9.9536 14 9.74269 13.8556 9.46387 13.7444C9.19219 13.6259 8.86332 13.5259 8.47725 13.4444C8.11979 13.3778 7.79806 13.2852 7.51209 13.1667C7.23326 13.0481 6.99376 12.9 6.79358 12.7222C6.5934 12.537 6.43969 12.3185 6.33245 12.0667C6.2252 11.8148 6.17158 11.5222 6.17158 11.1889C6.17158 10.737 6.28597 10.3481 6.51475 10.0222C6.74353 9.6963 7.05453 9.44444 7.44775 9.26667C7.84096 9.08889 8.28422 9 8.77753 9C9.22794 9 9.64975 9.07407 10.043 9.22222C10.4362 9.36296 10.7543 9.55556 10.9974 9.8C11.169 9.95556 11.2548 10.1222 11.2548 10.3C11.2548 10.4333 11.2012 10.5593 11.0939 10.6778C10.9938 10.7889 10.8759 10.8444 10.74 10.8444C10.6399 10.8444 10.5541 10.8148 10.4826 10.7556C10.3683 10.6296 10.2145 10.5185 10.0215 10.4222C9.82848 10.3185 9.62115 10.2333 9.39952 10.1667C9.18504 10.1 8.97771 10.0667 8.77753 10.0667C8.45581 10.0667 8.18056 10.1148 7.95178 10.2111C7.723 10.3 7.54784 10.4259 7.4263 10.5889C7.30476 10.7444 7.24399 10.9296 7.24399 11.1444C7.24399 11.3963 7.31191 11.6037 7.44775 11.7667C7.59073 11.9296 7.78734 12.063 8.03757 12.1667C8.2878 12.263 8.57377 12.3519 8.89549 12.4333C9.28871 12.5222 9.63902 12.6222 9.94645 12.7333C10.261 12.8444 10.5255 12.9889 10.74 13.1667C10.9545 13.337 11.1189 13.5519 11.2333 13.8111C11.3477 14.0704 11.4049 14.3926 11.4049 14.7778C11.4049 15.2222 11.2834 15.6111 11.0403 15.9444C10.7972 16.2778 10.4755 16.537 10.0751 16.7222C9.68192 16.9074 9.24223 17 8.75608 17Z" fill="#238582"/>
<path d="M18.0534 9.1C18.2107 9.1 18.3358 9.15556 18.4287 9.26667C18.5217 9.37037 18.5682 9.5037 18.5682 9.66667V13.8778C18.5682 14.4704 18.443 15 18.1928 15.4667C17.9426 15.9333 17.5994 16.3 17.1633 16.5667C16.7272 16.8259 16.2232 16.9556 15.6512 16.9556C15.0864 16.9556 14.5824 16.8259 14.1391 16.5667C13.703 16.3 13.3563 15.9333 13.0989 15.4667C12.8487 15 12.7236 14.4704 12.7236 13.8778V9.66667C12.7236 9.5037 12.7772 9.37037 12.8844 9.26667C12.9917 9.15556 13.1311 9.1 13.3027 9.1C13.4385 9.1 13.56 9.15556 13.6673 9.26667C13.7817 9.37037 13.8389 9.5037 13.8389 9.66667V13.8778C13.8389 14.2704 13.9211 14.6148 14.0855 14.9111C14.2571 15.2 14.4823 15.4296 14.7611 15.6C15.0399 15.763 15.3366 15.8444 15.6512 15.8444C15.9944 15.8444 16.309 15.763 16.5949 15.6C16.8809 15.4296 17.1097 15.2 17.2813 14.9111C17.46 14.6148 17.5494 14.2704 17.5494 13.8778V9.66667C17.5494 9.5037 17.5923 9.37037 17.6781 9.26667C17.771 9.15556 17.8961 9.1 18.0534 9.1Z" fill="#238582"/>
<path d="M23.6085 9.11111C24.2663 9.11111 24.7632 9.27778 25.0992 9.61111C25.4423 9.94444 25.6139 10.4296 25.6139 11.0667C25.6139 11.4 25.5353 11.7037 25.378 11.9778C25.2279 12.2444 25.0027 12.4556 24.7024 12.6111C24.4093 12.7667 24.0411 12.8481 23.5978 12.8556L23.6193 12.4444C23.8552 12.4444 24.109 12.4778 24.3807 12.5444C24.6595 12.6111 24.9204 12.7259 25.1635 12.8889C25.4066 13.0519 25.6068 13.2741 25.7641 13.5556C25.9214 13.8296 26 14.1741 26 14.5889C26 15.0407 25.9285 15.4185 25.7855 15.7222C25.6425 16.0185 25.4531 16.2519 25.2171 16.4222C24.9812 16.5926 24.7203 16.7148 24.4343 16.7889C24.1555 16.8556 23.8802 16.8889 23.6085 16.8889H20.8632C20.713 16.8889 20.5844 16.837 20.4771 16.7333C20.3699 16.6222 20.3163 16.4852 20.3163 16.3222V9.67778C20.3163 9.51482 20.3699 9.38148 20.4771 9.27778C20.5844 9.16667 20.713 9.11111 20.8632 9.11111H23.6085ZM23.4584 10.2H21.3458L21.4745 10.0222V12.4111L21.3565 12.2889H23.4798C23.7372 12.2815 23.9624 12.1926 24.1555 12.0222C24.3556 11.8444 24.4557 11.5852 24.4557 11.2444C24.4557 10.8963 24.3664 10.637 24.1876 10.4667C24.0089 10.2889 23.7658 10.2 23.4584 10.2ZM23.5335 13.3778H21.3994L21.4745 13.3V15.9222L21.3887 15.8222H23.5978C23.9696 15.8222 24.2699 15.7222 24.4986 15.5222C24.7274 15.3148 24.8418 15.0037 24.8418 14.5889C24.8418 14.2407 24.7739 13.9815 24.638 13.8111C24.5022 13.6407 24.3342 13.5259 24.134 13.4667C23.9338 13.4074 23.7337 13.3778 23.5335 13.3778Z" fill="#238582"/>
<path d="M8.75608 17C8.24132 17 7.78377 16.9259 7.3834 16.7778C6.98304 16.6296 6.60055 16.3852 6.23593 16.0444C6.15729 15.9852 6.09652 15.9148 6.05362 15.8333C6.01787 15.7444 6 15.6556 6 15.5667C6 15.4259 6.05005 15.3 6.15014 15.1889C6.25023 15.0778 6.37534 15.0222 6.52548 15.0222C6.63987 15.0222 6.74711 15.063 6.8472 15.1444C7.11887 15.4037 7.40127 15.6 7.6944 15.7333C7.99467 15.8667 8.34499 15.9333 8.74535 15.9333C9.03133 15.9333 9.29228 15.8852 9.52821 15.7889C9.77129 15.6926 9.96432 15.563 10.1073 15.4C10.2503 15.237 10.3218 15.0481 10.3218 14.8333C10.3218 14.5667 10.2467 14.3481 10.0966 14.1778C9.9536 14 9.74269 13.8556 9.46387 13.7444C9.19219 13.6259 8.86332 13.5259 8.47725 13.4444C8.11979 13.3778 7.79806 13.2852 7.51209 13.1667C7.23326 13.0481 6.99376 12.9 6.79358 12.7222C6.5934 12.537 6.43969 12.3185 6.33245 12.0667C6.2252 11.8148 6.17158 11.5222 6.17158 11.1889C6.17158 10.737 6.28597 10.3481 6.51475 10.0222C6.74353 9.6963 7.05453 9.44444 7.44775 9.26667C7.84096 9.08889 8.28422 9 8.77753 9C9.22794 9 9.64975 9.07407 10.043 9.22222C10.4362 9.36296 10.7543 9.55556 10.9974 9.8C11.169 9.95556 11.2548 10.1222 11.2548 10.3C11.2548 10.4333 11.2012 10.5593 11.0939 10.6778C10.9938 10.7889 10.8759 10.8444 10.74 10.8444C10.6399 10.8444 10.5541 10.8148 10.4826 10.7556C10.3683 10.6296 10.2145 10.5185 10.0215 10.4222C9.82848 10.3185 9.62115 10.2333 9.39952 10.1667C9.18504 10.1 8.97771 10.0667 8.77753 10.0667C8.45581 10.0667 8.18056 10.1148 7.95178 10.2111C7.723 10.3 7.54784 10.4259 7.4263 10.5889C7.30476 10.7444 7.24399 10.9296 7.24399 11.1444C7.24399 11.3963 7.31191 11.6037 7.44775 11.7667C7.59073 11.9296 7.78734 12.063 8.03757 12.1667C8.2878 12.263 8.57377 12.3519 8.89549 12.4333C9.28871 12.5222 9.63902 12.6222 9.94645 12.7333C10.261 12.8444 10.5255 12.9889 10.74 13.1667C10.9545 13.337 11.1189 13.5519 11.2333 13.8111C11.3477 14.0704 11.4049 14.3926 11.4049 14.7778C11.4049 15.2222 11.2834 15.6111 11.0403 15.9444C10.7972 16.2778 10.4755 16.537 10.0751 16.7222C9.68192 16.9074 9.24223 17 8.75608 17Z" stroke="#238582" stroke-width="0.4" mask="url(#path-5-outside-1_218_6443)"/>
<path d="M18.0534 9.1C18.2107 9.1 18.3358 9.15556 18.4287 9.26667C18.5217 9.37037 18.5682 9.5037 18.5682 9.66667V13.8778C18.5682 14.4704 18.443 15 18.1928 15.4667C17.9426 15.9333 17.5994 16.3 17.1633 16.5667C16.7272 16.8259 16.2232 16.9556 15.6512 16.9556C15.0864 16.9556 14.5824 16.8259 14.1391 16.5667C13.703 16.3 13.3563 15.9333 13.0989 15.4667C12.8487 15 12.7236 14.4704 12.7236 13.8778V9.66667C12.7236 9.5037 12.7772 9.37037 12.8844 9.26667C12.9917 9.15556 13.1311 9.1 13.3027 9.1C13.4385 9.1 13.56 9.15556 13.6673 9.26667C13.7817 9.37037 13.8389 9.5037 13.8389 9.66667V13.8778C13.8389 14.2704 13.9211 14.6148 14.0855 14.9111C14.2571 15.2 14.4823 15.4296 14.7611 15.6C15.0399 15.763 15.3366 15.8444 15.6512 15.8444C15.9944 15.8444 16.309 15.763 16.5949 15.6C16.8809 15.4296 17.1097 15.2 17.2813 14.9111C17.46 14.6148 17.5494 14.2704 17.5494 13.8778V9.66667C17.5494 9.5037 17.5923 9.37037 17.6781 9.26667C17.771 9.15556 17.8961 9.1 18.0534 9.1Z" stroke="#238582" stroke-width="0.4" mask="url(#path-5-outside-1_218_6443)"/>
<path d="M23.6085 9.11111C24.2663 9.11111 24.7632 9.27778 25.0992 9.61111C25.4423 9.94444 25.6139 10.4296 25.6139 11.0667C25.6139 11.4 25.5353 11.7037 25.378 11.9778C25.2279 12.2444 25.0027 12.4556 24.7024 12.6111C24.4093 12.7667 24.0411 12.8481 23.5978 12.8556L23.6193 12.4444C23.8552 12.4444 24.109 12.4778 24.3807 12.5444C24.6595 12.6111 24.9204 12.7259 25.1635 12.8889C25.4066 13.0519 25.6068 13.2741 25.7641 13.5556C25.9214 13.8296 26 14.1741 26 14.5889C26 15.0407 25.9285 15.4185 25.7855 15.7222C25.6425 16.0185 25.4531 16.2519 25.2171 16.4222C24.9812 16.5926 24.7203 16.7148 24.4343 16.7889C24.1555 16.8556 23.8802 16.8889 23.6085 16.8889H20.8632C20.713 16.8889 20.5844 16.837 20.4771 16.7333C20.3699 16.6222 20.3163 16.4852 20.3163 16.3222V9.67778C20.3163 9.51482 20.3699 9.38148 20.4771 9.27778C20.5844 9.16667 20.713 9.11111 20.8632 9.11111H23.6085ZM23.4584 10.2H21.3458L21.4745 10.0222V12.4111L21.3565 12.2889H23.4798C23.7372 12.2815 23.9624 12.1926 24.1555 12.0222C24.3556 11.8444 24.4557 11.5852 24.4557 11.2444C24.4557 10.8963 24.3664 10.637 24.1876 10.4667C24.0089 10.2889 23.7658 10.2 23.4584 10.2ZM23.5335 13.3778H21.3994L21.4745 13.3V15.9222L21.3887 15.8222H23.5978C23.9696 15.8222 24.2699 15.7222 24.4986 15.5222C24.7274 15.3148 24.8418 15.0037 24.8418 14.5889C24.8418 14.2407 24.7739 13.9815 24.638 13.8111C24.5022 13.6407 24.3342 13.5259 24.134 13.4667C23.9338 13.4074 23.7337 13.3778 23.5335 13.3778Z" stroke="#238582" stroke-width="0.4" mask="url(#path-5-outside-1_218_6443)"/>
</svg>
