<svg width="60" height="60" viewBox="0 0 60 60" fill="none" xmlns="http://www.w3.org/2000/svg">
<path d="M49.9748 10.5761C49.2679 10.5761 48.8753 10.2457 48.4929 9.87102C47.753 9.14656 47.7405 7.95944 48.4649 7.21951C49.1895 6.47958 50.3766 6.46704 51.1165 7.1915C51.1833 7.25689 51.2486 7.32228 51.3142 7.38908C52.4774 8.57655 51.6232 10.5761 49.9748 10.5761V10.5761Z" fill="#3D518E"/>
<path d="M30.0004 60C13.4199 60 0 46.5833 0 30.0016C0 20.4762 4.45611 11.8582 11.6043 6.30363C21.9449 -1.73371 35.7192 -1.8373 45.9388 4.58247C46.8156 5.13334 47.0799 6.29062 46.529 7.16749C45.9782 8.04424 44.8207 8.30848 43.9438 7.75773C26.4628 -3.22355 3.75004 9.43049 3.75004 30.0016C3.75004 44.4751 15.5259 56.2502 30.0004 56.2502C44.2465 56.2502 56.2507 44.7018 56.2507 30.0016C56.2507 25.0206 54.8501 20.1746 52.2004 15.9871C51.6467 15.1121 51.9072 13.9539 52.7822 13.4002C53.6573 12.8466 54.8157 13.1072 55.3693 13.9822C64.001 27.6227 60.3495 46.1472 46.2188 55.2429C41.3837 58.355 35.7755 60 30.0004 60V60Z" fill="#3D518E"/>
<path d="M29.9996 52.107C25.6276 52.107 21.3537 50.8106 17.7185 48.3816C14.0833 45.9527 11.2501 42.5003 9.57696 38.4611C7.90386 34.4219 7.46611 29.9772 8.31904 25.6892C9.17198 21.4012 11.2773 17.4625 14.3688 14.371C17.4603 11.2795 21.399 9.17418 25.687 8.32124C29.975 7.4683 34.4197 7.90606 38.4589 9.57916C42.4981 11.2523 45.9505 14.0855 48.3794 17.7207C50.8084 21.3559 52.1048 25.6298 52.1048 30.0018C52.1048 35.8644 49.7759 41.487 45.6303 45.6325C41.4848 49.7781 35.8622 52.107 29.9996 52.107ZM29.9996 11.0544C26.2521 11.0544 22.5888 12.1656 19.473 14.2476C16.3571 16.3296 13.9286 19.2887 12.4945 22.7509C11.0604 26.2131 10.6852 30.0228 11.4163 33.6982C12.1473 37.3736 13.9519 40.7497 16.6017 43.3996C19.2516 46.0494 22.6277 47.854 26.3031 48.5851C29.9785 49.3161 33.7882 48.9409 37.2504 47.5068C40.7126 46.0728 43.6718 43.6442 45.7537 40.5284C47.8357 37.4125 48.9469 33.7492 48.9469 30.0018C48.9469 24.9766 46.9507 20.1573 43.3974 16.6039C39.8441 13.0506 35.0247 11.0544 29.9996 11.0544ZM27.8838 37.5018L42.0943 24.8702C43.0435 23.9073 41.2502 21.7517 40.0101 22.5018C38.7699 23.2518 26.8417 34.1544 26.8417 34.1544C26.8417 34.1544 20.6252 27.7517 20.068 27.3018C19.5107 26.8518 18.5122 27.103 18.0002 27.7517C17.5646 28.3037 17.6515 29.086 17.8259 29.5439C18.0002 30.0017 25.7206 37.4386 25.7206 37.4386C25.8682 37.5849 26.0431 37.7007 26.2355 37.7793C26.4279 37.8579 26.6339 37.8977 26.8417 37.8965C27.2255 37.8959 27.5959 37.7556 27.8838 37.5018Z" fill="#238582"/>
</svg>
