<svg width="16" height="15" viewBox="0 0 16 15" fill="none" xmlns="http://www.w3.org/2000/svg">
<g style="mix-blend-mode:luminosity">
<g style="mix-blend-mode:luminosity">
<path d="M13.1154 2.69863C12.4703 2.05912 11.703 1.55209 10.8579 1.20689C10.0128 0.86168 9.10662 0.685153 8.19183 0.687524V0.687524C6.99695 0.686954 5.82202 0.989474 4.78002 1.56599C3.73803 2.14251 2.86401 2.97364 2.24203 3.97945C1.62005 4.98525 1.27102 6.13191 1.22851 7.30915C1.18599 8.48639 1.45143 9.65461 1.99929 10.7015L0.832577 13.9982C0.798901 14.0939 0.788853 14.1961 0.803266 14.2964C0.817679 14.3966 0.856138 14.4921 0.915453 14.5748C0.974767 14.6575 1.05323 14.725 1.14433 14.7719C1.23542 14.8187 1.33653 14.8434 1.43927 14.844C1.51263 14.844 1.58545 14.8317 1.65466 14.8077L4.99863 13.6575C6.4753 14.4094 8.17603 14.6159 9.79362 14.2397C11.4112 13.8635 12.839 12.9294 13.8191 11.6061C14.7992 10.2828 15.2669 8.65763 15.1379 7.02408C15.0088 5.39053 14.2914 3.85634 13.1154 2.69863V2.69863ZM12.5194 11.8198C11.5923 12.7335 10.3923 13.3298 9.09582 13.5209C7.79935 13.712 6.47488 13.4879 5.31723 12.8816C5.23847 12.8403 5.15192 12.8154 5.06297 12.8086C4.97403 12.8017 4.88461 12.813 4.80029 12.8418L1.76325 13.8902L2.82676 10.8952C2.85605 10.812 2.86759 10.7237 2.86064 10.6358C2.85369 10.548 2.8284 10.4625 2.78637 10.3847C2.29068 9.46519 2.04477 8.43485 2.07254 7.39389C2.1003 6.35292 2.40081 5.33675 2.94483 4.44417C3.48886 3.55159 4.25789 2.81297 5.17716 2.30012C6.09644 1.78727 7.13468 1.51764 8.19093 1.51745V1.51745C9.40164 1.51751 10.5851 1.8715 11.5918 2.53464C12.5984 3.19779 13.383 4.14032 13.8463 5.24305C14.3096 6.34578 14.4308 7.55919 14.1947 8.72984C13.9585 9.9005 13.3755 10.9758 12.5194 11.8198V11.8198Z" fill="#707070"/>
</g>
<g style="mix-blend-mode:luminosity">
<path d="M10.7564 8.15838C10.6036 8.00829 10.3968 7.924 10.1811 7.924C9.96543 7.924 9.75857 8.00829 9.60583 8.15838L9.2585 8.50079C8.40063 8.04146 7.69614 7.34692 7.23022 6.50118L7.57753 6.15877C7.72978 6.00819 7.81527 5.80424 7.81527 5.59163C7.81527 5.37901 7.72978 5.17507 7.57753 5.02448L6.64238 4.10254C6.48963 3.95245 6.28276 3.86816 6.06709 3.86816C5.85143 3.86816 5.64457 3.95245 5.49182 4.10254L4.74333 4.84045C4.31523 5.26249 4.29459 5.99066 4.68319 6.88518C5.57334 8.68243 7.04686 10.1351 8.86989 11.0127C9.23635 11.1798 9.63308 11.2728 10.0366 11.2861C10.2032 11.2938 10.3696 11.2683 10.526 11.2111C10.6824 11.154 10.8254 11.0663 10.9466 10.9534L11.6951 10.2155C11.8476 10.065 11.9332 9.86103 11.9332 9.64835C11.9332 9.43566 11.8476 9.23168 11.6951 9.08121L10.7564 8.15838ZM10.3534 10.3703C10.2314 10.4907 9.85532 10.5331 9.19747 10.2553C7.57141 9.46092 6.25452 8.16266 5.44874 6.55958C5.16694 5.91104 5.21001 5.54031 5.33207 5.41998L6.0662 4.69623L6.97264 5.58986L6.53827 6.01809C6.44262 6.11189 6.37967 6.23323 6.35854 6.3646C6.3374 6.49596 6.35917 6.63055 6.42069 6.74892C6.98605 7.84727 7.89131 8.73972 9.00541 9.29709C9.12548 9.35774 9.262 9.3792 9.39525 9.35837C9.5285 9.33753 9.65158 9.27549 9.74673 9.18118L10.1811 8.75295L11.0875 9.64658L10.3534 10.3703Z" fill="#707070"/>
</g>
</g>
</svg>
