<svg width="34" height="34" viewBox="0 0 34 34" fill="none" xmlns="http://www.w3.org/2000/svg">
<path d="M4.64484 5.61475C5.04628 5.61475 5.37171 5.28912 5.37171 4.88745C5.37171 4.48578 5.04628 4.16016 4.64484 4.16016C4.2434 4.16016 3.91797 4.48578 3.91797 4.88745C3.91797 5.28912 4.2434 5.61475 4.64484 5.61475Z" fill="#238582"/>
<path d="M7.55109 5.61475C7.95253 5.61475 8.27796 5.28912 8.27796 4.88745C8.27796 4.48578 7.95253 4.16016 7.55109 4.16016C7.14965 4.16016 6.82422 4.48578 6.82422 4.88745C6.82422 5.28912 7.14965 5.61475 7.55109 5.61475Z" fill="#238582"/>
<path d="M10.4593 5.61475C10.8607 5.61475 11.1862 5.28912 11.1862 4.88745C11.1862 4.48578 10.8607 4.16016 10.4593 4.16016C10.0579 4.16016 9.73242 4.48578 9.73242 4.88745C9.73242 5.28912 10.0579 5.61475 10.4593 5.61475Z" fill="#238582"/>
<path d="M7.00617 14.7944H22.9968C23.3986 14.7944 23.7237 14.4691 23.7237 14.0671C23.7237 13.6651 23.3986 13.3398 22.9968 13.3398H7.00617C6.6044 13.3398 6.2793 13.6651 6.2793 14.0671C6.2793 14.4691 6.60447 14.7944 7.00617 14.7944Z" fill="#238582" stroke="#238582"/>
<path d="M6.7298 20.3598H17.7578C18.0349 20.3598 18.2591 20.0098 18.2591 19.5774C18.2591 19.1449 18.0349 18.7949 17.7578 18.7949H6.7298C6.45273 18.7949 6.22852 19.1449 6.22852 19.5774C6.22852 20.0098 6.45277 20.3598 6.7298 20.3598Z" fill="#238582" stroke="#238582"/>
<path d="M15.7283 24.3594H7.00617C6.6044 24.3594 6.2793 24.6847 6.2793 25.0867C6.2793 25.4887 6.6044 25.814 7.00617 25.814H15.7283C16.1301 25.814 16.4552 25.4887 16.4552 25.0867C16.4552 24.6847 16.1301 24.3594 15.7283 24.3594Z" fill="#238582" stroke="#238582"/>
<path d="M32.7987 15.9714C32.7987 15.9714 32.8407 9.73783 32.7987 9.73981V3.90911C32.7987 2.30473 31.4941 1 29.8913 1H3.7248C2.12203 1 0.817383 2.30473 0.817383 3.90911V30.0909C0.817383 31.6953 2.12203 33 3.7248 33H29.8913C31.4941 33 32.7987 31.6953 32.7987 30.0909V15.9714V14.8432V16.0055V9.73981V15.9714ZM2.27106 3.90911C2.27106 3.10729 2.9227 2.45459 3.72473 2.45459H29.8912C30.6934 2.45459 31.345 3.10729 31.345 3.90911V6.81822H2.27106V3.90911ZM31.345 30.0909C31.345 30.8927 30.6933 31.5454 29.8913 31.5454H3.7248C2.9227 31.5454 2.27112 30.8927 2.27112 30.0909V8.27274H31.345V10.2241V10.9816V15.9714C31.345 16.3734 31.345 13.0625 31.345 13.0625V15.9714L31.9052 16.0055L32.7987 15.9714C32.9407 15.9429 31.345 15.9714 31.345 15.9714V18.0279V30.0909Z" fill="#3D518E"/>
<path d="M32.7987 15.9714C32.7987 15.9714 32.8407 9.73783 32.7987 9.73981M32.7987 15.9714V30.0909C32.7987 31.6953 31.4941 33 29.8913 33H3.7248C2.12203 33 0.817383 31.6953 0.817383 30.0909V3.90911C0.817383 2.30473 2.12203 1 3.7248 1H29.8913C31.4941 1 32.7987 2.30473 32.7987 3.90911V9.73981M32.7987 15.9714V9.73981M32.7987 15.9714L31.9052 16.0055L31.345 15.9714M32.7987 15.9714C32.9407 15.9429 31.345 15.9714 31.345 15.9714M32.7987 15.9714V14.8432V16.0055V9.73981M31.345 10.2241V8.27274H2.27112V30.0909C2.27112 30.8927 2.9227 31.5454 3.7248 31.5454H29.8913C30.6933 31.5454 31.345 30.8927 31.345 30.0909V18.0279M31.345 10.2241V10.9816M31.345 10.2241V18.0279M31.345 10.2241V13.0625M31.345 10.9816V15.9714M31.345 10.9816V12.601M31.345 15.9714C31.345 16.3734 31.345 13.0625 31.345 13.0625M31.345 15.9714V13.0625M31.345 15.9714V18.0279M31.345 15.9714V12.601M31.345 13.0625V12.601M2.27106 3.90911C2.27106 3.10729 2.9227 2.45459 3.72473 2.45459H29.8912C30.6934 2.45459 31.345 3.10729 31.345 3.90911V6.81822H2.27106V3.90911Z" stroke="#3D518E"/>
</svg>
