<svg width="186" height="49" viewBox="0 0 186 49" fill="none" xmlns="http://www.w3.org/2000/svg">
<path d="M5.16211 0.515842C14.7777 -0.812226 23.8004 0.406714 32.4441 4.37445C41.9445 8.73957 48.523 16.0306 51.1359 21.3964C50.7777 21.2172 50.5182 21.104 50.265 20.9557C41.7283 15.7485 32.4668 12.5796 22.5752 11.2928C19.7606 10.9263 16.8965 10.918 14.053 10.7904C13.4044 10.7615 12.9782 10.6236 12.6961 9.96675C11.1127 6.34287 8.68303 3.37582 5.5492 0.956473C5.41257 0.81645 5.28337 0.669372 5.16211 0.515842Z" fill="url(#paint0_linear_7_253)"/>
<path d="M51.1109 24.6602C47.5159 31.0864 42.6504 35.9848 36.286 39.4048C29.2977 43.1584 21.8728 43.8029 17.4336 42.9299C17.7054 42.796 17.8948 42.6848 18.0987 42.6045C25.0738 39.8485 31.3844 35.6433 36.6134 30.2669C38.1247 28.7308 39.4383 27.0013 40.8179 25.3396C41.1309 24.9587 41.4088 24.7652 41.9318 24.8908C44.8119 25.5676 47.8171 25.4967 50.6621 24.6849C50.8111 24.6681 50.961 24.6599 51.1109 24.6602Z" fill="url(#paint1_linear_7_253)"/>
<path d="M9.96098 48.9993C4.76607 43.337 1.7249 36.6678 0.522428 29.1359C-0.820054 20.7578 0.489483 12.707 3.70773 4.88477C3.74842 5.06665 3.77731 5.25097 3.79421 5.43658C4.11336 15.8243 7.53339 25.2505 12.6871 34.1373C13.3234 35.2347 14.0543 36.2787 14.6803 37.3823C14.8285 37.6417 14.8717 38.138 14.7214 38.3686C12.6233 41.5868 10.9678 44.9904 10.1751 48.7769C10.1648 48.8305 10.0866 48.8737 9.96098 48.9993Z" fill="url(#paint2_linear_7_253)"/>
<path d="M73.9426 26.2316C74.3271 25.6579 74.6783 25.0625 74.9944 24.4485C76.4963 20.9216 77.956 17.3751 79.4747 13.8539C79.6547 13.4376 80.1131 13.1395 80.445 12.7852C80.7263 13.1255 81.1313 13.418 81.3056 13.8089C82.979 17.617 84.6131 21.4419 86.2781 25.2613C86.3653 25.4666 86.5003 25.6494 86.8237 26.195C87.2118 25.4835 87.5577 25.0363 87.7152 24.53C88.7615 21.0988 89.7655 17.6339 90.8258 14.1942C91.1436 13.1592 93.613 12.4645 94.3442 13.252C94.6255 13.5333 94.5495 14.3011 94.4061 14.7792C93.5427 17.6929 92.6061 20.5841 91.7033 23.4978C90.734 26.6141 89.7693 29.735 88.8093 32.8606C88.7844 33.0457 88.7313 33.2259 88.6518 33.3949C88.3565 33.7774 88.0218 34.1262 87.7012 34.489C87.3862 34.1712 86.9587 33.9068 86.7731 33.5243C85.7887 31.5049 84.8718 29.4603 83.9297 27.4212C83.0494 25.5116 82.1831 23.5935 81.2831 21.6922C81.0103 21.2275 80.7058 20.7821 80.3719 20.3591C79.9444 20.9863 79.5731 21.3801 79.3566 21.8582C77.6325 25.5988 75.9563 29.3506 74.2098 33.0743C73.9595 33.6087 73.4167 34.0052 73.0117 34.4637C72.6854 33.9771 72.227 33.5327 72.0554 32.9956C70.247 27.2862 68.4808 21.5713 66.7061 15.8536C66.6546 15.7227 66.6206 15.5855 66.6049 15.4458C66.5852 14.6526 65.2774 13.6486 66.7427 13.1114C68.5483 12.4505 69.752 13.1283 70.2329 14.7679C71.1554 17.9095 72.0695 21.051 73.0173 24.1841C73.1973 24.7803 73.5292 25.3316 73.9426 26.2316ZM71.8135 28.819C72.061 29.584 72.2917 30.335 72.556 31.069C72.6942 31.4268 72.8626 31.7721 73.0595 32.1012C73.1812 32.0853 73.2993 32.0481 73.4082 31.9915C73.3435 31.609 73.2479 31.2321 73.1692 30.8665C73.1486 30.7391 73.1374 30.6103 73.1354 30.4812L74.7385 29.3562L71.8135 28.819ZM92.9774 14.0283L92.2574 13.9439L92.0296 16.3176L92.713 16.3907C92.8002 15.6004 92.8902 14.8158 92.9774 14.0283Z" fill="white"/>
<path d="M98.6172 33.8182C99.759 31.332 100.833 28.9611 101.939 26.6014C103.778 22.664 105.628 18.7321 107.488 14.8059C107.611 14.502 107.761 14.2093 107.935 13.9312C108.179 13.6176 108.44 13.3171 108.717 13.0312C109.023 13.3519 109.44 13.6162 109.625 13.9959C110.714 16.2206 111.751 18.4678 112.8 20.7093C114.662 24.6899 116.521 28.6705 118.378 32.651C118.546 33.0138 118.659 33.4076 118.785 33.776C116.398 34.6535 115.374 34.2429 114.491 32.156C113.585 30.0129 113.54 29.9736 111.152 29.982C109.184 29.982 107.215 30.0607 105.246 30.0214C104.267 30.0017 103.623 30.3026 103.337 31.2729C103.228 31.5311 103.103 31.7819 102.962 32.0239C101.939 34.3188 101.317 34.6001 98.6172 33.8182ZM108.742 27.2342C109.395 27.2342 110.047 27.2652 110.697 27.2342C111.667 27.1752 112.064 26.7195 111.63 25.752C110.885 24.0955 110.165 22.4305 109.395 20.788C109.326 20.6501 109.225 20.5303 109.102 20.438C108.978 20.3457 108.835 20.2835 108.683 20.2565C108.535 20.2937 108.398 20.3635 108.28 20.4609C108.163 20.5582 108.069 20.6806 108.005 20.819C107.502 21.868 107.1 22.9649 106.599 24.0055C104.726 27.777 105.82 27.2314 108.731 27.2342H108.742ZM102.417 29.0286C104.948 26.6127 106.143 23.8339 105.356 22.1858C103.865 24.208 102.746 26.233 102.406 29.0286H102.417ZM109.864 16.5806L109.158 16.8112C109.516 18.0037 109.845 19.2102 110.258 20.3859C110.334 20.6024 110.756 20.698 111.02 20.8471C111.133 20.5349 111.42 20.158 111.33 19.9218C110.885 18.7884 110.351 17.6915 109.853 16.5806H109.864Z" fill="white"/>
<path d="M132.121 25.1733C132.121 27.6567 132.059 30.1401 132.146 32.6179C132.197 34.1057 131.345 34.1254 130.265 34.1479C129.185 34.1704 128.51 33.9679 128.526 32.6292C128.58 27.8086 128.552 22.9852 128.526 18.1618C128.526 16.39 128.335 16.21 126.611 16.1931C125.253 16.1931 123.894 16.1593 122.539 16.1931C121.453 16.224 121.332 15.549 121.349 14.725C121.366 13.9009 121.248 13.0375 122.474 13.0375C127.671 13.0375 132.88 13.0375 138.066 13.0234C139.281 13.0234 139.191 13.8222 139.219 14.649C139.239 15.5547 139.093 16.21 137.957 16.1959C136.505 16.1762 135.051 16.345 133.609 16.2578C132.326 16.179 132.095 16.8203 132.104 17.8609C132.124 20.2965 132.104 22.7321 132.104 25.1733H132.121ZM130.861 33.276C130.937 32.538 130.957 31.7952 130.92 31.0542C130.895 30.8123 130.425 30.6211 130.158 30.4073C129.95 30.6083 129.775 30.8409 129.64 31.0964C129.308 32.0667 129.244 32.9526 130.861 33.276ZM135.08 14.2553L135.22 14.6434C135.625 14.6969 136.025 14.7615 136.43 14.8009C136.867 14.8468 137.306 14.8674 137.746 14.8628C137.814 14.717 137.845 14.5566 137.836 14.3959C137.4 14.1765 136.95 13.8728 136.491 13.8531C136.033 13.8334 135.541 14.1091 135.068 14.2553H135.08Z" fill="white"/>
<path d="M156.402 13.384C158.886 12.5571 159.935 12.9425 161.091 14.9112C162.247 16.8799 163.397 18.8655 164.584 20.8174C164.865 21.2645 165.256 21.6302 165.799 22.2686C167.087 20.1002 168.229 18.1849 169.362 16.2668C169.643 15.783 169.905 15.2824 170.183 14.7931C171.263 12.9143 172.625 12.4812 174.9 13.4009C173.339 15.9687 171.952 18.6377 170.2 21.0339C167.903 24.1923 166.792 27.5392 167.292 31.4035C167.308 31.6376 167.308 31.8725 167.292 32.1066C167.292 33.9994 166.212 34.7616 164.452 34.0107C164.106 33.8616 163.791 33.24 163.765 32.8154C163.653 31.4114 163.653 30.0006 163.765 28.5967C163.979 26.4114 163.231 24.6058 162.064 22.8255C160.269 20.0861 158.599 17.2624 156.889 14.4696C156.704 14.1184 156.541 13.7558 156.402 13.384ZM165.374 33.2822L166.131 33.3244C166.274 32.5791 166.553 31.8226 166.502 31.0913C166.477 30.7454 165.824 30.4416 165.456 30.1182L165.082 30.3769L165.374 33.2822ZM170.867 16.2921C172.194 16.1009 172.602 15.094 173.204 13.8115C171.398 13.9803 171.497 15.4737 170.867 16.2921Z" fill="white"/>
<path d="M181.903 23.6309C181.903 20.63 181.942 17.6291 181.883 14.631C181.861 13.3992 182.319 12.9829 183.531 13.0026C184.69 13.0223 185.376 13.2107 185.365 14.6113C185.314 20.5625 185.314 26.5147 185.365 32.4677C185.365 33.7614 184.89 34.1721 183.624 34.1552C182.358 34.1383 181.849 33.7924 181.88 32.4677C181.948 29.5371 181.903 26.584 181.903 23.6309Z" fill="white"/>
<path d="M149.338 23.4845C149.338 26.5304 149.293 29.5763 149.358 32.6194C149.389 33.9638 148.7 34.155 147.606 34.1438C146.565 34.1438 145.808 34.0847 145.822 32.6841C145.869 26.6391 145.869 20.5952 145.822 14.5521C145.822 13.2134 146.464 13.0193 147.555 13.0137C148.708 13.0137 149.403 13.2162 149.361 14.6308C149.273 17.5811 149.335 20.537 149.335 23.4845H149.338Z" fill="white"/>
<path d="M71.8145 28.8184L74.7479 29.3499L73.1448 30.4749C73.1467 30.604 73.158 30.7328 73.1785 30.8602C73.2572 31.2399 73.3529 31.6168 73.4176 31.9852C73.3086 32.0418 73.1906 32.079 73.0688 32.0949C72.8683 31.767 72.6961 31.4227 72.5541 31.0655C72.2926 30.3343 72.062 29.5834 71.8145 28.8184Z" fill="white"/>
<path d="M92.9791 14.0269C92.8919 14.8144 92.8019 15.599 92.7147 16.3865L92.0312 16.3162L92.2591 13.9453L92.9791 14.0269Z" fill="white"/>
<path d="M108.73 27.2316C105.819 27.2316 104.725 27.7744 106.587 23.9889C107.099 22.9483 107.501 21.8514 107.993 20.8023C108.06 20.6653 108.156 20.5449 108.275 20.45C108.395 20.3551 108.534 20.2881 108.682 20.2539C108.831 20.2817 108.972 20.3433 109.093 20.434C109.215 20.5247 109.313 20.642 109.382 20.777C110.153 22.4195 110.873 24.0845 111.618 25.741C112.051 26.7085 111.655 27.1641 110.685 27.2232C110.035 27.2626 109.382 27.2316 108.73 27.2316Z" fill="#18082B"/>
<path d="M102.406 29.0283C102.747 26.2327 103.866 24.2077 105.345 22.1855C106.133 23.8337 104.937 26.6124 102.406 29.0283Z" fill="white"/>
<path d="M109.852 16.5801C110.35 17.7051 110.885 18.7879 111.318 19.9213C111.408 20.1575 111.121 20.5344 111.008 20.8466C110.744 20.6975 110.322 20.6019 110.246 20.3853C109.833 19.2097 109.504 18.0032 109.146 16.8107L109.852 16.5801Z" fill="white"/>
<path d="M130.863 33.2769C129.246 32.9535 129.313 32.0619 129.642 31.0973C129.776 30.8422 129.949 30.6097 130.154 30.4082C130.421 30.622 130.891 30.8132 130.916 31.0551C130.955 31.796 130.937 32.5387 130.863 33.2769Z" fill="white"/>
<path d="M135.07 14.2587C135.543 14.1124 136.018 13.8368 136.477 13.8565C136.935 13.8762 137.385 14.1799 137.821 14.3993C137.83 14.56 137.799 14.7204 137.731 14.8661C137.291 14.8708 136.852 14.8501 136.415 14.8043C136.01 14.7649 135.61 14.7002 135.205 14.6468L135.07 14.2587Z" fill="white"/>
<path d="M165.373 33.2812L165.092 30.3759L165.466 30.1172C165.834 30.4406 166.487 30.7444 166.512 31.0903C166.563 31.8215 166.284 32.5781 166.141 33.3234L165.373 33.2812Z" fill="white"/>
<path d="M170.867 16.2931C171.5 15.4803 171.399 13.9812 173.204 13.8125C172.602 15.095 172.195 16.1018 170.867 16.2931Z" fill="white"/>
<defs>
<linearGradient id="paint0_linear_7_253" x1="28.149" y1="0" x2="28.149" y2="21.3964" gradientUnits="userSpaceOnUse">
<stop stop-color="#502AD5"/>
<stop offset="1" stop-color="#8B25DA"/>
</linearGradient>
<linearGradient id="paint1_linear_7_253" x1="34.2723" y1="24.6602" x2="34.2723" y2="43.2753" gradientUnits="userSpaceOnUse">
<stop stop-color="#502AD5"/>
<stop offset="1" stop-color="#8B25DA"/>
</linearGradient>
<linearGradient id="paint2_linear_7_253" x1="7.40751" y1="4.88477" x2="7.40751" y2="48.9993" gradientUnits="userSpaceOnUse">
<stop stop-color="#502AD5"/>
<stop offset="1" stop-color="#8B25DA"/>
</linearGradient>
</defs>
</svg>
