<svg width="180" height="66" viewBox="0 0 180 66" fill="none" xmlns="http://www.w3.org/2000/svg">
<g clip-path="url(#clip0_218_8463)">
<path fill-rule="evenodd" clip-rule="evenodd" d="M173.206 28.3014H179.308L162.316 65.0752H156.245L163.088 49.8953L152.469 28.3014H158.664L166.093 43.8331L173.206 28.3014Z" fill="#ffffff"/>
<path fill-rule="evenodd" clip-rule="evenodd" d="M41.8596 13.5066C39.2298 13.5066 36.9739 14.5927 35.0901 16.7647C33.2073 18.9364 32.2654 22.2345 32.2654 26.6575V28.3014H28.3209V33.2028H32.2654V55.7979L37.7052 33.2028H42.6072V28.3014H37.7052V26.6575C37.7052 23.7486 38.1187 21.7269 38.9451 20.5897C39.7728 19.455 41.2515 18.8865 43.3838 18.8865C44.1806 18.8865 45.0181 19.0463 45.8942 19.3648L45.8945 14.0451C44.3404 13.6869 42.9957 13.5066 41.8596 13.5066Z" fill="#ffffff"/>
<path fill-rule="evenodd" clip-rule="evenodd" d="M49.3219 39.2507C49.5846 37.8051 50.0702 36.4473 50.735 35.2137C50.9923 34.8618 51.2764 34.5401 51.5875 34.2492C52.8459 33.0736 54.4602 32.4854 56.4321 32.4854C58.4037 32.4854 59.9728 33.0736 61.1399 34.2492C62.3071 35.4242 62.9604 37.0982 63.1018 39.2702H49.3219H49.317L49.3219 39.2507ZM68.5339 42.5276V41.8411C68.5339 37.5566 67.4378 34.1398 65.2446 31.5891C64.036 30.1832 62.5768 29.2036 60.913 28.5712L60.9729 28.5653C59.6376 28.0571 58.1781 27.7633 56.5494 27.7633C52.7633 27.7633 49.686 29.0735 47.3149 31.6932C44.9433 34.3139 43.7578 37.716 43.7578 41.9C43.7578 44.6899 44.3199 47.1455 45.4463 49.2678C46.5721 51.389 48.0716 53.0779 49.9438 54.3334C51.8173 55.5882 54.2678 56.2166 57.2964 56.2166C59.5082 56.2166 61.4365 55.9774 63.0798 55.4995C64.7234 55.0205 66.3824 54.2245 68.0563 53.1082V53.0685C66.1589 54.3136 63.942 55.0707 61.5458 55.0707L61.5179 55.0696C63.8999 55.0613 66.1039 54.3069 67.9912 53.0685V47.7881C64.9623 50.02 61.6551 51.1359 58.0677 51.1359C55.4985 51.1359 53.4006 50.3591 51.7776 48.8038C50.198 47.2956 49.3514 45.253 49.1763 42.7266L49.1374 42.7221C49.1329 42.6556 49.1217 42.5937 49.1183 42.5279L68.5339 42.5276Z" fill="#ffffff"/>
<path fill-rule="evenodd" clip-rule="evenodd" d="M76.1966 39.2507C76.4586 37.8051 76.9453 36.4473 77.609 35.2137C77.867 34.8618 78.1506 34.5401 78.4615 34.2492C79.7202 33.0736 81.3349 32.4854 83.3065 32.4854C85.278 32.4854 86.8479 33.0736 88.0146 34.2492C89.1812 35.4242 89.8352 37.0982 89.976 39.2702H76.1966H76.1913L76.1966 39.2507ZM95.4081 42.5276V41.8411C95.4081 37.5566 94.3121 34.1398 92.1191 31.5891C90.9099 30.1832 89.4512 29.2036 87.787 28.5712L87.8476 28.5653C86.5123 28.0571 85.0527 27.7633 83.4237 27.7633C79.638 27.7633 76.5603 29.0735 74.1889 31.6932C71.8177 34.3139 70.6321 37.716 70.6321 41.9C70.6321 44.6899 71.1943 47.1455 72.3207 49.2678C73.4463 51.389 74.9463 53.0779 76.8178 54.3334C78.6916 55.5882 81.1421 56.2166 84.1711 56.2166C86.3828 56.2166 88.3108 55.9774 89.9546 55.4995C91.5978 55.0205 93.257 54.2245 94.9305 53.1082V53.0685C93.0333 54.3136 90.8163 55.0707 88.4204 55.0707L88.3919 55.0696C90.7744 55.0613 92.9772 54.3069 94.8654 53.0685V47.7881C91.8375 50.02 88.5291 51.1359 84.9424 51.1359C82.3729 51.1359 80.275 50.3591 78.6522 48.8038C77.0723 47.2956 76.2258 45.253 76.0507 42.7266L76.0118 42.7221C76.0076 42.6556 75.9957 42.5937 75.9926 42.5279L95.4081 42.5276Z" fill="#ffffff"/>
<path fill-rule="evenodd" clip-rule="evenodd" d="M150.018 13.5066C147.388 13.5066 145.131 14.5927 143.248 16.7647C141.366 18.9364 140.425 22.2345 140.425 26.6575V28.3014H136.478V33.2028H140.425V55.7979H145.862V33.2028H150.765V28.3014H145.862V26.6575C145.862 23.7486 146.277 21.7269 147.105 20.5897C147.931 19.455 149.411 18.8865 151.541 18.8865C152.339 18.8865 153.176 19.0463 154.051 19.3648V14.0451C152.498 13.6869 151.154 13.5066 150.018 13.5066Z" fill="#100F0D"/>
<path fill-rule="evenodd" clip-rule="evenodd" d="M21.5748 25.6449C21.5589 25.6438 20.6148 25.6438 19.7919 25.6442H16.1844C15.9436 25.6442 15.7044 25.7205 15.5085 25.8628L9.70034 30.0266L9.78356 26.8367C9.79158 26.5249 9.67458 26.2214 9.45324 25.9937C9.2343 25.7695 8.93596 25.6442 8.62062 25.6442H4.5056C3.58179 25.6442 3.02243 24.8398 3.02243 23.8854V8.6735C3.02243 7.74658 3.55047 7.01839 4.5056 7.01839H9.90404L10.3642 4.69175H4.5056C2.28101 4.69175 0.692017 6.47883 0.692017 8.6735V23.8854C0.692017 26.1385 2.28101 27.9722 4.5056 27.9722H7.42426L7.3101 32.3047C7.29896 32.7455 7.53773 33.1572 7.92968 33.3647C8.10094 33.4562 8.28855 33.5015 8.47582 33.5015C8.71426 33.5015 8.95271 33.4273 9.15142 33.2818L16.5604 27.9722H18.7178H21.3559L21.3674 27.9784L21.3705 27.9722C21.4944 27.9722 21.5735 27.9722 21.5735 27.9722C22.185 27.9256 22.6657 27.4236 22.6657 26.8096C22.6657 26.1962 22.185 25.6915 21.5748 25.6449Z" fill="#F6C028"/>
<path fill-rule="evenodd" clip-rule="evenodd" d="M30.4349 22.2232L24.7542 22.2113H24.7591C23.4318 22.2054 22.1047 22.2037 20.7781 22.2037C19.5709 22.2037 18.3638 22.205 17.157 22.205C16.7282 22.205 16.2993 22.205 15.8705 22.2047H15.8691H15.8677H15.8454C14.5979 22.2057 13.342 21.8117 12.4265 21.0237L12.421 21.0188L12.4158 21.0146C11.2849 20.0901 10.5465 18.6477 10.5503 17.2105V17.1707L10.5511 17.168V17.1669C10.5577 15.8581 10.5598 14.5504 10.5598 13.243C10.5598 11.638 10.5567 10.034 10.5567 8.43074C10.5567 7.85991 10.557 7.28944 10.5584 6.71852L9.90431 6.71754L10.5584 6.73108C10.5799 5.60849 11.0492 4.51138 11.8052 3.65059C12.5602 2.78908 13.5926 2.17717 14.6992 1.99646L14.5934 1.35113L14.6003 2.0052C17.0797 1.97837 19.5605 1.97106 22.043 1.97106C24.7044 1.97106 27.3676 1.97944 30.0315 1.97944C30.9672 1.97944 31.9017 1.97837 32.837 1.97561L32.8352 1.32191L32.8245 1.97561C32.9724 1.97766 33.1193 1.97908 33.2655 1.97908C33.6731 1.97837 34.0738 1.97213 34.4667 1.97213C34.9502 1.97213 35.4222 1.9822 35.8821 2.024L35.9412 1.3727L35.8048 2.0125C36.643 2.19036 37.4314 2.60454 38.0812 3.18169C38.7318 3.75814 39.2403 4.4957 39.5275 5.30605L39.533 5.32031L39.539 5.33492C39.6765 5.66801 39.7308 6.06312 39.7297 6.48746V6.5076V6.48746C39.7308 7.4673 39.7311 8.01862 39.7311 8.37541C39.7311 8.95328 39.73 9.02073 39.73 9.56617C39.73 9.92091 39.7308 10.4789 39.7315 11.5127L41.0392 11.5113C41.0382 10.4782 41.0382 9.92091 41.0382 9.56617C41.0382 9.0218 41.0382 8.95462 41.0382 8.37541C41.0382 8.01826 41.0382 7.46623 41.0374 6.48675V6.48746C41.0374 5.95726 40.9741 5.39062 40.7486 4.8393L40.1436 5.08676L40.7601 4.86817C40.3935 3.83709 39.7579 2.92132 38.949 2.20328C38.1401 1.48586 37.1539 0.963333 36.0776 0.73361L36.0393 0.725321L36.0004 0.721846C35.4796 0.674795 34.9676 0.664368 34.4667 0.664368C34.0592 0.664368 33.6585 0.670965 33.2655 0.670965C33.1248 0.670965 32.9846 0.670252 32.8454 0.668203H32.8394H32.8332C31.8996 0.670965 30.9657 0.671679 30.0315 0.671679C27.3704 0.671679 24.7073 0.663656 22.043 0.663656C19.5584 0.663656 17.0728 0.67025 14.5861 0.697784H14.5363L14.4872 0.706165C13.0472 0.943909 11.7621 1.71871 10.8222 2.78802C9.88417 3.85768 9.28197 5.23503 9.25096 6.70426L9.2507 6.71059V6.71647C9.24998 7.28766 9.24927 7.8592 9.24927 8.43074C9.24927 10.0354 9.25239 11.6401 9.25239 13.243C9.25239 14.549 9.24998 15.8543 9.24303 17.1596L9.2433 17.1561L9.24268 17.2105C9.24713 19.0891 10.1707 20.8605 11.586 22.0258L12.0005 21.52L11.5751 22.0164C12.7767 23.0439 14.3316 23.5114 15.8454 23.5124L15.8722 23.5121H15.8694C16.2986 23.5128 16.7278 23.5128 17.157 23.5128C18.3645 23.5128 19.5716 23.5117 20.7781 23.5117C22.1039 23.5114 23.4291 23.5131 24.7535 23.5188H24.7566L30.4325 23.5305L30.4349 22.2232Z" fill="#ED2E3D"/>
<path fill-rule="evenodd" clip-rule="evenodd" d="M17.7769 9.79008C18.6739 9.65295 19.6516 9.91992 20.2869 10.5844C21.3507 11.7293 21.2316 13.792 19.9538 14.7301C18.8215 15.5599 17.0957 15.4088 16.1406 14.3737C15.2506 13.3092 15.3017 11.6231 16.1903 10.5736C16.6035 10.1337 17.1935 9.89871 17.7769 9.79008Z" fill="#ED2E3D"/>
<path fill-rule="evenodd" clip-rule="evenodd" d="M24.9509 9.7938C25.8458 9.6121 26.8099 9.86517 27.4901 10.4725C28.5678 11.523 28.5981 13.418 27.5465 14.4974C26.4866 15.5364 24.6244 15.5393 23.5596 14.5078C22.7016 13.6297 22.5292 12.1882 23.1276 11.1214C23.4628 10.4005 24.2028 9.96613 24.9509 9.7938Z" fill="#ED2E3D"/>
<path fill-rule="evenodd" clip-rule="evenodd" d="M32.2372 9.79249C33.0835 9.66961 33.9965 9.88855 34.6331 10.4744C35.7912 11.5632 35.747 13.6819 34.4834 14.6729C33.4128 15.5191 31.7159 15.4526 30.7406 14.4898C29.746 13.4863 29.7085 11.7232 30.6239 10.6581C31.0315 10.1837 31.6264 9.89167 32.2372 9.79249Z" fill="#ED2E3D"/>
<path fill-rule="evenodd" clip-rule="evenodd" d="M140.425 28.3014V26.6575C140.425 22.2345 141.366 18.9364 143.248 16.7647C145.131 14.5927 147.387 13.5066 150.018 13.5066C151.154 13.5066 152.498 13.6869 154.051 14.0451V19.3648C153.176 19.046 152.339 18.8865 151.541 18.8865C149.411 18.8865 147.931 19.455 147.105 20.5897C146.277 21.7265 145.862 23.7486 145.862 26.6575V28.3014H150.765V33.2028H145.862V55.7979H140.425V33.2028H136.478V28.3014H140.425Z" fill="#ffffff"/>
<path fill-rule="evenodd" clip-rule="evenodd" d="M117.196 51.1359H112.983C110.551 51.1359 108.868 50.9758 107.931 50.658C106.994 50.3385 106.108 49.7207 105.271 48.8038C104.879 48.3726 104.548 47.8849 104.266 47.3509C103.774 46.2155 103.43 44.9944 103.254 43.7128C103.21 43.2459 103.179 42.767 103.179 42.2588C103.179 39.2507 103.981 36.8594 105.585 35.0859C107.189 33.3124 109.346 32.4263 112.054 32.4263C113.789 32.4263 115.503 32.854 117.196 33.7109V51.1359ZM122.666 14.045H117.196V28.8692C115.045 28.0923 113.052 27.7038 111.219 27.7038C110.59 27.7038 109.984 27.7494 109.391 27.8158C106.145 28.0665 103.458 29.3537 101.341 31.6932C100.89 32.1913 100.496 32.7263 100.132 33.2804C98.5064 35.5979 97.6794 38.3663 97.6794 41.6013C97.6794 45.5976 98.7265 48.8355 100.796 51.334C101.697 52.5154 102.754 53.5172 103.971 54.3334C105.844 55.5882 108.294 56.2166 111.324 56.2166C113.009 56.2166 114.527 56.0756 115.882 55.7978H122.666V14.045Z" fill="#ffffff"/>
<path fill-rule="evenodd" clip-rule="evenodd" d="M41.8596 13.5066C39.2298 13.5066 36.9739 14.5927 35.0901 16.7647C33.2073 18.9364 32.2654 22.2345 32.2654 26.6575V28.3014H28.3209V33.2028H32.2654V55.7979H37.7052V33.2028H42.6072V28.3014H37.7052V26.6575C37.7052 23.7486 38.1187 21.7269 38.9451 20.5897C39.7728 19.455 41.2515 18.8865 43.3838 18.8865C44.1806 18.8865 45.0181 19.0463 45.8942 19.3648L45.8945 14.0451C44.3404 13.6869 42.9957 13.5066 41.8596 13.5066Z" fill="#ffffff"/>
<path fill-rule="evenodd" clip-rule="evenodd" d="M127.722 28.3014V55.7979H133.162V28.3014H127.722Z" fill="#ffffff"/>
<path fill-rule="evenodd" clip-rule="evenodd" d="M128.53 23.5602C127.99 23.013 127.72 22.3747 127.72 21.6492C127.72 20.9412 127.99 20.3122 128.53 19.7647C129.07 19.2168 129.695 18.9415 130.403 18.9415C131.163 18.9415 131.813 19.2026 132.353 19.7268C132.893 20.2496 133.162 20.8914 133.162 21.6492C133.163 22.3927 132.893 23.0335 132.353 23.5745C131.813 24.113 131.163 24.3838 130.403 24.3838C129.695 24.3838 129.07 24.1088 128.53 23.5602Z" fill="#3C508D"/>
</g>
<defs>
<clipPath id="clip0_218_8463">
<rect width="180" height="65.9406" fill="white"/>
</clipPath>
</defs>
</svg>
